{"glyphs":{"0":{"ha":1015,"x_min":14,"x_max":989,"o":"m 240 -17 q 73 57 132 -17 q 14 241 14 131 q 96 539 14 376 q 337 806 179 702 q 616 911 496 911 q 806 852 705 911 q 949 722 908 794 q 989 529 989 649 q 755 166 989 349 q 240 -17 521 -17 m 718 779 q 669 760 702 760 q 643 774 664 760 q 604 790 621 790 q 471 764 520 790 q 337 656 422 738 q 199 476 252 574 q 145 277 145 378 q 201 126 145 157 q 324 96 258 96 q 534 163 408 96 q 768 335 661 230 q 875 507 875 441 q 863 596 875 545 q 836 665 850 646 q 782 726 821 684 q 718 779 742 768 z "},"1":{"ha":1015,"x_min":96,"x_max":935,"o":"m 571 86 l 574 46 q 485 11 574 11 q 458 34 475 11 q 433 53 441 56 q 359 35 426 53 q 279 11 292 16 q 164 -16 197 -16 q 114 5 133 -16 q 96 46 96 26 q 157 99 96 82 q 264 123 218 115 q 435 168 410 153 q 465 465 442 298 l 504 751 q 395 704 465 751 q 176 623 271 623 q 146 665 146 623 q 156 701 146 692 q 251 746 167 710 q 463 859 335 783 q 602 935 590 935 q 639 905 623 935 q 654 852 654 875 q 635 814 654 833 q 557 369 568 524 q 554 189 547 215 q 703 218 606 191 q 918 254 836 254 q 935 201 935 223 q 928 172 935 178 q 883 152 921 165 q 752 127 845 139 q 571 86 616 108 z "},"2":{"ha":1015,"x_min":16,"x_max":968,"o":"m 368 172 q 475 175 404 175 q 770 162 564 175 q 843 160 827 159 q 884 171 859 161 q 926 182 912 182 q 953 164 938 182 q 968 135 968 147 q 922 66 968 91 q 840 41 876 41 l 815 41 q 720 50 750 41 q 485 75 625 75 q 274 46 365 75 q 156 -16 183 17 q 110 -61 125 -52 q 68 -71 95 -71 q 16 -24 16 -71 q 74 102 16 47 q 270 227 132 157 q 368 281 351 267 q 466 369 386 296 q 587 494 545 441 q 646 587 628 546 q 664 663 664 628 q 608 759 664 710 q 503 808 551 808 q 378 756 462 808 q 254 656 295 705 q 174 625 228 625 q 146 654 161 625 q 131 701 131 684 q 134 719 131 714 q 202 770 138 724 q 319 849 267 816 q 423 901 371 883 q 557 918 475 918 q 689 860 627 918 q 780 746 750 802 q 810 682 810 690 q 671 425 810 589 q 368 172 532 261 z "},"3":{"ha":1015,"x_min":90,"x_max":911,"o":"m 321 415 q 272 444 272 415 q 281 480 272 460 q 336 540 291 500 l 457 643 q 621 770 532 707 q 421 756 583 776 q 245 741 296 741 q 129 847 129 741 q 143 884 129 868 q 177 900 157 900 q 214 884 192 900 q 256 860 241 865 q 301 854 271 854 q 477 867 349 854 q 747 886 646 886 q 830 832 830 886 q 796 766 830 793 q 696 701 762 739 q 576 624 610 649 q 508 557 542 598 q 621 562 583 562 q 762 542 703 562 q 850 488 821 521 q 895 434 880 454 q 911 361 911 414 q 844 214 911 315 q 625 53 778 113 q 326 -7 471 -7 q 204 4 283 -7 q 107 42 125 14 q 90 98 90 70 q 157 170 90 170 q 167 166 159 170 l 214 146 q 355 111 291 111 q 524 133 410 111 q 715 228 638 155 q 793 343 793 300 q 715 441 793 417 q 543 465 637 465 q 321 415 410 465 z "},"4":{"ha":1015,"x_min":22,"x_max":962,"o":"m 890 325 q 665 351 796 359 q 642 207 642 274 l 643 176 l 643 149 l 644 118 q 644 82 644 92 q 661 51 643 73 q 679 21 679 29 q 657 -24 679 1 q 614 -49 635 -49 q 543 -24 561 -49 q 526 50 526 1 q 531 134 526 77 q 537 216 536 189 q 553 343 540 282 q 505 346 537 346 q 271 322 361 346 q 95 296 174 296 q 22 342 62 296 q 353 664 52 426 q 509 793 450 739 q 648 908 572 851 q 739 965 725 965 q 793 937 793 965 q 755 796 789 918 q 680 458 696 565 q 840 441 724 441 l 887 441 q 944 426 926 441 q 962 358 962 410 q 949 330 962 342 q 922 318 937 318 q 890 325 903 318 m 644 779 q 528 683 618 754 q 422 590 453 623 q 223 422 349 513 q 235 412 223 412 q 434 435 262 423 q 576 454 531 441 q 595 552 581 498 q 644 779 644 735 z "},"5":{"ha":1015,"x_min":93,"x_max":1074,"o":"m 476 747 q 385 632 437 711 q 361 599 370 611 q 349 581 352 586 q 496 542 387 557 q 704 496 635 522 q 802 421 772 470 q 832 287 832 372 q 783 168 832 234 q 621 43 734 102 q 368 -16 507 -16 q 174 29 255 -16 q 93 104 93 74 q 175 170 93 170 q 214 153 193 170 q 387 100 290 100 q 601 161 491 100 q 710 279 710 223 q 657 390 710 351 q 491 440 604 428 l 338 457 q 238 491 273 465 q 203 538 203 516 q 228 590 203 561 q 287 675 233 597 q 426 849 397 840 q 792 869 455 859 q 916 889 852 871 q 978 903 966 903 q 1051 878 1020 903 q 1074 852 1074 866 q 1048 803 1074 833 q 976 766 1023 773 q 859 760 929 760 l 632 766 q 476 747 532 766 z "},"6":{"ha":1015,"x_min":107,"x_max":928,"o":"m 648 799 q 614 793 624 799 q 424 640 526 768 q 361 572 406 616 q 287 489 312 526 q 240 388 262 453 q 218 267 218 323 q 233 203 218 232 q 320 127 247 174 q 357 327 307 234 q 486 461 408 420 q 725 503 563 503 q 866 449 803 503 q 928 319 928 395 q 888 216 928 270 q 754 102 847 161 q 607 22 661 43 q 408 1 552 1 q 274 27 332 1 q 161 117 215 53 q 107 233 107 180 q 138 421 107 349 q 226 571 170 492 q 335 699 283 650 q 392 758 353 715 q 516 873 466 839 q 612 907 566 907 q 655 891 635 907 q 675 851 675 875 q 648 799 675 804 m 836 347 q 657 403 759 403 q 400 118 416 403 q 460 111 422 111 l 527 114 q 714 197 593 114 q 836 347 836 281 z "},"7":{"ha":1015,"x_min":178,"x_max":975,"o":"m 816 777 l 803 787 q 218 768 492 768 q 190 784 202 768 q 178 821 178 800 q 196 862 178 842 q 233 882 214 882 q 348 877 258 882 q 522 871 437 871 q 805 885 675 871 q 934 894 890 894 q 975 853 975 894 q 970 826 975 833 q 933 780 964 818 q 878 714 901 741 q 799 604 852 686 l 739 515 q 615 293 675 418 q 542 131 555 168 q 530 52 530 94 q 512 0 530 20 q 467 -20 494 -20 q 420 10 438 -20 q 401 71 401 39 q 482 264 401 103 q 649 556 562 426 q 762 714 736 686 q 816 777 792 746 z "},"8":{"ha":1015,"x_min":189,"x_max":852,"o":"m 591 431 q 731 331 663 401 q 800 203 800 261 q 779 95 800 142 q 639 16 758 47 q 450 -16 520 -16 q 319 3 397 -16 q 215 55 241 22 q 189 144 189 87 q 231 248 189 192 q 334 344 273 304 q 429 411 410 396 l 393 431 q 249 537 291 486 q 206 634 206 589 q 240 724 206 682 q 383 825 275 766 q 436 854 410 839 q 584 892 496 892 q 668 868 612 892 q 741 826 724 845 q 766 753 758 808 q 775 699 774 699 q 793 724 783 709 q 808 747 804 743 q 837 726 823 744 q 852 693 852 709 q 810 618 852 676 q 703 515 769 561 q 591 431 610 450 m 521 473 q 684 668 684 605 q 650 756 684 722 q 562 790 616 790 q 412 734 500 790 q 324 643 324 677 q 471 502 324 583 q 521 473 503 484 m 693 197 q 636 292 693 238 q 514 372 579 346 q 307 143 307 227 q 346 98 307 115 q 416 82 384 82 q 630 113 568 82 q 693 183 693 144 l 693 197 z "},"9":{"ha":1015,"x_min":180,"x_max":880,"o":"m 880 747 q 864 689 880 727 q 752 353 802 538 q 701 106 701 168 q 655 4 701 4 q 598 42 614 4 q 583 110 583 81 q 656 393 583 148 l 669 440 l 657 449 q 482 361 541 380 q 333 342 422 342 q 236 404 292 342 q 180 507 180 466 q 193 588 180 550 q 237 668 206 626 q 341 770 269 711 q 450 846 414 829 q 558 883 486 864 q 669 901 630 901 q 735 889 706 901 q 808 837 765 876 q 860 793 850 797 q 880 747 870 789 m 762 733 q 646 791 743 791 q 400 691 505 791 q 294 529 294 591 q 323 460 294 484 q 397 436 352 436 q 511 466 445 436 q 630 529 577 496 q 697 579 683 563 q 724 633 711 595 q 762 733 750 713 z "}," ":{"ha":555,"x_min":0,"x_max":0,"o":""},"!":{"ha":450,"x_min":97,"x_max":361,"o":"m 239 338 q 192 343 222 338 q 151 357 162 349 q 185 629 142 429 q 220 855 220 791 q 253 978 220 946 q 309 1010 286 1010 q 343 996 326 1010 q 361 964 361 981 q 286 620 361 949 q 254 409 255 482 q 239 338 252 361 m 239 136 q 205 41 239 69 q 147 14 172 14 q 97 79 97 14 q 121 141 97 105 q 172 176 146 176 q 214 161 189 176 q 239 136 239 146 z "},"\"":{"ha":561,"x_min":89,"x_max":521,"o":"m 401 534 q 353 604 353 534 q 376 732 353 645 q 411 882 403 823 q 437 995 427 977 q 471 1013 448 1013 q 504 999 488 1013 q 521 966 521 985 q 504 879 521 949 q 474 726 484 797 q 442 559 454 584 q 401 534 429 534 m 135 546 q 89 616 89 546 q 106 696 89 635 l 132 838 q 153 960 146 918 q 196 1013 159 1013 q 227 995 212 1013 q 241 958 241 977 q 239 924 241 945 l 236 902 q 232 876 235 890 l 227 838 q 212 781 224 818 q 197 725 198 743 q 174 572 187 599 q 135 546 161 546 z "},"#":{"ha":1107,"x_min":29,"x_max":1061,"o":"m 741 597 q 716 505 734 564 q 690 415 698 445 q 718 396 697 396 q 808 414 730 396 q 901 432 887 432 q 976 416 960 432 q 991 361 991 399 q 975 333 991 344 q 940 322 958 322 q 910 332 928 322 q 873 342 893 342 q 777 329 820 342 q 665 319 741 319 q 651 282 665 315 q 624 184 624 210 l 627 147 q 614 103 627 126 q 578 79 601 79 q 552 103 565 79 q 539 143 539 127 q 556 244 539 186 q 568 294 564 271 q 458 280 532 292 l 361 267 q 262 61 301 61 q 233 92 233 61 q 281 267 233 176 q 168 267 262 269 q 51 270 73 264 q 29 302 29 276 q 63 342 29 324 q 121 361 96 361 q 213 356 163 361 q 300 351 263 351 q 323 417 313 379 q 364 546 352 538 q 237 535 340 551 q 129 522 156 522 q 46 557 46 522 q 65 586 46 578 q 186 611 83 595 q 229 618 207 614 q 355 636 319 635 q 438 777 397 663 q 476 854 458 833 q 522 875 494 875 q 541 844 541 875 q 509 743 541 814 q 471 644 475 671 l 689 672 q 726 808 703 691 q 768 979 752 945 q 811 1004 786 1004 q 846 962 846 1004 q 826 882 846 932 q 783 754 802 823 q 762 682 773 717 q 882 698 829 690 q 993 705 936 705 q 1050 694 1039 705 q 1061 660 1061 683 q 1055 637 1061 651 q 1042 624 1049 624 q 741 597 819 624 m 661 590 q 437 557 503 576 q 380 361 404 479 q 500 368 479 368 q 604 396 554 368 q 623 452 606 401 q 641 506 629 473 q 661 590 658 555 z "},"$":{"ha":762,"x_min":18,"x_max":703,"o":"m 490 750 q 481 663 488 718 q 468 525 468 562 q 473 519 468 523 q 479 513 479 516 q 532 481 513 492 q 565 463 541 475 q 620 422 604 446 q 636 343 636 399 q 433 179 636 237 q 424 66 433 161 q 415 -39 415 -22 q 422 -87 415 -56 q 429 -138 429 -125 q 414 -156 429 -148 q 383 -164 399 -164 q 325 -94 325 -164 l 325 -72 q 332 20 325 -49 q 339 131 339 96 q 294 122 323 125 q 182 98 251 117 q 92 81 110 81 q 43 90 67 81 q 18 115 18 100 q 49 175 18 148 q 183 208 79 202 l 263 216 q 347 241 289 218 q 371 481 371 409 q 286 519 357 492 q 168 583 214 541 q 122 681 122 625 q 229 773 122 728 q 403 822 335 819 q 407 873 407 848 l 407 1023 q 431 1055 407 1044 q 473 1067 455 1067 q 518 991 518 1067 q 507 915 518 966 q 497 842 497 862 q 574 845 517 845 q 620 851 594 845 q 657 856 640 856 q 703 803 703 856 q 679 758 703 764 q 549 751 654 751 l 510 751 q 490 750 496 751 m 396 733 q 236 663 258 705 q 382 574 245 630 l 396 733 m 460 446 q 443 267 443 328 q 553 347 553 326 q 517 400 553 368 q 460 446 482 433 z "},"%":{"ha":1014,"x_min":102,"x_max":942,"o":"m 746 811 q 613 597 705 733 q 475 380 511 441 q 387 202 439 318 q 329 75 344 102 q 298 36 315 47 q 279 25 281 25 q 244 72 244 25 q 300 243 244 109 q 437 488 357 377 q 613 764 496 570 q 642 810 630 792 q 428 831 543 838 q 441 765 441 800 q 405 643 441 708 q 304 544 369 578 q 195 510 240 510 q 102 654 102 510 q 132 767 102 684 q 224 901 162 850 q 361 951 286 951 q 424 916 389 951 q 775 885 444 910 q 785 860 785 873 q 746 811 785 831 m 339 850 q 316 847 331 850 q 293 844 301 844 q 222 771 260 844 q 184 659 184 699 q 186 618 184 627 q 208 600 189 610 q 252 590 227 590 q 327 641 294 590 q 361 737 361 692 q 339 850 361 769 m 685 40 q 587 86 610 40 q 564 170 564 132 q 620 322 564 241 q 732 404 675 404 q 880 361 817 404 q 942 253 942 318 q 931 183 942 214 q 888 122 921 152 q 803 66 855 92 q 685 40 751 40 m 675 123 q 710 127 692 127 l 739 125 q 803 153 749 125 q 857 244 857 181 q 843 276 857 261 q 812 296 829 292 q 781 311 802 298 q 749 325 757 325 q 688 280 716 325 q 660 176 660 236 q 675 123 660 138 z "},"&":{"ha":1283,"x_min":119,"x_max":1240,"o":"m 843 29 q 789 62 829 43 q 745 81 748 82 l 737 75 q 711 60 736 75 q 629 9 679 41 q 536 -31 599 -11 q 441 -50 473 -50 q 201 27 283 -50 q 119 194 119 105 q 170 349 119 254 q 367 532 220 445 q 382 555 382 542 q 374 660 382 579 q 366 764 366 747 q 417 952 366 884 q 567 1021 468 1021 q 676 964 635 1021 q 718 829 718 907 q 698 737 718 782 q 646 657 678 692 q 516 537 614 623 q 505 521 505 527 q 585 363 505 472 q 755 198 665 254 q 810 257 781 198 l 827 290 q 886 429 847 329 q 739 450 762 438 q 717 511 717 461 q 745 541 717 529 q 793 553 773 553 q 821 548 808 553 q 932 522 889 522 q 1064 534 968 522 q 1183 545 1160 545 q 1240 515 1240 545 q 1206 475 1240 490 q 1044 437 1173 460 q 1007 418 1022 434 q 958 329 991 402 q 913 244 926 263 q 857 158 857 165 q 910 120 857 141 q 1019 98 963 98 q 1082 106 1030 98 q 1143 114 1133 114 q 1199 75 1199 114 q 1148 27 1199 61 q 1029 -7 1098 -7 q 843 29 911 -7 m 479 615 q 615 844 615 724 q 588 898 615 871 q 540 925 562 925 q 487 886 509 925 q 465 774 465 848 q 479 615 465 621 m 659 130 q 587 204 646 150 q 522 267 532 254 q 492 315 512 280 q 408 446 417 436 q 291 337 339 412 q 243 200 243 262 q 306 99 243 140 q 436 57 369 57 q 659 130 503 57 z "},"'":{"ha":321,"x_min":90,"x_max":265,"o":"m 142 518 q 105 547 120 518 q 90 602 90 576 q 106 734 90 635 q 155 919 122 834 q 222 1003 189 1003 q 254 988 242 1003 q 265 951 265 972 q 250 899 265 935 q 232 854 235 865 q 213 786 230 846 q 190 641 190 710 q 181 548 190 578 q 142 518 172 518 z "},"(":{"ha":558,"x_min":47,"x_max":533,"o":"m 47 288 l 47 311 q 66 482 47 410 q 138 671 85 553 q 245 869 211 827 q 362 981 261 889 q 454 1050 424 1037 q 504 1063 485 1063 q 533 1028 533 1063 q 435 911 533 1005 q 222 621 303 787 q 140 330 140 454 q 174 102 140 271 q 179 71 178 81 q 232 -94 201 -39 q 329 -207 262 -149 q 401 -304 401 -269 q 335 -344 401 -344 q 240 -282 294 -344 q 141 -155 185 -220 q 73 61 98 -90 q 47 288 47 211 z "},")":{"ha":505,"x_min":17,"x_max":428,"o":"m 146 -345 q 104 -330 123 -345 q 85 -300 85 -315 q 96 -266 85 -286 q 172 -163 107 -245 q 274 37 218 -108 q 330 215 330 181 q 269 602 330 432 q 161 847 208 771 q 25 1004 115 922 q 17 1031 17 1012 q 37 1059 17 1042 q 77 1076 56 1076 q 141 1037 106 1076 q 248 890 176 999 q 336 721 319 781 q 373 608 354 663 q 428 267 428 448 q 260 -196 428 20 q 220 -257 232 -234 q 182 -321 199 -298 q 146 -345 166 -345 z "},"*":{"ha":714,"x_min":25,"x_max":689,"o":"m 415 724 q 470 655 420 715 q 562 528 562 550 q 550 495 562 509 q 522 481 538 481 q 478 514 505 481 q 464 532 467 529 q 424 581 454 543 q 335 689 351 677 q 282 602 319 680 q 179 447 207 447 q 153 460 176 447 q 129 501 129 474 q 223 641 129 514 q 264 700 258 689 q 208 701 252 702 q 155 698 165 701 q 79 677 146 695 q 40 669 52 669 q 30 684 35 669 q 25 704 25 698 q 34 726 25 713 q 84 749 42 739 q 142 760 127 760 q 281 774 250 760 q 231 838 275 787 q 224 847 224 846 q 172 940 172 915 q 180 958 172 948 q 195 968 187 968 q 336 823 234 968 q 447 950 366 852 q 513 1013 488 1013 q 542 1003 529 1013 q 555 978 555 994 q 529 944 559 967 q 517 932 522 939 q 438 830 477 863 q 411 804 420 814 q 433 800 421 800 q 570 818 481 800 q 657 829 630 829 q 680 810 670 829 q 689 778 689 790 q 671 754 689 762 q 567 743 653 747 q 415 724 431 738 z "},"+":{"ha":793,"x_min":64,"x_max":733,"o":"m 733 343 q 671 325 719 325 q 612 330 653 325 q 546 335 566 335 l 501 335 q 466 334 481 335 l 433 334 q 399 334 417 334 q 384 241 384 304 q 380 144 384 164 q 379 91 377 125 q 342 56 381 56 q 303 67 313 56 q 294 107 294 78 q 306 214 294 123 q 317 334 311 258 q 186 338 273 338 q 146 331 171 338 q 111 325 119 325 q 78 339 93 325 q 64 371 64 353 q 74 400 64 385 q 96 415 83 415 q 145 410 119 415 q 184 406 172 406 l 321 412 q 329 465 329 438 q 323 590 329 502 q 321 653 321 627 q 335 699 321 676 q 370 722 349 722 q 394 700 380 722 q 407 665 407 677 q 401 571 407 630 q 395 490 395 512 q 399 421 395 456 q 478 416 412 416 l 633 419 q 715 406 696 419 q 733 343 733 392 z "},",":{"ha":475,"x_min":98,"x_max":412,"o":"m 103 -129 q 265 -40 229 -98 q 301 41 301 17 q 282 139 301 111 q 273 164 273 152 q 282 193 273 174 q 301 212 292 212 q 346 202 315 212 q 382 183 376 191 q 400 133 387 176 q 412 60 412 90 q 387 -12 412 48 q 317 -105 361 -72 q 235 -146 273 -139 q 205 -154 219 -149 q 118 -178 152 -178 q 98 -146 98 -178 q 103 -129 98 -134 z "},"-":{"ha":890,"x_min":239,"x_max":842,"o":"m 437 441 l 487 441 q 675 450 613 441 q 734 454 705 454 q 787 439 747 454 q 834 413 827 423 q 842 385 842 402 q 831 349 842 359 q 787 339 821 339 q 745 348 772 339 q 700 357 718 357 q 650 353 692 357 q 569 357 628 351 q 501 361 524 361 q 407 357 470 361 q 311 353 344 353 q 259 360 279 353 q 239 392 239 367 q 248 417 239 403 q 310 440 257 432 q 386 449 363 449 l 437 441 z "},".":{"ha":349,"x_min":89,"x_max":249,"o":"m 188 187 l 203 187 q 232 175 215 187 q 249 143 249 163 q 235 83 249 102 q 189 41 220 64 q 144 18 157 18 q 102 31 116 18 q 89 102 89 44 q 95 165 89 155 q 124 181 101 176 q 188 187 148 187 z "},"/":{"ha":799,"x_min":-11,"x_max":779,"o":"m 41 -89 q 7 -71 24 -89 q -11 -36 -11 -54 q 23 47 -11 -24 q 129 229 56 117 q 262 420 202 340 q 272 435 268 428 q 399 627 315 505 q 560 873 490 757 q 647 998 593 926 q 725 1069 701 1069 q 759 1045 739 1069 q 779 1006 779 1021 q 687 852 779 979 q 304 307 488 581 q 241 216 282 274 q 159 80 174 115 q 98 -22 144 45 q 41 -89 52 -89 z "},":":{"ha":414,"x_min":127,"x_max":304,"o":"m 196 517 q 160 549 179 517 q 140 602 140 581 q 162 649 140 611 q 229 686 183 686 q 264 669 234 686 q 299 641 294 652 q 304 603 304 631 q 277 548 304 578 q 196 517 249 517 m 193 14 q 141 34 154 14 q 127 94 127 54 q 130 144 127 127 q 157 178 133 160 q 199 196 182 196 q 259 182 231 196 q 288 142 288 168 q 245 50 288 85 q 193 14 203 14 z "},";":{"ha":458,"x_min":3,"x_max":325,"o":"m 215 528 q 184 553 198 528 q 170 596 170 578 q 185 647 170 606 q 231 688 201 688 q 271 671 233 688 q 317 644 309 655 q 325 603 325 632 q 287 549 325 571 q 215 528 249 528 m 8 -119 q 169 -32 132 -90 q 205 52 205 25 q 188 151 205 125 q 179 176 179 164 q 189 208 179 191 q 214 225 199 225 q 260 216 239 225 q 286 193 280 207 q 300 138 291 180 q 310 69 310 97 q 288 2 310 52 q 249 -66 267 -47 q 149 -127 231 -85 q 21 -168 66 -168 q 3 -140 3 -168 q 8 -119 3 -127 z "},"<":{"ha":745,"x_min":77,"x_max":665,"o":"m 210 440 q 258 410 218 429 q 300 390 298 390 q 332 368 311 385 q 370 345 351 352 q 634 227 603 244 q 665 174 665 210 q 646 135 665 156 q 607 114 627 114 q 564 136 604 114 q 336 250 419 216 q 181 331 286 270 q 77 419 77 392 q 90 463 77 437 q 181 545 104 489 q 193 555 191 552 q 412 751 256 635 q 526 844 503 819 q 557 874 547 869 q 583 879 567 879 q 616 867 602 879 q 631 838 631 856 q 370 590 631 782 q 307 533 344 571 q 210 440 277 503 z "},"=":{"ha":869,"x_min":99,"x_max":758,"o":"m 696 559 q 654 571 681 559 q 612 581 625 581 q 582 578 602 581 q 551 574 562 574 q 490 578 530 574 q 422 582 449 582 q 290 572 372 582 q 155 562 208 562 q 113 571 126 562 q 99 613 99 581 q 111 649 99 633 q 182 676 123 666 q 277 686 241 686 q 320 682 292 686 q 448 682 357 680 q 587 695 538 684 q 638 696 591 696 q 717 672 686 695 q 748 618 748 650 q 696 559 748 559 m 458 242 l 375 242 l 162 239 q 132 267 151 239 q 112 310 112 296 q 158 341 112 330 q 240 351 204 351 l 410 347 q 460 352 431 347 q 539 358 494 358 q 690 342 623 358 q 758 286 758 326 q 747 248 758 267 q 726 229 736 229 q 662 237 708 229 q 576 244 606 245 q 458 242 546 242 z "},">":{"ha":796,"x_min":113,"x_max":721,"o":"m 562 464 q 479 536 524 515 q 381 589 454 549 q 259 655 303 633 q 155 729 198 685 q 113 819 113 773 q 146 852 113 852 q 223 806 162 852 q 390 694 269 770 q 593 574 510 618 q 712 502 703 517 q 721 468 721 486 q 586 354 721 448 q 545 323 574 347 q 471 250 516 299 l 359 128 q 303 73 325 91 q 261 56 281 56 q 223 72 242 56 q 204 109 204 88 q 243 161 204 131 q 268 182 256 170 q 456 372 365 296 q 562 464 530 429 z "},"?":{"ha":715,"x_min":111,"x_max":715,"o":"m 345 449 q 307 319 321 387 q 278 275 300 286 q 215 264 256 264 q 204 292 209 264 q 200 332 200 319 q 254 484 200 379 q 261 500 260 495 q 448 595 309 545 q 530 627 490 611 q 591 684 570 643 q 611 762 611 724 q 598 840 611 785 q 544 910 585 895 q 465 926 503 926 q 347 903 384 926 q 304 853 309 880 q 261 811 299 822 q 222 807 241 807 q 184 848 184 807 q 267 966 184 903 q 403 1029 349 1029 q 496 1033 413 1029 q 603 1009 562 1036 q 680 943 644 983 q 715 787 715 903 q 679 627 715 686 q 585 539 642 569 q 345 449 527 509 m 302 54 q 261 -6 302 20 q 189 -32 220 -32 q 134 -12 157 -32 q 111 40 111 8 q 155 94 111 66 q 170 106 165 101 q 208 118 184 118 q 254 94 224 118 q 302 54 302 94 z "},"@":{"ha":1143,"x_min":68,"x_max":1067,"o":"m 700 350 q 583 284 653 314 q 476 254 513 254 q 382 293 426 254 q 339 374 339 331 q 437 600 339 475 q 608 725 536 725 q 737 686 698 725 q 746 665 746 680 q 745 642 746 655 q 757 629 744 629 q 773 635 763 629 q 790 640 783 640 q 828 604 828 640 q 806 542 828 595 q 780 475 785 492 q 775 427 775 458 q 821 396 775 396 q 935 460 882 396 q 987 587 987 525 q 936 751 987 649 q 810 895 884 854 q 692 936 735 936 q 485 830 613 936 q 259 557 356 725 q 161 317 161 389 q 279 138 161 220 q 554 57 397 57 q 769 95 635 57 q 978 194 902 134 q 1011 216 1006 216 q 1035 207 1021 216 q 1048 189 1048 197 q 1022 110 1048 138 q 929 55 996 82 q 735 1 862 27 q 507 -25 608 -25 q 205 70 343 -25 q 68 315 68 165 q 181 612 68 422 q 437 910 294 803 q 685 1017 581 1017 q 959 877 852 1017 q 1067 593 1067 736 q 1019 420 1067 503 q 897 313 972 338 q 808 288 822 288 q 700 350 747 288 m 657 635 q 510 534 575 631 q 444 396 444 437 q 458 358 444 369 q 518 347 472 347 q 611 384 549 347 q 672 447 672 420 q 669 500 672 454 q 683 564 667 531 q 699 595 699 593 q 657 635 699 603 z "},"A":{"ha":1080,"x_min":-7,"x_max":1059,"o":"m 656 970 q 663 937 663 966 q 656 893 663 908 l 665 865 q 709 733 688 785 q 763 585 736 664 q 889 272 823 402 q 1008 90 954 142 q 1051 44 1042 56 q 1059 14 1059 31 q 1039 -36 1059 -16 q 991 -57 1019 -57 q 781 216 905 -57 q 722 324 732 324 q 582 304 689 324 q 385 258 474 285 q 321 243 334 243 q 286 260 304 243 q 277 262 282 262 q 213 174 262 262 q 110 0 132 28 q 63 -28 89 -28 q 19 -6 45 -28 q -7 37 -7 15 q 18 96 -7 59 q 117 245 42 133 q 344 618 252 444 q 529 945 490 895 q 589 995 568 995 q 656 970 634 995 m 698 431 q 628 630 674 486 q 564 817 578 784 q 449 594 527 739 l 326 361 q 401 379 340 372 q 483 391 448 384 q 698 431 668 429 z "},"B":{"ha":1020,"x_min":122,"x_max":943,"o":"m 740 555 q 753 541 740 544 q 883 459 827 519 q 939 315 939 398 q 775 51 939 186 q 430 -85 611 -85 q 350 -72 379 -85 q 321 -41 321 -58 q 442 45 321 45 q 495 43 459 45 q 577 61 530 42 q 667 109 623 79 q 743 170 711 138 q 794 237 774 201 q 813 308 813 272 q 763 412 813 366 q 628 457 712 457 q 564 435 614 457 q 497 413 513 413 q 431 427 444 413 q 418 475 418 440 q 532 543 418 496 q 718 667 628 581 q 808 812 808 753 q 774 878 808 854 q 679 903 740 903 q 478 878 578 903 q 369 831 378 853 q 313 503 359 810 q 268 148 268 196 q 270 59 268 100 q 255 -11 272 18 q 199 -41 239 -41 q 142 -12 162 -41 q 122 61 122 17 q 128 96 122 73 q 195 469 163 242 q 226 732 226 696 q 218 774 226 760 q 182 787 210 787 q 161 787 172 787 q 140 800 151 786 q 130 832 130 813 q 321 949 130 892 q 711 1007 513 1007 q 878 952 813 1007 q 943 825 943 898 q 887 697 943 770 q 740 555 832 623 z "},"C":{"ha":971,"x_min":78,"x_max":950,"o":"m 799 205 q 825 172 825 205 q 750 75 825 138 q 576 -25 675 12 q 395 -62 477 -62 q 177 17 275 -62 q 78 247 78 96 q 314 782 78 522 q 770 1042 551 1042 q 901 991 852 1042 q 950 873 950 941 q 943 775 950 811 q 900 714 936 739 q 842 690 864 690 q 815 703 827 690 q 804 740 804 717 q 815 805 804 755 q 827 878 827 854 q 766 947 827 947 q 535 839 673 947 q 300 567 397 732 q 204 262 204 401 q 259 108 204 170 q 417 47 315 47 q 561 76 476 47 q 715 155 645 106 q 799 205 786 205 z "},"D":{"ha":1103,"x_min":109,"x_max":1053,"o":"m 224 819 q 193 853 224 845 q 138 900 138 867 q 160 949 138 925 q 207 973 182 973 l 302 970 q 477 979 368 970 q 638 988 585 988 q 939 883 825 988 q 1053 605 1053 777 q 890 260 1053 416 q 427 33 728 104 q 267 -25 309 4 q 174 -63 211 -63 q 129 -36 149 -63 q 109 8 109 -8 q 122 43 109 15 q 142 105 136 74 q 152 217 148 136 q 177 476 155 297 q 212 729 198 654 q 224 819 224 794 m 347 864 q 266 180 266 379 q 275 113 266 136 q 296 109 280 109 q 523 165 339 109 q 821 341 707 222 q 936 611 936 460 q 847 811 936 736 q 614 886 759 886 q 401 870 526 886 q 347 864 374 866 z "},"E":{"ha":950,"x_min":104,"x_max":922,"o":"m 877 875 q 840 876 875 874 q 768 869 805 877 q 703 858 732 860 q 661 852 684 857 q 545 846 631 847 q 382 829 416 844 q 345 764 349 813 q 330 682 341 727 q 297 505 297 549 l 307 504 q 436 513 339 502 q 581 534 533 524 q 732 558 680 558 q 817 513 817 558 q 761 445 817 457 q 524 412 704 432 q 290 369 304 388 q 259 244 275 349 q 243 110 243 139 l 243 102 q 286 64 246 68 l 298 63 q 387 69 336 61 l 517 88 q 665 112 590 98 q 783 132 758 132 q 825 116 802 132 q 848 65 848 100 q 836 31 848 40 q 658 -3 767 0 q 363 -35 564 -7 q 231 -50 262 -50 q 131 -38 151 -50 q 107 24 111 -25 l 104 47 l 104 50 q 117 94 104 60 q 156 277 134 142 q 186 490 179 412 q 197 556 189 517 q 227 812 227 718 q 213 838 227 817 q 208 844 210 842 q 199 870 203 860 q 195 892 195 880 l 195 899 q 213 926 195 914 q 248 937 231 937 l 250 937 q 315 933 279 937 l 318 933 q 469 946 334 933 q 791 991 604 959 q 814 994 810 994 l 825 995 q 898 984 878 998 q 922 930 918 970 q 905 894 922 911 q 877 875 887 876 z "},"F":{"ha":823,"x_min":119,"x_max":877,"o":"m 347 827 q 309 679 334 804 q 285 469 285 553 q 381 481 332 476 l 524 498 q 618 519 557 503 q 703 535 680 535 q 783 470 783 535 q 760 437 783 457 q 700 410 737 418 q 518 386 662 401 q 309 355 342 366 q 270 334 276 345 q 257 236 264 323 q 250 93 250 148 l 253 9 q 203 -60 253 -60 q 145 -37 172 -60 q 119 27 119 -13 q 196 690 119 184 q 214 817 214 808 q 206 857 214 830 q 195 903 195 890 q 216 942 195 921 q 254 964 236 964 l 344 954 q 498 967 385 954 q 760 990 689 990 q 850 971 823 990 q 877 934 877 952 q 855 878 877 901 q 808 854 833 854 q 783 857 796 854 q 670 869 709 869 q 482 856 597 869 q 347 827 366 843 z "},"G":{"ha":1078,"x_min":81,"x_max":1003,"o":"m 780 199 q 329 3 530 3 q 148 71 215 3 q 81 258 81 138 q 326 793 81 545 q 833 1042 570 1042 q 957 1014 910 1042 q 1003 943 1003 986 q 975 861 1003 906 q 920 816 947 816 q 891 844 903 816 q 850 905 872 888 q 781 922 827 922 q 516 809 663 922 q 284 551 369 696 q 199 269 199 406 q 345 111 199 111 q 499 144 412 111 q 687 246 587 178 q 809 366 787 314 q 842 506 830 417 q 913 554 849 554 q 981 512 981 554 q 961 444 981 493 q 911 301 928 366 q 882 152 895 237 q 869 31 869 67 q 881 -63 869 -1 q 883 -85 883 -76 q 865 -131 883 -109 q 821 -153 847 -153 q 763 -131 791 -153 q 735 -80 735 -108 q 766 115 735 -58 q 780 199 776 169 z "},"H":{"ha":1119,"x_min":102,"x_max":1058,"o":"m 993 1037 q 1038 1018 1019 1037 q 1058 971 1058 1000 q 1028 760 1058 923 q 977 335 991 561 q 962 53 962 110 q 933 -9 962 22 q 884 -39 905 -39 q 842 -21 862 -39 q 823 24 823 -3 q 844 197 823 48 q 861 378 861 322 q 852 422 861 410 q 820 435 842 435 q 687 427 786 435 q 553 418 580 418 q 412 410 526 418 q 287 394 298 401 q 262 305 275 388 q 247 167 250 222 q 225 11 243 73 q 179 -50 208 -50 q 131 -19 159 -50 q 102 43 102 12 q 118 136 102 70 q 172 458 140 226 q 227 940 203 690 q 245 973 228 956 q 281 990 262 990 q 347 895 347 990 q 323 713 347 838 q 301 551 301 601 q 315 520 301 530 q 379 511 328 511 q 679 529 490 511 q 881 580 867 547 q 911 733 896 614 q 926 981 926 852 q 947 1017 926 996 q 993 1037 968 1037 z "},"I":{"ha":440,"x_min":132,"x_max":365,"o":"m 365 899 q 319 709 361 872 q 294 581 300 633 q 283 504 290 545 q 256 267 256 330 q 268 79 256 171 q 249 1 275 25 q 197 -22 223 -22 q 146 19 161 -22 q 132 151 132 60 q 159 416 132 247 q 170 492 169 479 q 176 540 172 515 q 181 587 179 564 q 205 752 185 650 q 227 887 220 829 q 238 942 232 928 q 270 973 244 956 q 308 990 295 990 q 351 963 336 990 q 365 899 365 935 z "},"J":{"ha":827,"x_min":-7,"x_max":744,"o":"m 690 1024 q 727 1009 711 1024 q 744 976 744 994 q 705 533 744 810 q 580 124 666 257 q 347 -9 494 -9 q 114 73 235 -9 q -7 212 -7 155 q 60 272 -7 272 q 119 235 81 272 q 349 109 244 109 q 497 207 441 109 q 589 535 554 305 q 623 968 623 766 q 646 1006 623 989 q 690 1024 668 1024 z "},"K":{"ha":1034,"x_min":98,"x_max":995,"o":"m 422 435 q 585 311 459 409 q 786 160 717 207 q 885 106 855 114 q 992 92 914 98 q 995 71 995 83 q 972 4 995 28 q 911 -20 949 -20 q 817 8 871 -20 q 616 146 762 37 l 462 264 q 313 357 382 327 q 272 339 296 359 q 242 231 251 296 q 233 130 233 166 q 156 -56 224 -56 q 114 -39 130 -56 q 98 5 98 -22 q 107 60 98 24 q 163 549 127 144 q 194 798 176 673 q 222 947 212 924 q 247 981 231 970 q 277 991 262 991 q 338 915 340 991 q 280 557 292 722 q 269 453 276 505 q 270 448 269 450 q 277 449 270 446 q 320 478 283 452 q 398 541 356 505 q 466 604 441 576 q 507 646 481 623 q 632 765 591 721 q 708 869 673 808 q 779 956 758 956 q 829 930 803 956 q 854 880 854 905 q 648 634 854 814 q 590 582 603 595 q 422 435 567 560 z "},"L":{"ha":874,"x_min":98,"x_max":867,"o":"m 129 191 q 149 357 129 205 q 188 711 170 509 q 211 937 206 913 q 233 975 216 960 q 285 990 250 990 q 325 971 307 990 q 342 930 342 952 q 330 835 342 901 q 279 469 313 745 q 245 156 245 193 q 253 124 245 132 q 279 115 260 115 q 430 135 311 115 q 707 157 503 146 q 797 173 743 159 q 812 176 807 176 q 852 159 838 176 q 867 118 867 142 q 838 57 867 79 q 771 34 808 34 q 715 38 757 34 q 651 41 672 41 q 224 -28 430 41 q 162 -39 190 -39 q 115 -13 132 -39 q 98 39 98 14 q 111 104 98 54 q 129 191 125 163 z "},"M":{"ha":1314,"x_min":75,"x_max":1219,"o":"m 1082 800 q 874 533 1015 725 q 677 287 734 342 q 583 232 620 232 q 529 274 555 232 q 460 442 503 315 q 351 740 374 701 q 333 665 343 717 q 275 397 311 555 q 196 -5 205 94 q 174 -31 195 -17 q 140 -45 153 -45 q 95 -21 116 -45 q 75 26 75 3 q 114 235 75 86 l 173 457 q 240 766 227 667 q 253 922 253 865 q 346 981 253 981 q 387 947 366 981 q 416 887 409 913 q 437 829 425 861 l 528 575 q 594 399 581 419 q 614 379 606 379 q 859 677 649 387 q 1126 999 1093 999 q 1186 978 1154 999 q 1219 941 1219 956 q 1180 643 1219 934 q 1154 384 1166 535 q 1141 214 1141 233 q 1154 137 1141 180 q 1164 76 1164 99 q 1158 23 1164 58 q 1128 -18 1151 -12 q 1092 -24 1105 -24 q 1021 94 1021 -24 q 1067 625 1021 203 q 1071 667 1071 659 q 1079 713 1071 673 q 1085 770 1085 747 q 1082 800 1085 792 z "},"N":{"ha":1122,"x_min":95,"x_max":1061,"o":"m 800 173 q 881 570 841 334 q 920 899 920 806 q 928 966 920 949 q 961 997 936 984 q 1015 1010 985 1010 q 1047 983 1034 1010 q 1061 918 1061 956 q 1039 815 1061 889 q 955 416 996 647 q 913 149 913 185 q 916 58 913 77 q 893 2 918 22 q 826 -18 867 -18 q 793 -12 802 -18 q 758 24 785 -5 q 724 82 731 54 q 683 150 719 108 q 332 695 488 399 q 250 260 288 538 l 233 147 q 230 79 230 130 q 225 10 231 28 q 198 -30 219 -7 q 157 -53 176 -53 q 103 -14 111 -53 q 95 46 95 25 q 125 208 95 96 q 198 550 155 319 q 242 844 242 781 l 241 881 q 249 916 242 901 q 276 942 256 931 q 316 953 296 953 q 350 945 334 953 q 372 921 366 937 q 389 862 379 905 q 556 510 416 730 q 800 173 697 290 z "},"O":{"ha":1116,"x_min":76,"x_max":1073,"o":"m 353 -49 q 160 59 245 -49 q 76 283 76 167 q 159 595 76 420 q 377 882 243 771 q 656 993 511 993 q 842 965 768 993 q 975 886 916 938 q 1053 781 1034 835 q 1073 629 1073 726 q 1017 413 1073 536 q 844 172 962 290 q 621 3 726 55 q 353 -49 516 -49 m 200 289 q 260 130 200 195 q 398 66 319 66 q 774 254 603 66 q 946 654 946 443 q 915 782 946 735 q 813 861 883 828 q 656 894 743 894 q 352 688 505 894 q 200 289 200 481 z "},"P":{"ha":981,"x_min":138,"x_max":975,"o":"m 199 805 q 161 875 161 819 q 340 961 161 919 q 653 1002 519 1002 q 888 941 801 1002 q 975 779 975 880 q 809 511 975 629 q 364 336 644 392 q 281 312 290 321 q 267 191 272 302 q 262 37 262 80 q 242 -18 262 6 q 197 -43 223 -43 q 138 38 138 -43 q 162 283 138 82 l 210 686 q 211 744 212 696 q 199 805 210 792 m 340 844 q 331 771 336 824 q 307 563 321 677 q 293 433 300 503 q 689 558 516 464 q 862 765 862 652 q 648 903 862 903 q 340 844 507 903 z "},"Q":{"ha":1124,"x_min":71,"x_max":1042,"o":"m 846 899 q 988 714 935 819 q 1042 515 1042 608 q 966 280 1042 399 q 770 87 890 161 q 883 -47 776 79 q 962 -163 962 -141 q 930 -208 962 -184 q 884 -231 898 -231 q 840 -208 861 -231 q 735 -55 804 -139 q 663 29 666 29 q 634 23 656 29 q 408 -9 518 -9 q 170 67 270 -9 q 71 275 71 144 q 182 609 71 430 q 455 906 293 788 q 745 1024 617 1024 q 816 984 781 1024 q 846 899 851 944 m 582 117 q 532 188 578 137 q 488 243 488 235 q 517 287 488 266 q 554 307 546 307 q 572 310 562 307 q 622 281 613 319 q 661 209 631 242 q 709 176 691 176 q 853 286 772 176 q 935 498 935 396 q 836 767 935 642 q 683 892 736 892 q 470 793 587 892 q 273 550 353 694 q 194 286 194 405 q 253 143 194 195 q 401 92 313 92 q 582 117 500 92 z "},"R":{"ha":1013,"x_min":102,"x_max":999,"o":"m 298 958 q 589 991 498 991 q 818 923 732 991 q 903 753 903 855 q 813 560 903 650 q 585 418 722 469 q 568 404 568 411 q 708 284 568 392 q 966 103 848 176 q 999 50 999 83 q 976 6 999 28 q 934 -15 954 -15 q 806 52 894 -15 q 624 198 718 118 q 396 371 420 370 q 331 384 350 372 q 312 425 312 395 q 336 470 312 451 q 394 490 361 490 q 431 486 406 490 q 468 482 456 482 q 653 563 522 482 q 785 753 785 644 q 726 852 785 810 q 576 893 667 893 q 441 884 509 893 q 354 867 373 874 q 324 832 336 861 q 286 653 313 804 q 243 368 258 502 q 228 170 228 233 q 235 85 228 121 q 241 28 241 50 q 219 -14 241 7 q 173 -36 198 -36 q 102 79 102 -36 q 197 803 102 351 q 202 831 202 827 q 197 843 202 835 q 170 900 170 886 q 195 945 170 926 q 241 964 220 964 l 298 958 z "},"S":{"ha":887,"x_min":61,"x_max":844,"o":"m 758 757 q 711 867 758 847 q 595 887 665 887 q 334 830 451 887 q 217 694 217 774 q 269 595 217 637 q 495 502 321 553 q 735 401 664 453 q 807 276 807 349 q 707 116 807 202 q 467 -14 608 31 q 228 -59 326 -59 q 103 -40 146 -59 q 61 9 61 -20 q 74 59 61 29 q 99 88 86 88 q 127 83 113 88 q 271 56 199 56 q 543 131 399 56 q 686 271 686 206 q 643 325 686 299 q 421 406 599 350 q 150 542 201 476 q 100 682 100 608 q 262 909 100 823 q 601 996 424 996 q 781 956 718 996 q 844 868 844 916 q 830 801 844 845 q 758 757 816 757 z "},"T":{"ha":933,"x_min":20,"x_max":1064,"o":"m 27 825 q 20 859 20 838 q 42 900 20 889 q 174 912 64 911 q 416 922 309 913 q 747 962 524 931 q 909 973 832 973 q 982 968 947 973 q 1032 959 1017 964 q 1055 935 1046 955 q 1064 904 1064 915 q 1030 856 1064 856 q 969 860 1008 856 q 863 863 930 863 q 695 853 793 863 q 585 821 596 844 q 550 557 574 799 q 525 196 525 315 q 542 69 525 141 q 545 53 545 56 q 528 -1 545 23 q 489 -25 512 -25 q 430 9 454 -25 q 407 199 407 43 q 463 776 407 347 q 466 800 466 799 q 441 823 466 823 q 286 812 400 823 q 122 802 171 802 q 27 825 49 802 z "},"U":{"ha":1076,"x_min":121,"x_max":1022,"o":"m 483 -47 q 320 -3 416 -47 q 172 149 223 42 q 121 385 121 256 q 155 645 121 463 q 173 751 161 678 q 203 924 195 895 q 230 971 212 954 q 273 988 248 988 q 308 956 290 988 q 326 906 326 924 q 294 783 326 892 q 259 589 278 728 q 240 393 240 450 q 329 134 240 202 q 479 66 418 66 q 677 102 595 66 q 801 231 759 138 q 861 579 843 325 q 904 903 878 839 q 976 967 929 967 q 1022 892 1022 967 q 996 683 1022 828 q 970 473 979 593 q 951 306 963 378 q 911 186 939 234 q 841 96 883 138 q 752 22 798 54 q 625 -29 706 -10 q 483 -47 544 -47 z "},"V":{"ha":996,"x_min":75,"x_max":1095,"o":"m 75 878 q 101 944 81 916 q 149 972 121 972 q 226 838 205 972 q 484 164 245 707 q 540 254 510 208 q 733 578 675 465 q 1044 1018 968 1018 q 1095 960 1095 1018 q 1090 942 1095 949 q 1045 876 1085 934 q 790 476 912 684 q 631 214 694 313 q 547 56 560 105 q 508 12 539 29 q 433 -5 477 -5 q 351 170 415 -5 q 161 656 323 245 q 75 878 75 873 z "},"W":{"ha":1407,"x_min":90,"x_max":1401,"o":"m 741 536 q 656 396 718 505 q 369 -66 399 -66 q 294 -13 323 -66 q 216 273 266 41 q 132 717 166 505 q 106 814 119 777 q 90 890 90 865 q 110 938 90 917 q 154 960 130 960 q 206 914 184 960 q 255 692 228 868 q 374 113 313 309 q 585 457 544 383 q 702 694 627 530 q 756 730 722 730 q 790 701 771 730 q 857 538 809 671 q 1017 144 975 210 q 1295 962 1256 538 q 1313 988 1295 972 q 1347 1005 1331 1005 q 1401 936 1401 1005 q 1365 721 1401 864 q 1278 456 1329 577 q 1108 87 1227 335 q 1075 16 1088 47 q 1049 -5 1068 3 q 1018 -14 1029 -14 q 959 18 989 -14 q 868 204 929 50 q 780 437 807 359 q 741 536 761 491 z "},"X":{"ha":1019,"x_min":-10,"x_max":991,"o":"m 509 591 q 826 934 747 857 q 924 1011 904 1011 q 968 990 944 1011 q 991 947 991 968 q 926 873 991 931 q 708 657 842 797 q 574 498 574 518 q 593 466 574 495 q 683 353 612 437 q 787 238 753 269 q 869 180 821 207 q 927 125 901 160 q 953 80 953 91 q 938 45 953 62 q 901 28 923 28 q 772 91 841 28 q 550 352 704 155 q 492 425 519 392 q 443 374 473 405 q 161 38 187 113 q 113 -62 136 -38 q 41 -87 90 -87 q -10 -34 -10 -87 q 370 449 -10 64 q 424 511 424 503 q 378 581 424 519 q 142 926 142 892 q 159 984 142 956 q 193 1012 176 1012 q 276 932 237 1012 q 509 591 350 782 z "},"Y":{"ha":932,"x_min":18,"x_max":1023,"o":"m 425 473 q 277 654 371 529 q 184 771 212 743 q 110 838 157 800 q 32 908 47 887 q 18 952 18 929 q 39 981 18 963 q 77 999 60 999 q 186 937 119 999 q 309 805 254 874 q 517 568 477 593 q 601 658 557 612 q 873 959 825 890 q 980 1034 927 1034 q 1012 1014 1000 1034 q 1023 975 1023 995 q 972 897 1023 957 q 701 608 921 836 q 577 466 595 498 q 542 281 559 434 q 518 41 525 127 q 507 -19 514 -12 q 479 -33 500 -26 q 444 -40 457 -40 q 393 45 393 -40 q 415 233 393 98 q 435 407 435 363 q 425 473 435 446 z "},"Z":{"ha":1063,"x_min":26,"x_max":1023,"o":"m 1013 892 q 984 869 1011 886 q 932 819 963 857 q 878 757 908 789 l 795 663 q 559 409 648 494 q 498 347 531 381 l 295 141 q 312 128 294 128 q 584 149 372 128 q 653 153 625 153 q 737 156 704 153 q 795 159 770 159 q 972 79 972 159 q 923 14 972 14 q 883 18 899 14 q 703 39 796 39 q 417 24 655 39 l 374 22 q 136 -14 235 13 q 70 -29 79 -29 q 26 20 26 -29 q 54 89 26 68 q 458 456 193 191 q 811 843 722 721 l 795 844 q 574 830 738 846 q 501 824 539 827 q 439 819 465 821 q 297 809 352 809 q 183 832 217 809 q 150 884 150 855 q 169 925 150 902 q 199 948 188 948 q 229 941 208 948 q 268 932 252 932 q 382 930 330 932 q 519 935 433 928 q 682 945 603 942 q 903 968 789 947 q 991 979 961 979 q 1023 937 1023 979 q 1013 892 1023 906 z "},"[":{"ha":564,"x_min":125,"x_max":567,"o":"m 463 933 l 422 934 l 387 934 l 350 935 q 290 929 301 935 q 279 907 279 923 l 286 857 q 254 252 286 741 q 235 -94 235 -40 q 237 -127 235 -99 l 240 -182 q 243 -213 241 -207 q 258 -223 244 -219 q 291 -228 271 -228 q 382 -216 338 -228 q 428 -206 427 -206 q 484 -259 484 -206 q 457 -313 484 -299 q 343 -336 431 -328 q 251 -353 288 -342 q 177 -369 197 -369 q 140 -350 155 -369 q 125 -309 125 -331 q 131 -251 125 -290 q 136 -194 136 -212 q 134 -138 136 -176 q 131 -83 131 -100 q 165 448 131 -48 q 180 723 180 604 q 153 916 180 845 q 139 975 139 959 q 164 1031 139 1015 q 257 1048 189 1048 l 277 1048 q 304 1049 289 1048 l 368 1051 l 395 1052 l 416 1052 l 433 1053 q 567 985 567 1058 q 541 950 567 966 q 463 933 514 933 z "},"\\":{"ha":762,"x_min":18,"x_max":743,"o":"m 642 -134 l 396 365 q 204 723 277 608 q 103 879 132 838 q 18 1050 18 1012 q 44 1083 18 1069 q 90 1097 69 1097 q 130 1074 112 1097 q 172 1002 147 1051 q 203 945 195 954 q 326 746 269 857 l 342 715 q 445 518 405 602 q 557 296 492 418 q 724 -16 704 29 q 743 -90 743 -62 q 707 -134 743 -126 q 664 -142 670 -142 q 642 -134 647 -142 z "},"]":{"ha":582,"x_min":-13,"x_max":529,"o":"m 241 -197 q 279 -199 272 -193 q 292 -186 284 -198 l 292 64 q 296 205 292 86 q 305 366 300 325 l 331 571 q 363 802 352 734 l 376 878 q 390 912 378 884 q 401 947 401 939 q 385 966 401 966 q 211 944 294 966 q 147 933 172 933 q 101 947 127 933 q 74 975 74 960 q 98 1031 74 998 q 144 1064 123 1064 q 175 1061 155 1064 q 204 1059 195 1059 q 335 1075 229 1059 q 464 1090 440 1090 q 508 1069 486 1090 q 529 1026 529 1048 q 507 950 529 988 q 489 902 495 930 q 454 705 482 875 l 416 477 q 401 218 406 418 q 397 70 399 89 q 387 -153 387 -66 q 392 -210 387 -175 q 398 -268 398 -246 q 338 -325 398 -325 q 284 -319 320 -325 q 226 -313 249 -313 q 130 -321 203 -313 q 39 -329 64 -329 q 6 -319 26 -329 q -13 -296 -13 -309 q 41 -203 -13 -203 q 92 -205 61 -203 q 133 -208 123 -208 q 184 -202 147 -208 q 241 -197 222 -197 z "},"^":{"ha":799,"x_min":53,"x_max":760,"o":"m 408 772 l 399 771 q 318 676 386 766 q 229 547 250 587 q 147 410 165 435 q 106 386 128 386 q 68 406 83 386 q 53 449 53 427 q 127 559 53 466 q 164 611 148 585 q 267 757 216 691 q 281 779 272 764 q 362 898 344 875 q 411 921 380 921 q 460 873 438 921 q 555 739 487 820 l 578 709 q 628 648 604 677 q 713 539 667 606 q 760 436 760 472 q 745 400 760 422 q 715 378 730 378 q 652 444 687 378 q 555 581 642 462 q 408 772 469 700 z "},"_":{"ha":579,"x_min":-41,"x_max":621,"o":"m 579 -139 q 509 -133 563 -139 q 437 -127 454 -127 q 275 -136 399 -127 q 113 -144 151 -144 q 56 -142 101 -144 q 0 -139 12 -139 q -41 -94 -41 -139 q -30 -66 -41 -78 q 0 -54 -18 -54 l 104 -47 q 173 -50 130 -47 q 256 -53 216 -53 q 347 -47 287 -53 q 440 -41 408 -41 q 509 -47 451 -41 q 579 -54 567 -54 q 621 -104 621 -54 q 612 -132 621 -125 q 579 -139 604 -139 z "},"`":{"ha":436,"x_min":16,"x_max":404,"o":"m 190 849 q 170 864 184 852 l 127 895 q 16 1015 16 977 q 39 1045 16 1029 q 77 1062 62 1062 q 116 1036 86 1062 q 189 970 146 1010 q 306 871 232 930 q 392 796 380 813 q 404 762 404 779 q 387 720 404 738 q 349 701 370 701 q 315 727 341 701 l 190 849 z "},"a":{"ha":815,"x_min":61,"x_max":753,"o":"m 547 247 q 359 56 452 119 q 189 -8 267 -8 q 99 36 137 -8 q 61 149 61 80 q 220 533 61 328 q 537 739 380 739 q 622 674 594 739 q 650 652 631 652 q 704 610 704 652 q 697 553 704 589 q 661 271 661 353 q 723 74 661 106 q 753 34 753 58 q 724 -8 753 13 q 667 -30 694 -30 q 581 42 615 -30 q 547 247 547 114 m 506 629 q 298 461 416 629 q 179 182 179 293 q 231 104 179 104 q 437 255 305 104 q 570 532 570 406 q 506 629 570 629 z "},"b":{"ha":808,"x_min":92,"x_max":768,"o":"m 214 386 q 422 642 301 544 q 640 740 543 740 q 730 690 693 740 q 768 570 768 641 q 609 174 768 359 q 273 -11 450 -11 q 184 15 224 -11 q 139 81 144 41 q 121 128 136 113 q 92 191 92 157 q 125 454 92 252 l 195 860 q 248 1112 231 1064 q 285 1177 264 1160 q 335 1193 305 1193 q 382 1111 382 1193 q 330 892 382 1033 q 214 386 280 758 m 198 160 q 283 94 233 94 q 447 158 361 94 q 596 339 533 222 q 659 535 659 455 q 646 597 659 571 q 613 623 633 623 q 383 468 519 623 q 198 160 247 314 z "},"c":{"ha":704,"x_min":64,"x_max":635,"o":"m 275 -39 q 119 20 174 -39 q 64 183 64 78 q 205 556 64 360 q 466 753 345 753 q 561 693 521 753 q 600 568 600 634 q 583 499 600 528 q 548 470 566 470 q 492 549 509 470 q 439 635 474 635 q 273 467 369 635 q 176 184 176 300 q 307 69 176 69 q 542 163 407 69 q 612 196 589 196 q 635 170 635 196 q 513 40 635 118 q 275 -39 392 -39 z "},"d":{"ha":918,"x_min":54,"x_max":870,"o":"m 576 281 q 384 56 486 135 q 197 -23 282 -23 q 93 27 131 -23 q 54 162 54 78 q 194 514 54 334 q 494 694 333 694 q 625 634 565 694 l 720 1078 q 758 1139 730 1123 q 801 1154 785 1154 q 848 1070 848 1154 q 817 959 848 1055 q 723 592 768 810 q 679 243 679 375 q 738 108 679 108 q 817 133 776 108 q 848 145 833 145 q 870 117 870 145 q 809 37 870 82 q 685 -9 749 -9 q 573 207 573 -9 q 576 281 573 243 m 488 598 q 270 449 378 598 q 162 174 162 300 q 218 90 162 90 q 347 145 271 90 q 503 322 422 201 q 583 505 583 444 q 555 567 583 535 q 488 598 528 598 z "},"e":{"ha":722,"x_min":68,"x_max":671,"o":"m 671 230 q 548 63 671 161 q 296 -35 426 -35 q 127 30 186 -35 q 68 210 68 94 q 199 578 68 404 q 485 753 330 753 q 568 720 536 753 q 600 640 600 687 q 498 440 600 536 q 224 252 395 345 q 189 205 189 234 q 221 115 189 149 q 317 81 254 81 q 615 242 463 81 q 649 264 637 264 q 671 230 671 264 m 199 336 q 487 610 487 507 q 450 651 487 651 q 310 559 388 651 q 199 336 231 468 z "},"f":{"ha":517,"x_min":82,"x_max":626,"o":"m 225 -31 q 199 -60 220 -48 q 157 -71 178 -71 q 88 30 88 -71 q 120 302 88 78 q 140 511 140 440 q 111 543 140 524 q 82 581 82 562 q 126 644 82 610 q 168 703 160 670 q 186 793 176 735 q 294 1096 220 1003 q 481 1189 368 1189 q 584 1148 542 1189 q 626 1046 626 1107 q 603 933 626 996 q 549 871 579 871 q 527 893 527 871 l 532 959 q 458 1090 532 1090 q 327 934 379 1090 q 275 681 275 779 q 315 650 275 650 q 524 651 492 650 q 555 625 555 652 q 521 582 555 597 q 372 556 487 568 q 260 539 273 546 q 215 90 215 287 q 220 2 215 31 q 225 -31 225 -24 z "},"g":{"ha":798,"x_min":-75,"x_max":760,"o":"m 570 245 q 524 208 562 252 q 367 79 463 135 q 189 22 271 22 q 93 61 127 22 q 58 167 58 99 q 138 401 58 272 q 360 627 217 530 q 610 723 503 723 q 709 690 666 723 q 726 677 719 682 q 749 641 739 668 q 760 598 760 614 q 753 567 760 588 q 696 380 711 454 q 664 132 682 307 q 629 -111 648 -26 q 560 -275 610 -195 q 441 -394 511 -354 q 299 -433 372 -433 q 49 -346 172 -433 q -75 -205 -75 -258 q -50 -172 -75 -172 q 23 -212 -37 -172 q 310 -319 182 -319 q 479 -200 421 -319 q 558 155 537 -81 q 570 245 563 208 m 568 618 q 424 558 511 618 q 256 383 338 498 q 175 190 175 268 q 192 148 175 163 q 229 133 208 133 q 386 195 289 133 q 554 369 484 258 q 624 543 624 479 q 568 618 624 618 z "},"h":{"ha":869,"x_min":54,"x_max":839,"o":"m 201 203 q 617 669 454 669 q 688 620 661 669 q 732 400 715 570 q 808 138 749 219 q 839 77 839 97 q 819 45 839 60 q 775 30 798 30 q 682 89 722 30 q 629 298 641 149 q 605 482 618 439 q 562 526 592 526 q 275 153 491 526 q 180 8 211 42 q 125 -26 150 -26 q 75 -9 95 -26 q 54 35 54 9 q 65 108 54 54 q 197 960 149 538 q 232 1090 208 1058 q 272 1123 256 1123 q 325 1099 301 1123 q 349 1034 349 1076 q 288 691 349 909 q 224 417 258 583 q 191 212 191 251 q 199 203 191 203 l 201 203 z "},"i":{"ha":401,"x_min":101,"x_max":433,"o":"m 309 908 q 287 939 294 908 q 279 960 284 948 q 261 1036 261 1004 q 293 1092 261 1063 q 365 1120 326 1120 q 409 1104 385 1120 q 433 1075 433 1089 q 417 999 433 1053 q 364 927 400 945 q 309 908 328 908 m 220 151 q 234 35 220 99 q 237 14 237 22 q 214 -17 237 2 q 167 -37 192 -37 q 101 84 101 -37 q 153 479 101 209 q 170 595 170 573 q 186 668 170 637 q 230 698 201 698 q 284 681 264 698 q 304 644 304 665 q 295 591 304 624 q 232 334 244 412 q 220 151 220 257 z "},"j":{"ha":448,"x_min":-227,"x_max":400,"o":"m 279 1097 l 281 1097 q 338 1083 300 1097 q 388 1060 376 1069 q 400 1029 400 1051 q 361 956 400 987 q 304 924 323 924 q 247 953 271 924 q 222 1010 222 981 q 279 1097 222 1083 m 5 -431 q -152 -363 -76 -431 q -227 -247 -227 -296 q -218 -220 -227 -233 q -203 -207 -208 -207 q -182 -220 -199 -207 q -11 -314 -76 -314 q 81 -263 43 -314 q 137 -73 120 -212 q 169 358 154 66 q 187 626 179 569 q 219 706 195 683 q 281 728 243 728 q 318 713 301 728 q 336 676 336 698 q 331 643 336 664 q 267 85 281 429 q 228 -222 257 -123 q 138 -376 199 -322 q 5 -431 77 -431 z "},"k":{"ha":821,"x_min":75,"x_max":801,"o":"m 222 317 q 343 426 231 328 q 492 561 450 519 q 717 718 648 718 q 770 667 770 718 q 718 582 770 609 q 536 467 650 547 q 423 353 423 387 q 503 252 423 340 q 642 122 583 164 q 755 81 700 81 l 777 81 q 801 60 801 83 q 764 0 801 31 q 665 -31 726 -31 q 586 -4 626 -31 q 442 144 545 24 q 340 263 360 244 q 306 283 319 283 q 258 248 298 283 q 215 194 218 212 q 211 54 211 176 l 211 22 q 187 -22 211 -3 q 136 -42 163 -42 q 91 -25 107 -42 q 75 9 75 -9 q 93 124 75 33 q 140 475 119 255 q 218 1062 191 994 q 295 1130 245 1130 q 325 1111 313 1130 q 336 1062 336 1092 q 290 774 336 1008 q 222 317 243 539 z "},"l":{"ha":397,"x_min":121,"x_max":376,"o":"m 328 1148 q 376 1086 376 1148 q 317 821 376 1030 q 260 531 280 690 q 239 282 239 372 q 254 60 239 170 q 256 29 256 39 q 233 -29 256 -5 q 184 -54 210 -54 q 135 -9 149 -54 q 121 136 121 36 q 175 699 121 363 q 262 1091 230 1034 q 328 1148 294 1148 z "},"m":{"ha":1428,"x_min":112,"x_max":1397,"o":"m 602 536 q 332 163 539 535 q 251 26 262 37 q 209 6 239 15 q 157 -3 178 -3 q 112 174 112 -3 q 155 535 112 274 q 172 686 172 641 q 212 731 172 731 q 288 623 288 731 q 262 423 288 572 q 233 217 233 254 q 356 395 275 258 q 526 634 471 584 q 639 685 581 685 q 709 626 683 685 q 741 345 735 567 q 751 262 742 289 q 764 235 760 235 q 902 452 795 235 q 1013 626 959 566 q 1133 686 1067 686 q 1213 629 1187 686 q 1249 461 1238 572 q 1280 255 1259 349 q 1358 135 1301 161 q 1397 92 1397 117 q 1364 43 1397 68 q 1305 18 1332 18 q 1208 85 1251 18 q 1143 372 1165 151 q 1125 498 1134 461 q 1097 536 1116 536 q 1030 481 1069 536 q 904 261 991 427 q 801 89 836 132 q 734 45 766 45 q 682 69 705 45 q 652 125 659 92 q 640 287 646 158 q 602 536 629 501 z "},"n":{"ha":921,"x_min":68,"x_max":907,"o":"m 552 522 q 475 475 517 522 q 348 269 433 429 q 202 23 235 53 q 148 -7 170 -7 q 68 71 68 -7 q 79 163 68 103 q 116 595 116 368 q 138 652 116 621 q 180 684 160 684 q 230 662 215 684 q 245 574 245 640 q 204 292 245 506 q 191 203 191 222 q 196 192 191 192 q 290 354 206 192 q 439 586 375 519 q 579 653 503 653 q 679 597 640 653 q 734 395 717 542 q 769 186 753 227 q 817 145 784 145 q 870 160 838 145 q 878 163 876 163 q 907 129 907 163 q 867 65 907 99 q 771 32 827 32 q 682 78 713 32 q 632 322 650 123 q 552 522 613 522 z "},"o":{"ha":785,"x_min":75,"x_max":718,"o":"m 288 -34 q 135 37 195 -34 q 75 211 75 107 q 192 556 75 386 q 474 726 310 726 q 650 642 583 726 q 718 444 718 559 q 578 117 718 267 q 288 -34 439 -34 m 194 229 q 223 117 194 160 q 299 73 252 73 q 502 184 400 73 q 604 431 604 295 q 565 566 604 514 q 460 618 526 618 q 272 484 351 618 q 194 229 194 350 z "},"p":{"ha":898,"x_min":3,"x_max":833,"o":"m 221 79 q 159 -264 188 -43 l 140 -392 q 115 -446 135 -419 q 77 -473 94 -473 q 30 -451 56 -473 q 3 -417 3 -430 q 20 -314 3 -380 q 144 566 144 187 l 143 623 q 169 730 142 696 q 231 763 196 763 q 262 738 248 763 q 277 665 277 712 q 264 506 277 600 q 245 370 246 388 q 460 646 347 547 q 670 745 573 745 q 786 693 739 745 q 833 566 833 642 q 663 165 833 345 q 333 -16 494 -16 q 270 5 293 -16 q 221 79 246 25 m 642 625 q 406 446 547 625 q 264 167 264 267 q 292 119 264 142 q 363 96 320 96 q 586 240 460 96 q 712 522 712 383 q 692 598 712 571 q 642 625 672 625 z "},"q":{"ha":796,"x_min":57,"x_max":740,"o":"m 557 221 q 539 206 553 222 q 358 48 444 101 q 194 -5 272 -5 q 94 47 132 -5 q 57 181 57 100 q 227 567 57 366 q 569 769 396 769 q 650 696 633 769 q 677 671 656 674 q 740 602 740 656 q 708 435 740 563 q 640 102 686 347 q 590 -262 593 -143 q 585 -368 587 -340 q 562 -412 583 -396 q 511 -429 541 -429 q 466 -407 482 -429 q 450 -351 450 -385 q 471 -207 450 -330 q 518 26 493 -84 q 557 221 547 160 m 609 546 q 528 652 609 652 q 299 489 429 652 q 169 191 169 327 q 224 108 169 108 q 468 260 326 108 q 609 546 609 412 z "},"r":{"ha":707,"x_min":115,"x_max":762,"o":"m 227 269 q 243 303 234 281 q 328 469 290 409 q 413 584 367 529 q 498 667 460 639 q 568 707 536 696 q 628 718 599 718 q 724 683 687 718 q 762 600 762 647 q 748 562 762 578 q 708 545 735 545 q 656 570 680 545 q 605 595 631 595 q 410 424 534 595 q 258 47 285 253 q 232 -22 251 -5 q 178 -39 213 -39 q 130 10 145 -39 q 115 177 115 60 q 119 317 115 209 q 135 524 123 446 q 142 585 137 537 q 154 657 146 637 q 183 695 161 677 q 231 713 205 713 q 268 697 256 713 q 281 663 281 681 q 267 588 281 636 q 249 514 252 534 q 241 466 247 491 q 228 313 235 437 l 227 288 l 227 269 z "},"s":{"ha":589,"x_min":14,"x_max":549,"o":"m 431 155 q 323 256 431 199 q 137 369 185 326 q 88 463 88 411 q 223 687 88 598 q 444 776 359 776 q 524 757 499 776 q 549 691 549 738 q 531 655 549 670 q 503 640 513 640 q 473 650 495 640 q 445 660 452 660 q 307 610 411 660 q 203 498 203 561 q 240 430 203 460 q 372 354 277 399 q 494 276 448 317 q 540 178 540 234 q 397 15 540 74 q 123 -43 254 -43 q 14 31 14 -43 q 38 69 14 57 q 88 81 63 81 q 127 75 98 81 q 163 68 155 68 q 325 93 239 68 q 431 155 411 118 z "},"t":{"ha":651,"x_min":31,"x_max":678,"o":"m 366 684 q 498 697 436 690 q 600 704 559 704 q 665 694 651 704 q 678 661 678 685 q 602 602 678 606 q 420 585 503 595 q 331 567 338 574 q 290 405 325 559 q 256 205 256 251 q 275 105 256 130 q 334 81 295 81 q 496 168 393 81 q 558 204 536 204 q 587 173 587 204 q 493 46 587 124 q 301 -31 399 -31 q 137 162 137 -31 q 171 378 137 232 q 204 553 204 524 q 188 564 204 564 l 117 557 q 31 627 31 557 q 71 666 31 666 l 210 666 q 235 679 224 666 q 267 765 246 692 q 304 911 288 839 q 368 982 321 982 q 414 962 397 982 q 430 924 430 941 q 406 827 430 914 l 366 684 z "},"u":{"ha":847,"x_min":85,"x_max":751,"o":"m 569 295 q 391 69 482 149 q 222 -11 300 -11 q 131 41 178 -11 q 85 202 85 94 q 127 464 85 291 q 163 667 163 608 q 225 707 183 707 q 271 687 254 707 q 288 646 288 667 q 254 511 288 598 q 191 218 191 340 q 243 107 191 107 q 410 219 309 107 q 585 531 512 331 q 631 635 613 611 q 680 659 649 659 q 726 598 726 659 q 713 549 726 591 q 672 268 672 400 q 724 62 672 109 q 751 22 751 37 q 724 -13 751 3 q 674 -28 696 -28 q 597 42 627 -28 q 568 250 568 113 l 568 273 q 569 295 568 283 z "},"v":{"ha":758,"x_min":51,"x_max":807,"o":"m 220 -8 q 163 195 222 31 q 51 621 51 501 q 115 717 51 717 q 177 631 177 717 q 181 524 177 562 q 214 386 186 486 q 275 201 241 286 q 299 132 292 156 q 336 192 313 154 q 526 501 455 393 q 642 659 597 610 q 707 719 686 709 q 750 728 728 728 q 792 709 777 728 q 807 666 807 690 q 751 597 807 634 q 597 420 699 562 q 378 58 496 278 q 285 -53 317 -53 q 220 -8 256 -53 z "},"w":{"ha":1224,"x_min":95,"x_max":1219,"o":"m 627 449 q 536 291 608 448 q 414 60 476 161 q 322 -41 351 -41 q 166 209 238 -41 q 95 611 95 458 q 120 693 95 661 q 178 728 144 726 q 195 728 183 729 q 225 706 208 727 q 243 664 243 684 l 243 661 q 235 593 243 653 q 229 486 229 549 q 268 262 229 385 q 333 140 307 140 q 458 347 352 140 q 555 527 526 477 l 576 568 q 665 691 623 657 q 724 633 724 684 q 721 604 724 616 q 718 576 718 593 q 783 313 718 450 q 876 176 848 176 q 941 319 897 176 q 1051 612 1000 515 q 1125 728 1101 710 q 1179 747 1149 747 q 1207 732 1196 747 q 1219 701 1219 718 q 1212 666 1219 675 q 1050 321 1128 555 q 960 68 985 119 q 920 16 936 16 q 785 76 838 16 q 647 395 733 136 q 627 449 637 426 z "},"x":{"ha":748,"x_min":0,"x_max":741,"o":"m 323 252 q 119 -16 169 119 q 81 -83 100 -60 q 0 -7 0 -78 q 231 307 0 96 l 264 338 q 129 649 129 541 q 210 745 129 745 q 244 726 233 745 q 260 636 254 706 q 353 408 269 528 q 607 696 541 569 q 642 748 629 737 q 674 759 654 759 q 720 740 699 759 q 741 692 741 721 q 412 320 741 624 q 653 102 525 175 q 683 84 669 94 q 686 65 686 78 q 664 13 686 36 q 613 -10 643 -10 q 323 252 522 -10 z "},"y":{"ha":821,"x_min":13,"x_max":736,"o":"m 591 239 q 372 82 467 131 q 227 33 277 33 q 124 89 160 33 q 89 219 89 144 q 131 477 89 323 q 194 660 174 631 q 260 688 215 688 q 292 666 279 688 q 304 615 304 644 q 288 571 304 598 q 250 500 252 507 q 224 419 248 494 q 199 278 199 344 q 211 206 199 255 q 257 157 222 157 q 349 180 294 157 q 472 254 404 203 q 564 338 541 306 q 598 410 588 370 q 612 587 608 451 q 677 722 616 722 q 725 703 714 722 q 736 629 736 684 q 730 517 736 585 q 720 397 722 433 q 672 22 711 210 q 558 -293 633 -166 q 353 -419 484 -419 q 116 -350 220 -419 q 13 -232 13 -280 q 23 -188 13 -210 q 50 -166 34 -166 q 68 -179 58 -166 q 347 -315 157 -315 q 512 -143 446 -315 q 586 181 579 30 q 591 239 587 210 z "},"z":{"ha":698,"x_min":-61,"x_max":692,"o":"m 666 7 q 632 24 648 15 q 471 54 572 54 q 274 31 412 54 q 86 -39 136 8 q 14 -69 52 -69 q -34 -57 -7 -69 q -61 -24 -60 -45 q 27 68 -29 12 q 492 584 333 379 q 471 590 490 590 q 317 573 435 590 q 208 565 264 565 q 68 638 68 565 q 130 694 68 694 q 143 690 134 694 q 261 670 192 670 q 468 685 353 670 q 495 689 479 687 q 530 694 510 690 q 592 701 569 701 q 639 689 615 701 q 660 650 663 677 l 659 647 q 300 221 644 588 q 212 116 218 132 q 225 109 214 109 q 320 127 235 109 q 563 162 480 162 q 692 83 692 162 q 666 7 692 34 z "},"{":{"ha":587,"x_min":10,"x_max":592,"o":"m 437 -315 l 393 -312 q 262 -236 320 -312 q 205 -26 205 -161 l 205 125 q 192 234 204 204 q 162 263 180 263 q 111 245 153 263 q 60 228 70 228 q 28 248 45 228 q 10 283 10 267 q 48 339 10 309 q 113 375 87 369 q 215 433 165 388 q 264 510 264 479 q 262 532 264 521 q 256 580 259 547 q 248 632 253 612 q 229 768 229 711 q 269 922 229 851 q 381 1026 309 993 q 475 1059 454 1059 q 527 1048 503 1059 q 551 1015 551 1038 q 543 966 551 994 q 517 937 534 937 q 485 941 507 937 q 452 945 464 945 q 396 918 428 945 q 350 867 364 891 q 336 747 336 842 q 347 686 336 728 q 357 606 357 644 q 340 452 357 498 q 271 370 324 406 q 235 340 235 348 q 255 323 235 333 q 302 199 302 294 q 298 90 302 173 q 294 -26 294 7 q 412 -210 294 -210 q 519 -186 460 -210 q 536 -180 532 -180 q 592 -212 592 -180 q 578 -244 592 -222 q 555 -281 565 -267 q 504 -305 545 -296 q 437 -315 463 -315 z "},"|":{"ha":449,"x_min":161,"x_max":271,"o":"m 195 1375 q 229 1393 219 1393 q 271 1301 271 1393 l 262 149 l 262 13 l 265 -353 q 255 -622 265 -555 q 210 -688 245 -688 q 176 -672 191 -688 q 161 -637 161 -656 l 176 201 l 172 460 l 183 1189 q 178 1292 183 1219 q 195 1375 172 1356 z "},"}":{"ha":559,"x_min":1,"x_max":550,"o":"m 387 317 q 355 252 355 284 q 368 175 355 243 q 393 55 380 107 q 407 -62 407 -5 q 349 -261 407 -193 q 193 -330 290 -330 q 101 -311 128 -330 q 74 -264 74 -291 q 107 -229 74 -243 q 164 -214 140 -214 q 215 -220 186 -214 q 293 -33 293 -190 q 275 117 293 11 q 258 258 258 216 q 273 315 258 300 q 321 340 288 330 l 297 351 q 236 396 264 363 q 208 481 208 429 q 260 686 208 542 q 301 871 301 797 q 265 941 301 913 q 186 969 229 969 q 47 931 99 969 q 20 913 24 913 q 1 928 1 913 q 225 1072 1 1072 q 345 1018 286 1072 q 403 861 403 965 q 377 729 403 810 q 342 630 351 648 q 307 448 307 541 q 367 414 336 414 q 419 418 379 414 q 471 421 458 421 q 550 360 550 421 q 527 322 550 343 q 486 302 503 302 q 387 317 426 302 z "},"~":{"ha":1080,"x_min":66,"x_max":1032,"o":"m 677 361 q 623 376 649 361 q 529 454 596 391 q 443 526 480 500 q 359 551 405 551 l 329 555 q 263 520 302 555 q 199 432 224 486 q 163 371 189 411 q 125 332 138 332 q 84 346 102 332 q 66 382 66 359 q 107 513 66 477 q 140 547 117 521 q 246 624 174 585 q 349 663 319 663 q 403 653 367 663 q 467 626 439 644 q 564 551 495 607 q 632 498 602 519 l 671 469 q 713 463 682 463 q 776 471 732 463 q 827 487 820 480 q 844 505 835 493 q 894 596 853 516 q 937 649 909 625 q 990 673 965 673 q 1032 636 1032 673 q 1020 596 1032 633 q 987 534 1008 560 q 962 503 974 517 q 826 388 896 415 q 677 361 755 361 z "},"":{"ha":1080,"x_min":-7,"x_max":1059,"o":"m 656 970 q 663 937 663 966 q 656 893 663 908 l 665 865 q 709 733 688 785 q 763 585 736 664 q 889 272 823 402 q 1008 90 954 142 q 1051 44 1042 56 q 1059 14 1059 31 q 1039 -36 1059 -16 q 991 -57 1019 -57 q 781 216 905 -57 q 722 324 732 324 q 582 304 689 324 q 385 258 474 285 q 321 243 334 243 q 286 260 304 243 q 277 262 282 262 q 213 174 262 262 q 110 0 132 28 q 63 -28 89 -28 q 19 -6 45 -28 q -7 37 -7 15 q 18 96 -7 59 q 117 245 42 133 q 344 618 252 444 q 529 945 490 895 q 589 995 568 995 q 656 970 634 995 m 698 431 q 628 630 674 486 q 564 817 578 784 q 449 594 527 739 l 326 361 q 401 379 340 372 q 483 391 448 384 q 698 431 668 429 m 749 1126 q 705 1144 723 1126 q 687 1187 687 1162 q 700 1225 687 1213 q 766 1251 712 1238 l 776 1253 q 809 1244 795 1259 q 823 1201 823 1229 q 749 1126 823 1126 m 494 1107 q 449 1118 479 1107 q 420 1143 420 1128 q 467 1228 420 1228 q 536 1204 510 1228 q 562 1138 562 1181 q 494 1107 562 1107 z "},"":{"ha":1080,"x_min":-7,"x_max":1059,"o":"m 528 942 l 530 946 q 437 1088 437 986 q 493 1198 437 1145 q 642 1251 548 1251 q 701 1233 660 1251 q 759 1171 742 1215 q 777 1105 777 1127 q 744 1018 777 1061 q 662 952 711 975 l 663 945 q 656 893 665 914 l 665 865 q 709 733 688 785 q 763 585 736 664 q 889 272 823 402 q 1008 90 954 142 q 1051 44 1042 56 q 1059 14 1059 31 q 1039 -36 1059 -16 q 991 -57 1019 -57 q 781 216 905 -57 q 722 324 732 324 q 582 304 689 324 q 385 258 474 285 q 321 243 334 243 q 286 260 304 243 q 277 262 282 262 q 213 174 262 262 q 110 0 132 28 q 63 -28 89 -28 q 19 -6 45 -28 q -7 37 -7 15 q 18 96 -7 59 q 117 245 42 133 q 344 618 252 444 q 528 942 492 901 m 621 1175 l 610 1175 q 546 1143 564 1175 q 528 1083 528 1111 q 550 1029 528 1057 q 597 1001 571 1001 q 656 1023 621 1001 q 690 1095 690 1045 q 677 1148 690 1122 q 621 1175 663 1175 m 698 431 q 628 630 674 486 q 564 817 578 784 q 449 594 527 739 l 326 361 q 401 379 340 372 q 483 391 448 384 q 698 431 668 429 z "},"":{"ha":971,"x_min":78,"x_max":950,"o":"m 329 -55 q 319 -105 323 -71 q 373 -121 334 -119 q 454 -157 427 -121 q 481 -270 481 -193 q 416 -359 481 -302 q 239 -416 352 -416 q 193 -406 223 -416 q 143 -386 164 -396 q 134 -381 134 -381 q 102 -335 102 -364 q 116 -299 102 -317 q 146 -280 131 -280 q 182 -296 158 -280 q 248 -331 222 -331 q 347 -306 326 -331 q 368 -246 368 -281 q 350 -204 368 -220 q 307 -187 332 -187 q 275 -196 298 -187 q 241 -201 263 -201 q 203 -166 203 -201 l 255 -31 q 78 247 78 47 q 314 782 78 522 q 770 1042 551 1042 q 901 991 852 1042 q 950 873 950 941 q 943 775 950 811 q 900 714 936 739 q 842 690 864 690 q 815 703 827 690 q 804 740 804 717 q 815 805 804 755 q 827 878 827 854 q 766 947 827 947 q 535 839 673 947 q 300 567 397 732 q 204 262 204 401 q 259 108 204 170 q 417 47 315 47 q 561 76 476 47 q 715 155 645 106 q 799 205 786 205 q 825 172 825 205 q 750 75 825 138 q 576 -25 675 12 q 395 -62 477 -62 q 329 -55 365 -62 z "},"":{"ha":950,"x_min":104,"x_max":922,"o":"m 877 875 q 840 876 875 874 q 768 869 805 877 q 703 858 732 860 q 661 852 684 857 q 545 846 631 847 q 382 829 416 844 q 345 764 349 813 q 330 682 341 727 q 297 505 297 549 l 307 504 q 436 513 339 502 q 581 534 533 524 q 732 558 680 558 q 817 513 817 558 q 761 445 817 457 q 524 412 704 432 q 290 369 304 388 q 259 244 275 349 q 243 110 243 139 l 243 102 q 286 64 246 68 l 298 63 q 387 69 336 61 l 517 88 q 665 112 590 98 q 783 132 758 132 q 825 116 802 132 q 848 65 848 100 q 836 31 848 40 q 658 -3 767 0 q 363 -35 564 -7 q 231 -50 262 -50 q 131 -38 151 -50 q 107 24 111 -25 l 104 47 l 104 50 q 117 94 104 60 q 156 277 134 142 q 186 490 179 412 q 197 556 189 517 q 227 812 227 718 q 213 838 227 817 q 208 844 210 842 q 199 870 203 860 q 195 892 195 880 l 195 899 q 213 926 195 914 q 248 937 231 937 l 250 937 q 315 933 279 937 l 318 933 q 469 946 334 933 q 791 991 604 959 q 814 994 810 994 l 825 995 q 898 984 878 998 q 922 930 918 970 q 905 894 922 911 q 877 875 887 876 m 872 1286 q 865 1282 869 1285 q 853 1276 861 1280 q 665 1146 808 1255 q 575 1081 606 1101 l 559 1072 q 528 1088 542 1072 q 515 1123 515 1105 q 619 1236 515 1158 q 806 1361 723 1315 q 852 1392 837 1379 q 865 1399 864 1401 q 891 1374 876 1399 q 907 1335 907 1349 q 894 1310 907 1327 q 872 1286 881 1292 z "},"":{"ha":1122,"x_min":95,"x_max":1061,"o":"m 800 173 q 881 570 841 334 q 920 899 920 806 q 928 966 920 949 q 961 997 936 984 q 1015 1010 985 1010 q 1047 983 1034 1010 q 1061 918 1061 956 q 1039 815 1061 889 q 955 416 996 647 q 913 149 913 185 q 916 58 913 77 q 893 2 918 22 q 826 -18 867 -18 q 793 -12 802 -18 q 758 24 785 -5 q 724 82 731 54 q 683 150 719 108 q 332 695 488 399 q 250 260 288 538 l 233 147 q 230 79 230 130 q 225 10 231 28 q 198 -30 219 -7 q 157 -53 176 -53 q 103 -14 111 -53 q 95 46 95 25 q 125 208 95 96 q 198 550 155 319 q 242 844 242 781 l 241 881 q 249 916 242 901 q 276 942 256 931 q 316 953 296 953 q 350 945 334 953 q 372 921 366 937 q 389 862 379 905 q 556 510 416 730 q 800 173 697 290 m 677 1216 q 656 1237 665 1227 q 593 1270 625 1270 q 551 1256 570 1270 q 495 1198 532 1242 q 445 1141 461 1155 q 407 1128 428 1128 q 374 1164 374 1128 q 449 1289 374 1212 q 574 1366 524 1366 q 643 1357 620 1366 q 696 1317 666 1348 q 745 1274 723 1289 q 766 1259 755 1267 q 826 1227 808 1227 q 860 1241 844 1227 q 911 1302 876 1254 q 954 1346 942 1346 q 991 1306 991 1346 q 939 1208 991 1280 q 837 1137 888 1137 q 749 1158 783 1137 q 685 1208 715 1179 q 677 1216 678 1215 z "},"":{"ha":1116,"x_min":76,"x_max":1073,"o":"m 353 -49 q 160 59 245 -49 q 76 283 76 167 q 159 595 76 420 q 377 882 243 771 q 656 993 511 993 q 842 965 768 993 q 975 886 916 938 q 1053 781 1034 835 q 1073 629 1073 726 q 1017 413 1073 536 q 844 172 962 290 q 621 3 726 55 q 353 -49 516 -49 m 200 289 q 260 130 200 195 q 398 66 319 66 q 774 254 603 66 q 946 654 946 443 q 915 782 946 735 q 813 861 883 828 q 656 894 743 894 q 352 688 505 894 q 200 289 200 481 m 837 1150 q 793 1168 811 1150 q 775 1211 775 1186 q 788 1250 775 1238 q 854 1275 800 1262 l 864 1278 q 897 1268 883 1283 q 911 1225 911 1253 q 837 1150 911 1150 m 583 1132 q 537 1142 567 1132 q 508 1168 508 1152 q 555 1253 508 1253 q 624 1229 598 1253 q 650 1162 650 1205 q 583 1132 650 1132 z "},"":{"ha":1076,"x_min":121,"x_max":1022,"o":"m 483 -47 q 320 -3 416 -47 q 172 149 223 42 q 121 385 121 256 q 155 645 121 463 q 173 751 161 678 q 203 924 195 895 q 230 971 212 954 q 273 988 248 988 q 308 956 290 988 q 326 906 326 924 q 294 783 326 892 q 259 589 278 728 q 240 393 240 450 q 329 134 240 202 q 479 66 418 66 q 677 102 595 66 q 801 231 759 138 q 861 579 843 325 q 904 903 878 839 q 976 967 929 967 q 1022 892 1022 967 q 996 683 1022 828 q 970 473 979 593 q 951 306 963 378 q 911 186 939 234 q 841 96 883 138 q 752 22 798 54 q 625 -29 706 -10 q 483 -47 544 -47 m 780 1152 q 736 1170 754 1152 q 718 1213 718 1187 q 731 1251 718 1239 q 797 1276 743 1263 l 807 1279 q 840 1270 826 1284 q 854 1227 854 1255 q 780 1152 854 1152 m 526 1133 q 480 1143 510 1133 q 451 1169 451 1154 q 498 1254 451 1254 q 567 1230 541 1254 q 593 1164 593 1206 q 526 1133 593 1133 z "},"":{"ha":815,"x_min":61,"x_max":763,"o":"m 547 247 q 359 56 452 119 q 189 -8 267 -8 q 99 36 137 -8 q 61 149 61 80 q 220 533 61 328 q 537 739 380 739 q 622 674 594 739 q 650 652 631 652 q 704 610 704 652 q 697 553 704 589 q 661 271 661 353 q 723 74 661 106 q 753 34 753 58 q 724 -8 753 13 q 667 -30 694 -30 q 581 42 615 -30 q 547 247 547 114 m 506 629 q 298 461 416 629 q 179 182 179 293 q 231 104 179 104 q 437 255 305 104 q 570 532 570 406 q 506 629 570 629 m 728 1006 q 722 1002 726 1005 q 709 996 717 1000 q 521 866 664 975 q 431 801 462 821 l 416 791 q 385 808 398 791 q 371 843 371 825 q 475 956 371 878 q 662 1081 579 1035 q 709 1112 693 1099 q 721 1119 720 1121 q 748 1094 732 1119 q 763 1055 763 1069 q 750 1029 763 1047 q 728 1006 737 1012 z "},"":{"ha":815,"x_min":61,"x_max":753,"o":"m 547 247 q 359 56 452 119 q 189 -8 267 -8 q 99 36 137 -8 q 61 149 61 80 q 220 533 61 328 q 537 739 380 739 q 622 674 594 739 q 650 652 631 652 q 704 610 704 652 q 697 553 704 589 q 661 271 661 353 q 723 74 661 106 q 753 34 753 58 q 724 -8 753 13 q 667 -30 694 -30 q 581 42 615 -30 q 547 247 547 114 m 506 629 q 298 461 416 629 q 179 182 179 293 q 231 104 179 104 q 437 255 305 104 q 570 532 570 406 q 506 629 570 629 m 394 944 q 374 959 389 947 l 331 990 q 220 1110 220 1072 q 243 1140 220 1124 q 281 1157 266 1157 q 320 1131 290 1157 q 393 1065 351 1105 q 510 966 436 1025 q 596 891 585 908 q 608 857 608 873 q 591 814 608 833 q 553 796 574 796 q 519 822 545 796 l 394 944 z "},"":{"ha":815,"x_min":61,"x_max":810,"o":"m 547 247 q 359 56 452 119 q 189 -8 267 -8 q 99 36 137 -8 q 61 149 61 80 q 220 533 61 328 q 537 739 380 739 q 622 674 594 739 q 650 652 631 652 q 704 610 704 652 q 697 553 704 589 q 661 271 661 353 q 723 74 661 106 q 753 34 753 58 q 724 -8 753 13 q 667 -30 694 -30 q 581 42 615 -30 q 547 247 547 114 m 506 629 q 298 461 416 629 q 179 182 179 293 q 231 104 179 104 q 437 255 305 104 q 570 532 570 406 q 506 629 570 629 m 702 967 q 719 949 706 964 q 753 910 732 934 q 804 846 798 862 q 810 819 810 831 q 797 787 810 801 q 768 772 783 772 q 686 850 739 772 q 637 915 669 876 q 588 985 606 953 q 555 1033 568 1033 q 454 935 539 1033 q 359 831 392 864 q 308 799 326 799 q 270 863 270 799 q 281 901 270 892 l 354 970 q 411 1021 384 998 q 499 1109 463 1065 q 572 1160 543 1160 q 601 1138 585 1160 q 663 1035 617 1116 q 702 967 699 968 z "},"":{"ha":815,"x_min":61,"x_max":753,"o":"m 547 247 q 359 56 452 119 q 189 -8 267 -8 q 99 36 137 -8 q 61 149 61 80 q 220 533 61 328 q 537 739 380 739 q 622 674 594 739 q 650 652 631 652 q 704 610 704 652 q 697 553 704 589 q 661 271 661 353 q 723 74 661 106 q 753 34 753 58 q 724 -8 753 13 q 667 -30 694 -30 q 581 42 615 -30 q 547 247 547 114 m 506 629 q 298 461 416 629 q 179 182 179 293 q 231 104 179 104 q 437 255 305 104 q 570 532 570 406 q 506 629 570 629 m 651 840 q 607 858 625 840 q 589 901 589 876 q 602 940 589 928 q 668 965 614 952 l 678 968 q 711 958 697 973 q 725 916 725 943 q 651 840 725 840 m 397 822 q 352 832 381 822 q 322 858 322 842 q 369 943 322 943 q 438 919 412 943 q 465 852 465 895 q 397 822 465 822 z "},"":{"ha":815,"x_min":61,"x_max":844,"o":"m 547 247 q 359 56 452 119 q 189 -8 267 -8 q 99 36 137 -8 q 61 149 61 80 q 220 533 61 328 q 537 739 380 739 q 622 674 594 739 q 650 652 631 652 q 704 610 704 652 q 697 553 704 589 q 661 271 661 353 q 723 74 661 106 q 753 34 753 58 q 724 -8 753 13 q 667 -30 694 -30 q 581 42 615 -30 q 547 247 547 114 m 506 629 q 298 461 416 629 q 179 182 179 293 q 231 104 179 104 q 437 255 305 104 q 570 532 570 406 q 506 629 570 629 m 530 871 q 510 892 519 882 q 447 925 478 925 q 405 911 424 925 q 349 853 386 897 q 298 796 315 810 q 260 783 281 783 q 227 819 227 783 q 302 944 227 867 q 427 1021 378 1021 q 496 1011 473 1021 q 550 972 519 1002 q 598 929 576 944 q 619 914 608 922 q 680 882 662 882 q 713 896 698 882 q 764 957 729 909 q 808 1001 795 1001 q 844 961 844 1001 q 793 863 844 935 q 690 791 741 791 q 603 812 637 791 q 538 863 568 833 q 530 871 532 870 z "},"":{"ha":815,"x_min":61,"x_max":753,"o":"m 547 247 q 359 56 452 119 q 189 -8 267 -8 q 99 36 137 -8 q 61 149 61 80 q 220 533 61 328 q 537 739 380 739 q 622 674 594 739 q 650 652 631 652 q 704 610 704 652 q 697 553 704 589 q 661 271 661 353 q 723 74 661 106 q 753 34 753 58 q 724 -8 753 13 q 667 -30 694 -30 q 581 42 615 -30 q 547 247 547 114 m 506 629 q 298 461 416 629 q 179 182 179 293 q 231 104 179 104 q 437 255 305 104 q 570 532 570 406 q 506 629 570 629 m 702 963 q 643 849 702 903 q 517 795 583 795 q 407 838 450 795 q 363 948 363 880 q 418 1058 363 1004 q 568 1111 473 1111 q 627 1093 585 1111 q 685 1030 668 1074 q 702 968 702 985 l 702 963 m 547 1034 l 536 1034 q 472 1002 490 1034 q 454 943 454 970 q 475 888 454 916 q 523 861 496 861 q 581 883 547 861 q 616 955 616 905 q 602 1008 616 982 q 547 1034 589 1034 z "},"":{"ha":704,"x_min":33,"x_max":633,"o":"m 258 -38 q 250 -83 253 -56 q 304 -100 266 -97 q 357 -111 333 -100 q 395 -150 382 -122 q 408 -248 408 -178 q 346 -338 408 -283 q 171 -394 285 -394 q 124 -384 155 -394 q 75 -364 96 -374 q 66 -359 65 -359 q 33 -313 33 -342 q 48 -277 33 -296 q 78 -258 62 -258 q 113 -275 90 -258 q 180 -309 154 -309 q 273 -290 250 -309 q 295 -224 295 -270 q 279 -180 295 -199 q 238 -161 264 -161 q 206 -170 229 -161 q 173 -180 185 -180 q 135 -144 135 -180 q 162 -75 151 -106 q 182 -23 173 -45 q 62 183 62 22 q 203 556 62 360 q 464 753 343 753 q 558 693 519 753 q 598 568 598 634 q 581 499 598 528 q 546 470 564 470 q 490 549 507 470 q 437 635 472 635 q 271 467 367 635 q 174 184 174 300 q 305 69 174 69 q 540 163 405 69 q 610 196 587 196 q 633 170 633 196 q 511 40 633 118 q 273 -39 390 -39 l 265 -39 q 258 -38 262 -39 z "},"":{"ha":722,"x_min":68,"x_max":671,"o":"m 671 230 q 548 63 671 161 q 296 -35 426 -35 q 127 30 186 -35 q 68 210 68 94 q 199 578 68 404 q 485 753 330 753 q 568 720 536 753 q 600 640 600 687 q 498 440 600 536 q 224 252 395 345 q 189 205 189 234 q 221 115 189 149 q 317 81 254 81 q 615 242 463 81 q 649 264 637 264 q 671 230 671 264 m 199 336 q 487 610 487 507 q 450 651 487 651 q 310 559 388 651 q 199 336 231 468 m 622 1022 q 615 1018 619 1021 q 603 1012 610 1015 q 414 882 557 991 q 325 817 355 836 l 309 807 q 278 824 292 807 q 264 859 264 841 q 369 972 264 893 q 555 1097 473 1050 q 602 1127 587 1114 q 614 1135 614 1137 q 641 1109 626 1135 q 656 1071 656 1084 q 644 1045 656 1063 q 622 1022 631 1027 z "},"":{"ha":722,"x_min":68,"x_max":671,"o":"m 671 230 q 548 63 671 161 q 296 -35 426 -35 q 127 30 186 -35 q 68 210 68 94 q 199 578 68 404 q 485 753 330 753 q 568 720 536 753 q 600 640 600 687 q 498 440 600 536 q 224 252 395 345 q 189 205 189 234 q 221 115 189 149 q 317 81 254 81 q 615 242 463 81 q 649 264 637 264 q 671 230 671 264 m 199 336 q 487 610 487 507 q 450 651 487 651 q 310 559 388 651 q 199 336 231 468 m 282 964 q 262 979 277 967 l 219 1010 q 109 1130 109 1092 q 131 1160 109 1143 q 169 1177 154 1177 q 209 1151 178 1177 q 281 1085 239 1125 q 398 986 324 1044 q 485 910 473 928 q 496 876 496 893 q 479 834 496 852 q 441 816 463 816 q 408 842 433 816 l 282 964 z "},"":{"ha":722,"x_min":68,"x_max":715,"o":"m 671 230 q 548 63 671 161 q 296 -35 426 -35 q 127 30 186 -35 q 68 210 68 94 q 199 578 68 404 q 485 753 330 753 q 568 720 536 753 q 600 640 600 687 q 498 440 600 536 q 224 252 395 345 q 189 205 189 234 q 221 115 189 149 q 317 81 254 81 q 615 242 463 81 q 649 264 637 264 q 671 230 671 264 m 199 336 q 487 610 487 507 q 450 651 487 651 q 310 559 388 651 q 199 336 231 468 m 607 955 q 624 937 611 951 q 659 898 637 922 q 709 834 703 850 q 715 807 715 819 q 702 774 715 789 q 673 760 688 760 q 591 838 644 760 q 542 903 574 864 q 493 973 511 941 q 460 1021 473 1021 q 359 923 444 1021 q 264 819 297 852 q 213 787 231 787 q 175 851 175 787 q 186 889 175 880 l 259 958 q 316 1009 289 986 q 404 1097 368 1053 q 477 1148 448 1148 q 506 1126 490 1148 q 568 1023 522 1104 q 607 955 604 956 z "},"":{"ha":722,"x_min":68,"x_max":671,"o":"m 671 230 q 548 63 671 161 q 296 -35 426 -35 q 127 30 186 -35 q 68 210 68 94 q 199 578 68 404 q 485 753 330 753 q 568 720 536 753 q 600 640 600 687 q 498 440 600 536 q 224 252 395 345 q 189 205 189 234 q 221 115 189 149 q 317 81 254 81 q 615 242 463 81 q 649 264 637 264 q 671 230 671 264 m 199 336 q 487 610 487 507 q 450 651 487 651 q 310 559 388 651 q 199 336 231 468 m 572 842 q 528 860 546 842 q 510 903 510 878 q 523 942 510 930 q 589 967 535 954 l 599 970 q 632 960 618 975 q 646 918 646 945 q 572 842 646 842 m 317 824 q 272 834 302 824 q 243 860 243 844 q 290 945 243 945 q 359 921 333 945 q 385 854 385 897 q 317 824 385 824 z "},"":{"ha":401,"x_min":101,"x_max":601,"o":"m 220 151 q 234 35 220 99 q 237 14 237 22 q 214 -17 237 2 q 167 -37 192 -37 q 101 84 101 -37 q 153 479 101 209 q 170 595 170 573 q 186 668 170 637 q 230 698 201 698 q 284 681 264 698 q 304 644 304 665 q 295 591 304 624 q 232 334 244 412 q 220 151 220 257 m 566 1010 q 559 1006 564 1008 q 547 1000 555 1003 q 359 869 502 979 q 269 804 300 824 l 254 795 q 222 812 236 795 q 209 846 209 829 q 313 960 209 881 q 500 1084 417 1038 q 547 1115 531 1102 q 559 1122 558 1124 q 586 1097 570 1122 q 601 1059 601 1072 q 588 1033 601 1050 q 566 1010 575 1015 z "},"":{"ha":401,"x_min":-29,"x_max":359,"o":"m 220 151 q 234 35 220 99 q 237 14 237 22 q 214 -17 237 2 q 167 -37 192 -37 q 101 84 101 -37 q 153 479 101 209 q 170 595 170 573 q 186 668 170 637 q 230 698 201 698 q 284 681 264 698 q 304 644 304 665 q 295 591 304 624 q 232 334 244 412 q 220 151 220 257 m 144 942 q 124 957 139 945 l 81 988 q -29 1108 -29 1070 q -6 1138 -29 1122 q 31 1155 16 1155 q 71 1129 41 1155 q 144 1063 101 1103 q 261 964 186 1023 q 347 889 335 906 q 359 854 359 871 q 342 812 359 831 q 303 794 325 794 q 270 820 296 794 l 144 942 z "},"":{"ha":401,"x_min":0,"x_max":541,"o":"m 220 151 q 234 35 220 99 q 237 14 237 22 q 214 -17 237 2 q 167 -37 192 -37 q 101 84 101 -37 q 153 479 101 209 q 170 595 170 573 q 186 668 170 637 q 230 698 201 698 q 284 681 264 698 q 304 644 304 665 q 295 591 304 624 q 232 334 244 412 q 220 151 220 257 m 432 921 q 449 903 436 918 q 484 864 462 888 q 534 800 528 816 q 541 773 541 785 q 527 741 541 755 q 498 726 513 726 q 416 804 469 726 q 367 869 399 830 q 318 939 336 907 q 285 987 298 987 q 184 889 269 987 q 89 785 122 818 q 38 753 56 753 q 0 817 0 753 q 12 855 0 846 l 84 924 q 141 975 114 952 q 229 1063 193 1019 q 302 1114 273 1114 q 331 1092 315 1114 q 393 989 347 1070 q 432 921 429 922 z "},"":{"ha":401,"x_min":74,"x_max":477,"o":"m 220 151 q 234 35 220 99 q 237 14 237 22 q 214 -17 237 2 q 167 -37 192 -37 q 101 84 101 -37 q 153 479 101 209 q 170 595 170 573 q 186 668 170 637 q 230 698 201 698 q 284 681 264 698 q 304 644 304 665 q 295 591 304 624 q 232 334 244 412 q 220 151 220 257 m 403 841 q 359 859 377 841 q 341 902 341 877 q 354 941 341 928 q 420 966 366 953 l 430 968 q 463 959 449 974 q 477 916 477 944 q 403 841 477 841 m 149 823 q 103 833 133 823 q 74 859 74 843 q 121 943 74 943 q 190 920 164 943 q 216 853 216 896 q 149 823 216 823 z "},"":{"ha":921,"x_min":68,"x_max":907,"o":"m 552 522 q 475 475 517 522 q 348 269 433 429 q 202 23 235 53 q 148 -7 170 -7 q 68 71 68 -7 q 79 163 68 103 q 116 595 116 368 q 138 652 116 621 q 180 684 160 684 q 230 662 215 684 q 245 574 245 640 q 204 292 245 506 q 191 203 191 222 q 196 192 191 192 q 290 354 206 192 q 439 586 375 519 q 579 653 503 653 q 679 597 640 653 q 734 395 717 542 q 769 186 753 227 q 817 145 784 145 q 870 160 838 145 q 878 163 876 163 q 907 129 907 163 q 867 65 907 99 q 771 32 827 32 q 682 78 713 32 q 632 322 650 123 q 552 522 613 522 m 506 890 q 486 911 494 901 q 422 945 454 945 q 380 930 399 945 q 324 873 361 916 q 274 816 290 829 q 236 802 257 802 q 203 838 203 802 q 278 963 203 886 q 403 1040 353 1040 q 472 1031 449 1040 q 526 991 495 1022 q 574 949 552 964 q 595 934 584 942 q 655 902 637 902 q 689 915 673 902 q 740 977 705 928 q 783 1021 771 1021 q 820 981 820 1021 q 768 883 820 954 q 666 811 717 811 q 578 832 612 811 q 514 883 544 853 q 506 890 507 890 z "},"":{"ha":785,"x_min":75,"x_max":768,"o":"m 288 -34 q 135 37 195 -34 q 75 211 75 107 q 192 556 75 386 q 474 726 310 726 q 650 642 583 726 q 718 444 718 559 q 578 117 718 267 q 288 -34 439 -34 m 194 229 q 223 117 194 160 q 299 73 252 73 q 502 184 400 73 q 604 431 604 295 q 565 566 604 514 q 460 618 526 618 q 272 484 351 618 q 194 229 194 350 m 734 1007 q 727 1003 731 1006 q 715 997 722 1000 q 526 867 669 976 q 437 802 467 821 l 421 792 q 390 809 404 792 q 376 844 376 826 q 480 957 376 878 q 667 1082 585 1036 q 714 1112 699 1099 q 726 1120 726 1122 q 753 1095 738 1120 q 768 1056 768 1069 q 755 1030 768 1048 q 734 1007 743 1013 z "},"":{"ha":785,"x_min":75,"x_max":718,"o":"m 288 -34 q 135 37 195 -34 q 75 211 75 107 q 192 556 75 386 q 474 726 310 726 q 650 642 583 726 q 718 444 718 559 q 578 117 718 267 q 288 -34 439 -34 m 194 229 q 223 117 194 160 q 299 73 252 73 q 502 184 400 73 q 604 431 604 295 q 565 566 604 514 q 460 618 526 618 q 272 484 351 618 q 194 229 194 350 m 352 942 q 332 957 347 945 l 289 988 q 178 1108 178 1070 q 201 1138 178 1122 q 239 1155 224 1155 q 278 1129 248 1155 q 351 1063 309 1103 q 468 964 394 1023 q 554 889 543 906 q 566 854 566 871 q 549 812 566 831 q 511 794 532 794 q 477 820 503 794 l 352 942 z "},"":{"ha":785,"x_min":75,"x_max":766,"o":"m 288 -34 q 135 37 195 -34 q 75 211 75 107 q 192 556 75 386 q 474 726 310 726 q 650 642 583 726 q 718 444 718 559 q 578 117 718 267 q 288 -34 439 -34 m 194 229 q 223 117 194 160 q 299 73 252 73 q 502 184 400 73 q 604 431 604 295 q 565 566 604 514 q 460 618 526 618 q 272 484 351 618 q 194 229 194 350 m 657 959 q 674 941 661 956 q 709 902 687 926 q 759 838 753 854 q 766 811 766 823 q 752 779 766 793 q 723 764 738 764 q 642 842 694 764 q 592 907 625 868 q 543 977 561 945 q 510 1025 524 1025 q 410 927 494 1025 q 314 823 347 856 q 263 791 281 791 q 225 855 225 791 q 237 893 225 884 l 309 962 q 366 1013 339 990 q 454 1101 418 1057 q 527 1152 498 1152 q 556 1130 541 1152 q 618 1027 572 1108 q 657 959 654 960 z "},"":{"ha":785,"x_min":75,"x_max":718,"o":"m 288 -34 q 135 37 195 -34 q 75 211 75 107 q 192 556 75 386 q 474 726 310 726 q 650 642 583 726 q 718 444 718 559 q 578 117 718 267 q 288 -34 439 -34 m 194 229 q 223 117 194 160 q 299 73 252 73 q 502 184 400 73 q 604 431 604 295 q 565 566 604 514 q 460 618 526 618 q 272 484 351 618 q 194 229 194 350 m 612 840 q 569 858 587 840 q 551 901 551 876 q 563 939 551 927 q 629 964 576 951 l 640 967 q 672 958 659 972 q 686 915 686 943 q 612 840 686 840 m 358 821 q 313 831 342 821 q 283 857 283 842 q 330 942 283 942 q 400 918 374 942 q 426 852 426 895 q 358 821 426 821 z "},"":{"ha":785,"x_min":75,"x_max":821,"o":"m 288 -34 q 135 37 195 -34 q 75 211 75 107 q 192 556 75 386 q 474 726 310 726 q 650 642 583 726 q 718 444 718 559 q 578 117 718 267 q 288 -34 439 -34 m 194 229 q 223 117 194 160 q 299 73 252 73 q 502 184 400 73 q 604 431 604 295 q 565 566 604 514 q 460 618 526 618 q 272 484 351 618 q 194 229 194 350 m 507 883 q 486 904 495 894 q 423 937 454 937 q 381 923 400 937 q 325 865 362 909 q 274 808 291 822 q 237 795 258 795 q 203 831 203 795 q 279 956 203 879 q 404 1033 354 1033 q 473 1024 450 1033 q 526 984 496 1015 q 574 941 553 956 q 595 926 585 935 q 656 895 638 895 q 690 908 674 895 q 741 969 705 921 q 784 1013 772 1013 q 821 973 821 1013 q 769 875 821 947 q 667 804 718 804 q 579 825 613 804 q 515 876 545 846 q 507 883 508 882 z "},"":{"ha":847,"x_min":85,"x_max":753,"o":"m 569 295 q 391 69 482 149 q 222 -11 300 -11 q 131 41 178 -11 q 85 202 85 94 q 127 464 85 291 q 163 667 163 608 q 225 707 183 707 q 271 687 254 707 q 288 646 288 667 q 254 511 288 598 q 191 218 191 340 q 243 107 191 107 q 410 219 309 107 q 585 531 512 331 q 631 635 613 611 q 680 659 649 659 q 726 598 726 659 q 713 549 726 591 q 672 268 672 400 q 724 62 672 109 q 751 22 751 37 q 724 -13 751 3 q 674 -28 696 -28 q 597 42 627 -28 q 568 250 568 113 l 568 273 q 569 295 568 283 m 718 1008 q 711 1004 715 1006 q 699 998 707 1001 q 511 867 654 977 q 421 802 452 822 l 406 793 q 374 810 388 793 q 361 844 361 827 q 465 958 361 879 q 652 1082 569 1036 q 699 1113 683 1100 q 711 1120 710 1122 q 738 1095 722 1120 q 753 1057 753 1070 q 740 1031 753 1048 q 718 1008 727 1013 z "},"":{"ha":847,"x_min":85,"x_max":751,"o":"m 569 295 q 391 69 482 149 q 222 -11 300 -11 q 131 41 178 -11 q 85 202 85 94 q 127 464 85 291 q 163 667 163 608 q 225 707 183 707 q 271 687 254 707 q 288 646 288 667 q 254 511 288 598 q 191 218 191 340 q 243 107 191 107 q 410 219 309 107 q 585 531 512 331 q 631 635 613 611 q 680 659 649 659 q 726 598 726 659 q 713 549 726 591 q 672 268 672 400 q 724 62 672 109 q 751 22 751 37 q 724 -13 751 3 q 674 -28 696 -28 q 597 42 627 -28 q 568 250 568 113 l 568 273 q 569 295 568 283 m 319 940 q 298 955 313 943 l 256 986 q 145 1106 145 1068 q 168 1136 145 1120 q 205 1153 191 1153 q 245 1127 215 1153 q 318 1061 275 1101 q 435 962 361 1021 q 521 887 509 904 q 533 852 533 869 q 516 810 533 829 q 477 792 499 792 q 444 818 470 792 l 319 940 z "},"":{"ha":847,"x_min":85,"x_max":759,"o":"m 569 295 q 391 69 482 149 q 222 -11 300 -11 q 131 41 178 -11 q 85 202 85 94 q 127 464 85 291 q 163 667 163 608 q 225 707 183 707 q 271 687 254 707 q 288 646 288 667 q 254 511 288 598 q 191 218 191 340 q 243 107 191 107 q 410 219 309 107 q 585 531 512 331 q 631 635 613 611 q 680 659 649 659 q 726 598 726 659 q 713 549 726 591 q 672 268 672 400 q 724 62 672 109 q 751 22 751 37 q 724 -13 751 3 q 674 -28 696 -28 q 597 42 627 -28 q 568 250 568 113 l 568 273 q 569 295 568 283 m 650 978 q 667 960 654 975 q 702 921 680 945 q 752 857 746 873 q 759 830 759 842 q 745 798 759 812 q 716 783 731 783 q 635 861 688 783 q 585 926 618 887 q 536 996 554 964 q 503 1044 517 1044 q 403 946 488 1044 q 307 842 340 875 q 256 810 274 810 q 218 874 218 810 q 230 912 218 903 l 302 981 q 359 1032 332 1009 q 448 1120 411 1076 q 520 1171 491 1171 q 550 1149 534 1171 q 611 1046 566 1127 q 650 978 648 979 z "},"":{"ha":847,"x_min":85,"x_max":751,"o":"m 569 295 q 391 69 482 149 q 222 -11 300 -11 q 131 41 178 -11 q 85 202 85 94 q 127 464 85 291 q 163 667 163 608 q 225 707 183 707 q 271 687 254 707 q 288 646 288 667 q 254 511 288 598 q 191 218 191 340 q 243 107 191 107 q 410 219 309 107 q 585 531 512 331 q 631 635 613 611 q 680 659 649 659 q 726 598 726 659 q 713 549 726 591 q 672 268 672 400 q 724 62 672 109 q 751 22 751 37 q 724 -13 751 3 q 674 -28 696 -28 q 597 42 627 -28 q 568 250 568 113 l 568 273 q 569 295 568 283 m 608 841 q 565 859 583 841 q 547 902 547 877 q 559 941 547 928 q 625 966 572 953 l 635 968 q 668 959 654 974 q 682 916 682 944 q 608 841 682 841 m 354 823 q 309 833 338 823 q 279 859 279 843 q 326 943 279 943 q 396 920 370 943 q 422 853 422 896 q 354 823 422 823 z "},"":{"ha":579,"x_min":18,"x_max":558,"o":"m 490 587 l 443 589 q 370 581 389 590 q 349 557 350 572 l 338 435 q 329 301 329 329 q 321 191 329 273 q 308 100 314 109 q 290 85 302 92 q 267 79 279 79 q 224 109 250 79 q 197 157 197 139 q 203 184 197 165 q 219 264 210 204 q 229 342 228 325 q 243 436 231 372 q 256 529 256 509 q 251 553 256 548 q 231 558 245 558 q 159 549 215 558 q 79 539 105 539 q 36 555 54 539 q 18 599 18 570 q 75 638 18 620 q 256 656 131 656 q 271 663 262 656 q 281 677 281 670 q 315 870 281 774 q 385 966 349 966 q 415 955 400 966 q 431 930 431 944 q 412 875 431 913 q 390 819 393 834 q 376 755 387 796 q 363 693 363 709 q 370 683 363 688 q 382 677 376 677 q 441 683 397 677 q 513 689 485 689 q 543 673 527 689 q 558 640 558 658 q 490 587 558 587 z "},"":{"ha":704,"x_min":130,"x_max":601,"o":"m 337 547 q 189 600 248 547 q 130 734 130 652 q 197 877 130 793 q 316 961 264 961 q 362 965 333 961 q 413 970 388 970 q 481 956 430 970 q 567 866 533 943 q 601 770 601 789 q 520 612 601 676 q 337 547 440 547 m 336 867 q 266 823 298 867 q 233 736 233 779 q 272 664 233 693 q 349 635 312 635 q 429 644 389 635 q 492 694 469 653 q 515 753 515 736 q 491 842 515 802 q 445 882 468 882 q 422 878 433 882 q 399 866 410 873 q 393 860 392 861 l 336 867 z "},"":{"ha":707,"x_min":81,"x_max":637,"o":"m 326 222 q 229 235 315 227 q 123 305 165 241 q 81 411 81 370 q 100 520 81 477 q 130 579 120 564 q 191 631 139 595 q 271 679 242 667 l 308 688 q 390 714 391 707 q 407 800 397 723 q 416 908 416 877 q 472 951 416 951 q 504 934 490 951 q 517 897 517 917 q 515 871 517 885 q 511 848 512 857 q 499 793 509 833 q 489 737 489 755 q 543 712 503 729 q 637 631 637 672 q 628 593 637 604 q 593 582 619 582 q 539 609 572 582 q 489 636 507 636 q 450 515 473 636 q 427 361 427 394 q 439 342 427 342 q 526 378 473 342 q 557 393 550 393 q 597 386 578 393 q 615 372 615 379 q 598 318 615 341 q 514 278 581 296 q 432 249 449 262 q 406 186 415 235 q 396 75 396 136 q 351 -7 396 -7 q 310 14 328 -7 q 293 61 293 35 q 308 140 293 81 q 326 222 323 202 m 389 632 q 163 412 163 559 q 201 348 163 386 q 264 310 239 310 q 302 316 275 310 q 332 326 329 321 q 346 366 344 334 q 367 501 349 398 q 389 632 386 604 z "},"":{"ha":929,"x_min":36,"x_max":888,"o":"m 235 106 q 97 17 107 17 q 57 28 78 17 q 36 57 36 39 q 74 131 36 79 q 139 192 113 182 q 165 192 149 195 q 178 196 175 192 q 292 383 237 265 l 281 384 q 218 382 270 385 q 123 394 166 380 q 79 431 79 407 q 122 489 79 489 q 164 481 136 489 q 204 475 189 475 q 307 485 292 475 l 319 642 q 356 767 323 696 q 458 884 389 838 q 589 930 527 930 q 681 902 635 930 q 726 828 726 873 q 712 786 726 808 q 665 765 699 765 q 614 797 642 765 q 568 828 587 828 q 449 726 502 828 q 406 513 395 624 q 420 516 408 513 q 604 562 570 549 q 692 579 653 579 q 729 570 705 579 q 753 546 753 560 q 728 495 753 507 q 547 454 703 482 q 470 435 518 449 q 411 415 421 422 q 393 362 401 409 q 338 256 384 314 q 292 187 304 213 q 407 149 292 184 q 532 104 468 130 q 701 65 632 65 q 765 90 741 65 q 787 125 789 115 q 787 175 785 135 q 809 194 791 184 q 838 203 826 203 q 872 178 857 203 q 888 122 888 154 q 809 11 888 52 q 665 -31 730 -31 q 564 -11 627 -31 q 347 70 500 8 q 235 106 269 100 z "},"":{"ha":582,"x_min":64,"x_max":515,"o":"m 416 925 q 384 954 408 940 q 339 968 359 968 q 273 948 311 968 q 235 901 235 928 q 255 817 235 842 q 366 741 275 791 q 465 653 416 715 q 514 523 514 590 q 466 419 514 476 q 366 355 418 363 q 478 253 463 293 q 493 175 493 212 q 428 35 493 86 q 254 -17 363 -17 q 114 32 163 -17 q 64 127 64 81 q 85 195 64 195 q 136 182 123 195 q 159 143 150 170 q 185 98 169 113 q 212 74 201 84 q 254 64 222 64 q 363 94 318 64 q 408 154 408 125 q 385 224 408 199 q 311 273 361 249 q 177 350 241 304 q 92 428 113 396 q 71 522 71 460 q 169 673 71 611 l 186 686 q 254 718 224 711 q 206 761 242 731 q 157 817 170 791 q 143 884 143 842 q 172 966 143 906 l 182 986 q 253 1024 195 1010 q 356 1038 311 1038 q 463 1011 410 1038 q 515 947 515 985 q 494 893 515 920 q 449 867 473 867 q 429 895 441 867 q 416 925 417 924 m 310 382 q 334 406 311 393 q 419 519 419 463 q 404 586 419 551 q 353 635 388 620 q 310 650 319 650 q 216 616 257 650 q 175 534 175 583 q 237 422 175 449 q 277 401 252 416 q 310 382 302 386 z "},"":{"ha":595,"x_min":106,"x_max":490,"o":"m 160 353 q 153 365 156 358 l 147 379 q 106 549 106 469 q 159 658 106 612 q 279 704 213 704 q 322 693 307 704 q 361 676 335 684 q 397 661 389 668 q 437 642 406 654 q 479 593 469 629 q 490 490 490 557 q 476 407 490 433 q 431 374 462 380 q 379 340 401 369 q 332 314 358 314 q 160 353 216 314 z "},"":{"ha":929,"x_min":85,"x_max":850,"o":"m 799 -46 q 776 -62 795 -54 q 749 -71 758 -71 q 675 53 699 -71 q 652 260 652 176 q 709 732 652 456 q 726 846 726 817 q 679 871 726 871 q 524 856 637 871 q 325 798 410 842 q 210 706 239 754 q 182 624 182 658 q 222 535 182 599 q 300 471 262 471 q 330 508 323 471 q 338 646 338 546 q 390 733 338 733 q 421 690 421 733 q 416 583 421 649 q 410 484 411 517 q 432 471 418 471 l 460 475 q 507 431 507 475 q 498 401 507 409 q 468 391 488 394 q 428 376 437 386 q 412 330 418 366 q 406 197 406 294 l 406 144 q 412 -22 406 48 q 419 -86 419 -74 q 403 -120 419 -105 q 368 -135 387 -135 q 336 -92 356 -135 q 306 22 316 -50 q 296 119 296 94 q 307 252 296 144 q 309 317 309 283 q 302 361 309 352 q 270 380 296 371 q 157 463 229 397 q 85 618 85 530 q 118 750 85 672 q 278 881 152 829 q 471 943 405 932 l 509 950 q 692 971 621 971 q 795 943 740 971 q 850 879 850 915 q 831 845 850 856 q 808 825 812 834 q 802 779 804 817 q 798 741 800 762 l 791 685 q 770 529 785 620 q 749 279 749 409 q 785 -9 749 90 q 799 -46 798 -42 z "},"":{"ha":772,"x_min":-77,"x_max":715,"o":"m 313 201 q 394 86 353 86 q 492 108 432 86 q 586 190 553 130 q 618 278 618 250 q 606 329 618 304 q 570 378 594 354 q 504 430 545 403 q 446 462 463 456 q 393 471 429 468 q 340 481 353 475 q 317 512 328 488 q 305 557 305 536 q 332 605 305 584 q 393 628 359 625 q 513 680 462 637 q 584 746 564 724 q 604 823 604 769 l 604 842 q 477 958 604 958 q 409 927 451 958 q 325 782 368 897 q 261 545 283 667 q 205 158 240 422 q 166 -66 186 26 q 119 -217 146 -159 q 53 -305 91 -275 q -13 -335 15 -335 q -77 -310 -77 -335 q -73 -263 -77 -268 q -9 -217 -69 -258 q 28 -171 14 -201 q 62 -65 43 -140 q 84 68 80 9 q 109 252 90 142 q 134 436 127 353 q 185 729 147 597 q 281 924 224 862 q 387 1016 338 987 q 517 1046 435 1046 q 617 1017 581 1046 q 684 930 653 987 q 715 811 715 873 q 704 746 715 774 q 667 690 692 718 q 619 647 642 663 q 540 607 595 631 q 439 555 439 564 q 511 528 439 545 q 589 506 571 515 q 639 453 608 497 q 692 354 670 408 q 715 262 715 300 q 612 78 715 158 q 397 -3 510 -3 q 310 29 347 -3 q 273 113 273 60 q 313 201 273 192 z "},"":{"ha":1299,"x_min":57,"x_max":1235,"o":"m 379 808 q 386 850 379 838 q 424 896 393 863 q 493 958 456 929 q 544 994 531 987 q 614 1013 556 1000 q 699 1025 672 1025 q 918 987 813 1025 q 1129 811 1023 950 q 1235 614 1235 672 q 1214 467 1235 521 q 1113 342 1194 412 q 914 208 1033 271 q 662 106 795 145 q 427 66 528 66 q 359 70 418 66 q 281 86 313 73 q 199 135 248 99 q 118 207 149 171 q 72 287 86 243 q 57 371 57 331 q 136 568 57 441 q 277 732 215 694 q 379 808 355 780 m 500 868 q 689 922 630 922 q 757 880 712 922 q 802 814 802 838 q 787 779 802 803 q 725 821 739 816 q 656 825 710 825 q 484 766 603 825 q 259 596 366 707 q 152 407 152 486 q 166 296 152 328 q 216 234 180 264 q 318 184 252 204 q 457 164 385 164 q 606 184 525 164 q 669 199 632 191 q 948 321 745 212 q 1152 585 1152 430 q 1003 832 1152 714 q 720 950 855 950 q 596 926 663 950 q 500 868 530 903 m 589 610 q 605 446 589 532 q 607 422 607 433 q 593 370 607 398 q 561 342 580 342 q 530 353 545 342 q 509 377 514 365 q 504 422 504 389 q 507 490 504 443 q 509 558 509 538 q 504 607 509 593 q 487 625 504 608 q 471 656 471 641 q 478 675 471 665 q 497 691 486 685 q 538 701 508 697 l 609 709 q 688 714 650 714 q 794 663 748 714 q 840 591 840 612 q 726 519 840 558 q 804 482 758 499 q 931 431 901 447 q 962 397 962 414 q 943 374 962 386 q 913 363 924 363 q 776 412 878 363 q 639 460 675 460 q 622 474 629 460 q 614 503 614 488 q 628 533 614 522 q 696 569 642 545 q 741 602 741 589 q 663 631 741 631 q 589 610 644 631 z "},"":{"ha":1328,"x_min":94,"x_max":1304,"o":"m 817 852 q 846 856 838 856 q 964 840 856 856 q 1160 777 1072 825 q 1277 666 1249 730 q 1304 587 1304 602 q 1274 476 1304 532 q 1166 348 1243 420 q 931 205 1090 277 q 618 97 772 134 q 407 60 464 60 q 285 84 374 60 q 172 130 195 109 q 122 206 149 151 q 94 286 94 261 q 129 473 94 336 q 261 748 164 610 q 486 950 359 886 q 684 1014 613 1014 q 783 976 726 1014 q 839 907 839 937 q 828 878 839 899 q 817 852 819 860 m 700 847 q 738 854 716 854 l 771 854 q 734 912 749 903 q 688 922 720 922 q 508 848 627 922 q 290 591 389 773 q 192 292 192 409 q 261 194 192 235 q 407 154 331 154 q 837 259 608 154 q 1142 453 1065 364 q 1218 600 1218 543 q 1162 681 1218 629 q 992 763 1105 734 q 789 795 879 792 q 701 813 705 799 q 700 847 696 827 m 714 657 q 645 642 664 664 q 623 619 635 630 q 524 441 524 542 q 534 391 524 401 q 591 382 544 382 q 780 427 682 382 q 895 498 877 472 q 924 511 904 511 q 937 493 937 511 l 935 471 q 864 386 935 448 q 703 305 794 324 q 566 286 612 286 q 463 331 505 286 q 421 435 421 376 q 431 480 421 453 q 444 519 439 500 q 481 620 465 595 q 568 695 496 644 q 703 746 640 746 q 778 712 744 746 q 811 636 811 679 q 776 592 811 602 l 745 582 q 718 634 724 582 q 714 657 715 656 z "},"":{"ha":1438,"x_min":87,"x_max":1409,"o":"m 1217 839 q 1171 805 1184 820 q 1132 744 1158 790 q 1124 732 1126 735 q 1094 680 1122 730 q 997 575 1036 575 q 935 622 972 575 q 914 650 923 641 q 806 766 848 715 q 789 741 793 764 q 772 660 787 725 l 754 581 q 694 498 740 498 q 657 513 678 498 q 636 542 636 528 q 725 804 636 582 q 743 854 743 850 q 711 884 743 884 q 583 876 688 884 q 458 861 478 867 q 411 764 438 855 q 383 625 383 673 q 389 597 383 613 q 395 567 395 580 q 373 522 395 545 q 342 498 352 498 q 292 597 292 498 q 315 755 292 697 q 346 850 346 830 q 304 864 346 864 q 220 842 275 864 q 150 821 164 821 q 87 859 87 821 q 115 902 87 880 q 163 930 142 924 q 263 943 185 936 q 357 953 328 949 q 395 966 385 957 q 428 975 407 975 q 453 967 436 975 q 478 960 472 960 q 530 966 490 960 q 587 972 549 970 q 677 987 637 974 q 718 996 703 996 q 783 981 733 996 q 838 954 833 966 q 841 906 838 916 q 874 844 850 885 q 923 777 898 802 q 982 725 959 742 q 1013 708 1005 708 q 1085 800 1026 708 q 1195 955 1149 897 q 1283 1013 1241 1013 q 1309 1004 1297 1013 q 1321 983 1321 995 q 1317 942 1321 972 q 1311 844 1311 884 q 1324 734 1311 808 q 1364 646 1337 661 q 1395 615 1382 637 q 1409 581 1409 592 q 1357 539 1409 539 q 1229 819 1242 539 q 1217 839 1229 827 z "},"":{"ha":517,"x_min":66,"x_max":458,"o":"m 424 907 q 417 903 421 905 q 405 897 412 900 q 216 766 359 876 q 127 701 157 721 l 111 692 q 80 709 94 692 q 66 743 66 726 q 171 857 66 778 q 357 981 275 935 q 404 1012 389 999 q 416 1019 416 1021 q 443 994 428 1019 q 458 956 458 969 q 446 930 458 947 q 424 907 433 912 z "},"":{"ha":489,"x_min":35,"x_max":438,"o":"m 364 823 q 320 841 338 823 q 302 884 302 859 q 315 923 302 911 q 381 948 328 935 l 391 951 q 424 941 410 956 q 438 899 438 926 q 364 823 438 823 m 110 805 q 65 815 94 805 q 35 841 35 825 q 82 926 35 926 q 152 902 125 926 q 178 836 178 878 q 110 805 178 805 z "},"":{"ha":808,"x_min":83,"x_max":724,"o":"m 710 318 q 596 304 660 304 l 587 304 q 545 301 574 304 l 423 295 q 350 290 376 290 q 292 197 304 222 q 200 83 237 83 q 160 122 160 83 q 249 293 160 165 l 186 293 q 136 300 168 293 q 96 314 104 307 q 83 355 83 330 q 115 397 83 397 q 138 389 123 397 q 161 380 154 380 l 241 383 q 267 380 246 383 q 301 378 287 378 q 328 427 311 394 q 382 517 353 473 q 407 555 395 536 q 271 561 338 561 q 202 552 244 561 q 140 543 160 543 q 114 557 130 543 q 98 581 98 570 q 174 635 98 635 q 247 637 197 635 q 322 640 297 640 l 453 656 q 497 750 484 727 q 522 810 502 759 q 548 838 527 825 q 581 851 569 851 q 615 839 600 851 q 631 808 631 826 q 608 757 631 789 q 541 644 573 713 l 626 646 q 687 638 669 646 q 705 610 705 629 q 665 553 705 553 q 507 566 527 553 q 460 479 494 543 q 408 386 431 425 q 513 401 476 401 q 566 397 531 401 q 621 393 602 393 q 645 399 625 393 q 672 406 667 406 q 706 389 688 406 q 724 354 724 372 q 710 318 724 340 z "},"":{"ha":1541,"x_min":-56,"x_max":1514,"o":"m 844 979 l 848 937 l 907 933 l 909 933 q 1060 946 925 933 q 1382 991 1195 959 q 1406 994 1402 994 l 1416 995 q 1489 984 1469 998 q 1514 930 1509 970 q 1496 894 1514 911 q 1468 875 1478 876 q 1431 876 1466 874 q 1360 869 1396 877 q 1295 858 1323 860 q 1252 852 1275 857 q 1137 846 1223 847 q 974 829 1007 844 q 936 764 940 813 q 922 682 932 727 q 888 505 888 549 l 899 504 q 1027 513 930 502 q 1173 534 1124 524 q 1324 558 1272 558 q 1409 513 1409 558 q 1352 445 1409 457 q 1116 412 1295 432 q 881 369 896 388 q 850 244 867 349 q 834 110 834 139 l 834 102 q 878 64 838 68 l 890 63 q 979 69 927 61 l 1109 88 q 1256 112 1181 98 q 1374 132 1349 132 q 1416 116 1393 132 q 1440 65 1440 100 q 1428 31 1440 40 q 1249 -3 1358 0 q 955 -35 1155 -7 q 822 -50 854 -50 q 723 -38 743 -50 q 699 24 703 -25 l 696 47 l 696 50 q 708 94 696 60 q 745 265 725 142 q 743 277 744 271 l 741 289 q 549 265 605 265 q 473 283 536 265 q 397 301 411 301 q 283 187 371 301 q 146 28 193 75 l 117 -3 q 8 -58 64 -58 q -35 -37 -14 -58 q -56 5 -56 -16 q -37 42 -56 21 q -4 64 -19 64 q 132 184 35 64 q 216 277 173 237 q 307 366 273 332 l 355 416 q 475 555 411 473 q 508 597 491 576 q 650 815 585 690 q 720 977 715 941 q 779 1010 763 1010 q 844 979 795 1010 m 813 823 q 628 586 700 667 q 498 400 498 441 q 529 383 498 392 q 567 374 559 374 q 768 408 613 374 q 773 451 771 430 q 788 556 779 507 q 818 812 818 718 q 813 823 818 815 z "},"":{"ha":1116,"x_min":76,"x_max":1073,"o":"m 292 -39 q 288 -45 290 -42 q 236 -105 250 -105 q 201 -87 219 -105 q 184 -52 184 -70 q 208 9 184 -44 q 113 135 150 58 q 76 283 76 212 q 159 595 76 420 q 377 882 243 771 q 656 993 511 993 q 830 968 747 993 q 920 1053 896 1053 q 954 1029 933 1053 q 974 989 974 1004 q 937 917 974 974 q 1047 794 1022 854 q 1073 629 1073 735 q 1017 413 1073 536 q 844 172 962 290 q 621 3 726 55 q 353 -49 516 -49 q 292 -39 322 -49 m 266 123 q 322 212 294 172 q 403 330 353 254 q 456 404 418 352 q 467 418 463 412 q 594 611 510 489 q 762 867 711 778 q 768 878 764 873 q 656 894 717 894 q 352 688 505 894 q 200 289 200 481 q 266 123 200 190 m 356 71 q 398 66 375 66 q 774 254 603 66 q 946 654 946 443 q 932 750 946 712 q 873 825 918 788 l 791 710 q 499 291 684 567 q 436 199 477 258 q 360 79 369 100 l 356 71 z "},"":{"ha":990,"x_min":104,"x_max":888,"o":"m 467 551 q 592 678 543 648 q 693 708 640 708 q 827 656 765 708 q 888 490 888 604 q 825 313 888 362 q 693 263 761 263 q 601 288 647 263 q 467 420 554 312 q 271 304 375 304 q 153 356 202 304 q 104 486 104 408 q 154 615 104 564 q 271 667 203 667 q 467 551 375 667 m 514 486 q 597 382 553 425 q 692 338 642 338 q 778 376 743 338 q 813 484 813 414 q 777 593 813 555 q 689 631 741 631 q 606 596 644 631 q 514 486 568 561 m 420 486 q 271 592 339 592 q 205 563 231 592 q 180 488 180 534 q 207 410 180 439 q 273 382 234 382 q 420 486 341 382 z "},"":{"ha":793,"x_min":50,"x_max":729,"o":"m 441 469 q 432 407 432 431 q 435 331 432 399 q 438 235 439 262 q 418 193 437 209 q 379 176 399 176 q 355 188 368 176 q 342 211 342 199 q 350 296 342 231 q 357 408 357 361 q 354 469 357 449 q 341 471 347 471 l 328 471 q 231 466 284 471 q 150 461 177 461 l 113 461 q 65 469 79 461 q 50 539 52 477 q 113 557 64 557 l 142 557 l 170 557 l 199 558 l 354 562 q 368 650 368 589 q 365 707 368 658 l 368 799 q 375 832 368 822 q 407 842 382 842 q 453 830 442 842 q 464 782 464 819 q 450 602 464 749 l 446 554 q 607 547 528 547 q 641 553 616 547 q 682 559 667 559 q 715 546 701 559 q 729 514 729 533 q 719 482 729 500 q 697 464 709 464 l 608 471 l 557 471 q 518 470 536 471 l 481 470 q 441 469 463 470 m 231 0 l 184 0 q 86 3 94 0 q 70 22 78 7 q 62 41 62 38 q 75 75 62 58 q 104 92 88 92 q 156 98 121 92 q 214 106 196 106 q 370 98 234 106 l 454 93 q 494 90 481 90 l 610 93 l 668 90 q 718 37 718 90 q 602 -9 718 -9 q 513 -3 579 -9 q 410 3 448 3 l 231 0 z "},"":{"ha":793,"x_min":66,"x_max":721,"o":"m 233 475 l 328 433 q 403 401 380 410 l 524 349 q 673 273 659 290 q 686 233 686 255 q 667 195 686 216 q 628 174 648 174 q 585 197 621 174 q 370 307 449 277 q 191 383 282 341 q 100 454 100 425 q 160 542 100 503 q 345 675 277 616 q 454 753 382 708 q 564 825 526 798 q 627 852 603 852 q 663 794 663 852 q 457 625 663 749 q 395 586 401 591 q 340 552 376 574 q 233 475 266 506 m 677 -9 q 635 -5 659 -9 q 591 0 612 0 q 480 -4 534 0 q 368 -8 425 -8 q 289 -4 342 -8 q 210 0 236 0 q 127 -5 185 0 q 66 43 66 -12 q 76 63 66 50 q 93 81 86 77 q 127 86 99 85 l 244 93 q 378 90 261 93 q 505 94 433 88 q 595 100 566 100 q 686 86 650 100 q 721 32 721 73 q 712 -2 721 6 q 677 -9 703 -9 z "},"":{"ha":796,"x_min":69,"x_max":724,"o":"m 543 504 q 347 625 505 557 q 283 653 302 644 q 241 669 273 659 q 162 720 206 681 q 118 810 118 759 q 151 843 118 843 q 204 808 165 843 q 271 775 223 796 q 339 742 309 760 q 519 647 397 705 q 626 590 568 626 q 693 541 684 555 q 701 509 701 527 q 566 408 701 486 q 529 383 538 391 q 422 307 488 351 q 298 220 331 247 q 224 178 248 178 q 187 192 205 178 q 170 227 170 207 q 222 293 170 254 q 340 364 275 332 q 411 407 354 371 l 441 425 q 543 504 515 471 m 595 0 l 562 0 l 371 -8 q 292 -4 345 -8 q 212 0 239 0 q 130 -5 188 0 q 69 43 69 -12 q 81 66 69 52 q 99 83 92 81 q 151 89 106 85 q 248 93 195 93 q 381 90 266 93 q 508 94 436 88 q 597 100 569 100 q 688 86 653 100 q 724 32 724 73 q 714 -2 724 6 q 681 -9 705 -9 q 638 -5 664 -9 q 595 0 614 0 z "},"":{"ha":899,"x_min":47,"x_max":869,"o":"m 497 529 q 476 482 476 492 q 599 501 513 482 q 708 532 684 519 q 729 541 726 541 q 761 513 744 541 q 778 469 778 486 q 621 418 778 444 q 529 400 547 406 q 482 392 500 392 q 475 328 475 375 l 475 311 q 484 261 475 285 q 532 271 507 263 q 586 279 559 279 q 639 290 595 279 q 703 300 683 300 q 741 289 724 300 q 758 261 758 278 q 737 216 758 229 q 626 195 711 208 q 510 182 541 182 q 479 154 479 182 l 479 131 q 504 47 479 78 q 428 0 485 0 q 378 105 383 0 q 366 157 376 157 q 306 149 358 157 q 240 136 254 141 q 151 121 192 121 q 115 139 131 121 q 100 179 100 158 q 119 211 100 200 q 160 222 139 222 q 285 232 212 222 q 367 255 358 242 q 375 325 375 269 q 370 371 375 361 q 349 380 364 380 q 252 373 325 380 q 165 366 178 366 q 113 378 130 366 q 96 427 96 391 q 151 472 96 472 q 203 465 163 472 q 256 458 244 458 q 364 469 336 458 q 298 574 353 510 q 228 650 243 638 q 159 730 203 671 q 92 810 117 787 q 47 903 47 851 q 110 949 47 949 q 164 889 124 949 q 424 581 245 758 q 486 642 433 582 q 555 714 538 702 q 644 797 586 734 q 728 883 706 863 q 783 917 751 903 q 832 930 816 930 q 857 913 844 930 q 869 885 869 897 q 850 850 869 865 q 641 685 756 783 q 497 529 526 587 z "},"":{"ha":1029,"x_min":111,"x_max":975,"o":"m 928 45 q 825 20 901 20 q 745 92 779 20 q 697 254 711 164 q 554 104 642 176 q 415 32 466 32 q 369 39 396 32 q 319 57 341 45 q 277 143 298 68 q 258 20 277 96 q 218 -185 235 -71 q 168 -268 206 -268 q 125 -238 139 -268 q 111 -175 111 -208 q 115 -136 111 -160 q 122 -94 120 -116 q 153 75 129 -28 q 202 346 171 154 q 220 431 209 388 q 235 511 230 477 q 274 665 254 630 q 335 700 295 700 q 382 621 382 700 q 355 516 382 587 q 322 386 338 467 q 307 249 307 305 q 332 188 307 227 q 375 149 357 149 q 564 227 473 149 q 678 366 654 306 q 720 526 701 427 q 732 582 726 562 q 778 669 747 674 q 830 659 795 669 q 865 633 865 648 q 851 567 865 611 q 844 540 848 557 l 832 496 q 803 351 803 387 q 816 208 803 288 q 863 127 829 127 q 897 134 876 127 q 935 149 907 138 q 946 154 946 153 q 967 142 959 154 q 975 115 975 130 q 928 45 975 85 z "},"":{"ha":686,"x_min":38,"x_max":692,"o":"m 582 627 q 540 867 578 810 q 443 924 502 924 q 370 899 401 924 q 309 811 340 873 q 279 758 288 768 q 253 749 270 749 q 213 766 231 749 q 196 802 196 783 q 228 879 196 825 q 332 979 260 932 q 451 1025 404 1025 q 630 920 568 1025 q 692 628 692 814 q 585 175 692 380 q 247 -30 479 -30 q 105 35 172 -30 q 38 218 38 100 q 170 507 38 393 q 582 627 301 621 m 579 540 q 261 441 354 532 q 169 217 169 351 q 203 124 169 161 q 284 87 238 87 q 362 101 326 87 q 446 166 397 114 q 529 310 494 219 q 579 540 565 401 z "},"":{"ha":1016,"x_min":41,"x_max":998,"o":"m 321 899 q 360 844 324 886 q 423 781 397 802 q 584 641 475 741 q 693 513 693 541 q 652 467 693 490 q 585 410 638 460 q 439 282 495 327 q 345 207 394 251 q 307 178 329 194 q 205 85 216 109 q 240 79 217 79 q 294 85 269 79 q 562 115 426 115 q 684 105 623 115 q 781 97 732 97 q 885 88 861 97 q 908 50 908 79 q 892 8 908 28 q 854 -11 876 -11 q 726 -1 847 -11 q 562 8 608 8 q 490 2 526 8 q 416 -4 454 -4 q 391 -8 407 -4 q 217 -32 307 -32 l 105 -32 q 41 22 41 -32 q 83 121 41 65 q 256 273 126 177 q 468 456 342 338 q 507 489 485 472 q 532 529 536 515 q 399 664 532 546 q 198 831 267 782 q 186 867 186 841 q 211 907 186 889 q 226 924 218 912 q 236 988 220 965 q 307 1011 252 1011 q 349 1006 314 1011 q 458 992 433 994 q 629 990 484 990 q 844 991 774 989 l 860 991 q 963 976 928 991 q 998 937 998 960 q 987 911 998 926 q 964 890 976 895 q 872 882 952 886 q 707 879 792 879 l 635 879 q 431 888 539 879 q 321 899 401 893 z "},"":{"ha":1472,"x_min":41,"x_max":1540,"o":"m 1149 165 q 1149 85 1149 131 q 1137 1 1148 39 q 1108 -52 1125 -37 q 1069 -66 1091 -66 q 1010 47 1010 -66 q 1015 127 1010 81 l 1041 381 q 1065 608 1065 595 l 1088 922 q 1055 935 1074 935 q 864 918 1006 935 q 642 889 722 902 q 555 871 562 876 q 545 854 549 865 q 533 751 541 843 q 524 661 528 699 q 495 370 500 477 q 490 301 492 318 q 461 77 461 140 l 468 22 q 444 -35 468 -13 q 392 -57 419 -57 q 339 -12 357 -57 q 321 74 321 33 q 342 250 321 79 l 397 693 q 411 811 411 804 q 411 848 414 829 l 207 844 q 157 831 192 844 q 117 818 121 818 q 41 873 41 818 q 70 935 41 914 q 184 956 98 956 q 338 965 287 956 q 419 972 353 968 q 511 981 487 977 q 856 1021 664 1008 q 907 1027 876 1022 q 1215 1055 1065 1055 q 1397 1044 1310 1055 q 1502 1026 1485 1033 q 1530 999 1519 1020 q 1540 961 1540 979 q 1432 913 1540 913 q 1347 928 1405 913 q 1254 943 1288 943 q 1219 929 1228 943 q 1204 802 1210 914 q 1198 667 1198 689 q 1185 556 1197 616 q 1182 532 1183 544 l 1171 368 q 1149 165 1163 267 z "},"":{"ha":1075,"x_min":14,"x_max":1072,"o":"m 810 594 q 782 578 791 593 q 742 428 772 564 q 711 220 711 293 q 735 142 711 164 q 808 121 759 121 q 1025 190 899 121 q 1053 200 1044 200 q 1066 194 1059 200 q 1072 180 1072 188 q 975 85 1072 140 q 781 30 878 30 q 653 75 701 30 q 606 200 606 119 q 670 548 606 319 q 659 568 674 568 q 533 543 640 568 q 405 505 427 517 q 369 393 382 492 q 355 311 364 356 q 348 228 349 262 q 342 167 347 193 q 339 119 340 152 q 321 12 337 40 q 261 -17 305 -17 q 216 52 216 -17 q 241 249 216 118 q 251 307 247 281 q 258 342 253 321 q 277 468 277 437 q 264 481 277 481 q 180 475 241 481 q 87 468 119 468 q 14 526 14 468 q 30 563 14 548 q 62 578 46 578 q 496 626 315 586 q 918 704 856 704 q 992 658 992 704 q 975 615 992 633 q 945 597 957 597 l 923 597 q 810 594 823 597 z "},"":{"ha":380,"x_min":-248,"x_max":626,"o":"m 233 342 q 224 279 229 304 q 212 85 216 195 q 173 -222 202 -123 q 83 -376 144 -322 q -50 -431 22 -431 q -188 -372 -129 -431 q -248 -262 -248 -313 q -238 -235 -248 -248 q -224 -222 -229 -222 q -203 -235 -219 -222 q -118 -302 -141 -290 q -66 -314 -94 -314 q 58 -188 24 -314 q 111 282 92 -61 q 140 518 117 386 q 161 667 142 568 q 184 793 176 741 q 481 1189 248 1189 q 584 1148 542 1189 q 626 1046 626 1107 q 603 933 626 996 q 549 871 579 871 q 527 893 527 871 l 532 959 q 458 1090 532 1090 q 338 964 387 1090 q 254 530 289 838 l 233 342 z "},"":{"ha":660,"x_min":83,"x_max":574,"o":"m 418 651 q 178 487 291 487 q 111 520 138 487 q 83 603 83 553 q 195 873 83 729 q 418 1017 308 1017 q 483 968 460 1017 q 496 956 487 956 q 541 921 541 956 q 530 848 541 906 q 510 686 510 741 q 550 557 510 577 q 574 523 574 543 q 551 489 574 506 q 509 472 528 472 q 444 522 468 472 q 418 651 420 571 m 397 927 q 259 814 340 927 q 178 625 178 701 q 207 578 178 578 q 344 680 254 578 q 434 867 434 781 q 397 927 434 927 z "},"":{"ha":607,"x_min":81,"x_max":538,"o":"m 208 484 q 81 632 81 484 q 136 811 81 717 q 161 857 153 838 q 252 974 200 938 q 383 1010 304 1010 q 417 1002 406 1010 q 443 964 428 995 q 472 935 451 950 q 538 770 538 889 q 517 666 538 735 q 391 540 496 597 q 208 484 286 484 m 368 924 q 230 815 290 924 q 170 618 170 706 q 195 585 170 604 q 239 566 221 566 q 277 579 249 566 q 353 618 306 592 q 413 656 399 644 q 435 702 427 669 q 444 764 444 735 q 410 852 444 829 q 393 867 395 863 q 389 884 391 871 q 368 924 383 927 z "},"":{"ha":1378,"x_min":-65,"x_max":1381,"o":"m 387 122 q 312 209 350 153 q 264 298 275 264 q 242 433 254 332 q 231 600 231 533 q 258 730 231 636 q 374 903 285 823 q 556 1008 464 983 q 782 1034 648 1034 q 1107 900 1019 1034 q 1196 618 1196 767 q 1077 333 1196 467 q 964 179 973 216 q 991 176 978 176 q 1084 180 1025 176 q 1255 192 1227 192 q 1356 182 1331 192 q 1381 142 1381 172 q 1231 60 1381 60 q 1158 63 1222 60 q 1028 64 1113 65 q 923 57 943 62 q 871 26 903 51 q 814 -4 836 -4 q 773 18 788 -4 q 758 60 758 41 q 809 153 758 108 q 867 220 851 191 q 967 373 902 283 q 1046 505 1026 455 q 1067 632 1067 555 q 1057 697 1067 663 q 1039 766 1046 731 q 965 883 1023 840 q 760 926 907 926 q 551 882 653 926 q 400 746 448 838 q 353 590 353 655 q 386 355 353 476 q 496 188 420 235 q 592 115 569 141 q 615 58 615 90 q 564 5 615 5 l 510 14 q 444 7 500 14 l 297 -7 q 77 -33 142 -19 q 29 -41 40 -41 q -65 24 -65 -41 q -35 71 -65 50 q 47 93 -5 92 q 387 122 189 98 z "},"":{"ha":1135,"x_min":47,"x_max":1084,"o":"m 572 521 q 898 753 719 753 q 981 720 949 753 q 1013 640 1013 687 q 911 440 1013 536 q 637 252 808 345 q 602 205 602 234 q 634 115 602 149 q 730 81 667 81 q 1028 242 876 81 q 1062 264 1050 264 q 1084 230 1084 264 q 961 63 1084 161 q 709 -35 839 -35 q 540 30 600 -35 q 481 210 481 94 l 481 224 q 484 328 481 296 q 485 343 486 342 q 479 328 484 344 l 465 291 q 430 209 460 275 q 351 79 401 143 q 252 -18 302 14 q 156 -50 203 -50 q 86 -16 125 -50 q 47 115 47 17 q 117 414 47 262 q 279 640 187 566 q 464 714 372 714 q 546 685 509 714 q 584 618 584 656 q 580 583 584 610 q 572 521 575 555 m 612 336 q 900 610 900 507 q 863 651 900 651 q 723 559 801 651 q 612 336 644 468 m 481 585 q 450 608 481 608 q 320 546 370 608 q 241 431 269 485 l 220 393 q 189 310 209 372 q 164 221 168 248 q 160 138 160 195 q 189 71 160 71 q 270 133 212 71 q 401 343 328 195 q 475 521 475 492 q 479 564 475 534 q 481 585 481 577 z "},"":{"ha":785,"x_min":75,"x_max":718,"o":"m 659 632 q 718 444 718 551 q 578 117 718 267 q 288 -34 439 -34 q 222 -23 254 -34 l 193 -67 q 146 -119 156 -119 q 112 -101 130 -119 q 94 -66 94 -83 q 138 33 94 -50 q 75 211 75 106 q 192 556 75 386 q 474 726 310 726 q 568 706 524 726 q 648 779 625 779 q 682 755 662 779 q 703 715 703 730 q 659 632 703 699 m 207 149 q 224 174 215 161 q 437 509 347 352 l 452 532 q 492 597 478 572 l 501 612 q 460 618 483 618 q 272 484 351 618 q 194 229 194 350 q 207 149 194 182 m 586 528 l 519 437 q 487 392 498 411 q 448 338 480 382 q 410 277 420 298 q 276 76 376 210 q 299 73 287 73 q 502 184 400 73 q 604 431 604 295 q 586 528 604 484 z "},"":{"ha":669,"x_min":43,"x_max":656,"o":"m 461 713 q 423 735 446 713 q 400 779 400 757 q 469 886 400 886 q 516 849 508 886 q 525 772 525 812 q 499 738 525 763 q 461 713 474 713 m 364 232 l 368 248 q 353 368 353 298 q 444 526 353 526 q 486 466 486 526 q 475 432 486 452 q 454 381 457 401 q 450 319 450 361 q 474 252 450 316 q 498 168 498 191 q 476 128 498 147 q 428 109 454 109 q 376 135 409 109 q 214 48 287 125 q 140 -109 140 -28 q 265 -222 140 -222 q 417 -188 328 -222 q 561 -104 507 -154 q 621 -81 586 -81 q 644 -94 633 -81 q 656 -119 656 -108 q 600 -195 656 -146 q 467 -291 544 -245 q 243 -336 391 -336 q 230 -334 241 -336 q 212 -332 219 -332 q 97 -277 150 -332 q 43 -162 43 -223 q 103 79 43 -19 q 261 207 163 178 l 274 211 q 364 232 334 232 z "},"":{"ha":397,"x_min":82,"x_max":325,"o":"m 179 796 q 200 825 179 800 q 230 855 221 850 q 269 860 239 860 q 311 852 298 860 q 325 818 325 845 q 321 804 325 810 q 318 796 318 798 l 321 768 q 288 716 321 739 q 224 693 256 693 q 195 710 205 693 q 179 796 184 727 m 282 435 q 264 289 282 377 q 253 216 254 231 q 245 172 250 194 q 225 47 225 77 q 222 -14 225 28 q 220 -75 220 -56 q 204 -183 220 -106 q 174 -275 189 -261 q 143 -289 158 -289 q 106 -258 130 -289 q 82 -208 82 -227 q 100 -90 82 -174 q 107 -52 107 -60 q 136 241 107 41 q 164 378 146 320 q 213 499 197 485 q 256 513 229 513 q 273 504 271 513 q 282 435 282 484 z "},"":{"ha":1000,"x_min":66,"x_max":876,"o":"m 873 509 q 873 438 876 503 q 869 372 869 374 q 867 254 869 331 q 862 168 864 176 q 843 147 859 159 q 812 134 827 134 q 785 149 800 134 q 768 174 770 163 l 768 183 q 775 301 766 200 q 783 401 783 380 q 777 430 783 419 q 766 441 771 441 q 602 431 677 441 q 471 423 536 423 l 256 420 l 164 425 l 92 425 q 66 475 66 425 q 81 500 66 484 q 110 517 95 517 l 228 523 l 237 524 q 315 517 263 526 q 379 512 355 512 q 456 519 406 512 q 532 526 506 526 q 644 534 572 526 q 760 543 711 543 q 873 509 857 543 z "},"":{"ha":1040,"x_min":68,"x_max":977,"o":"m 96 532 q 68 568 68 537 q 88 614 68 593 q 311 692 267 692 q 347 633 343 692 q 380 524 348 606 q 407 434 393 492 q 435 317 416 380 l 446 271 q 486 138 469 161 q 538 279 509 154 q 610 476 557 362 q 676 629 629 516 q 741 767 715 724 q 811 899 754 788 l 877 1023 q 925 1055 895 1055 q 960 1036 944 1055 q 977 995 977 1017 q 943 922 977 983 l 848 751 q 736 503 805 676 q 707 430 713 442 q 682 363 692 397 q 656 293 672 328 q 650 269 652 285 q 597 100 636 184 l 550 -1 q 495 -42 531 -42 q 410 31 452 -42 q 337 264 368 103 q 287 459 320 356 q 264 534 274 498 q 238 574 254 574 q 164 550 228 574 q 113 533 130 537 q 96 532 96 528 z "},"":{"ha":708,"x_min":-25,"x_max":702,"o":"m 700 547 q 673 508 700 526 q 624 490 646 490 l 592 490 q 517 485 548 490 q 489 482 507 484 q 431 468 448 481 q 393 356 411 425 q 317 144 347 186 q 207 28 287 103 q 69 -47 126 -47 q 0 -27 26 -47 q -25 28 -25 -7 q 25 83 -25 83 q 52 72 31 83 q 79 61 71 61 q 112 81 88 61 q 173 146 135 101 q 233 222 211 191 q 280 322 256 253 q 318 467 305 391 q 278 472 304 472 q 220 467 262 472 q 163 476 189 462 q 138 518 138 491 q 155 553 138 540 q 193 567 172 567 l 212 564 q 296 568 248 564 q 351 574 344 572 q 362 594 357 576 q 367 632 367 613 q 435 890 376 813 q 603 968 494 968 q 664 950 639 968 q 689 901 689 932 q 671 870 689 887 q 637 852 652 852 q 609 865 633 852 q 579 878 586 878 q 507 811 549 878 q 465 676 465 744 q 460 631 465 655 q 456 595 456 608 q 486 589 479 589 q 559 594 512 589 q 637 600 608 600 q 677 582 652 600 q 700 547 702 563 z "},"":{"ha":1010,"x_min":51,"x_max":962,"o":"m 548 643 q 684 591 616 591 q 728 601 709 591 q 783 646 747 612 q 851 703 829 688 q 900 717 874 717 q 943 677 943 717 q 850 555 943 625 q 694 484 757 484 q 595 500 640 484 q 577 507 587 503 q 509 535 528 521 q 308 643 359 643 q 255 629 281 643 q 176 568 228 616 q 104 524 129 524 q 51 566 51 524 q 136 673 51 604 q 286 743 220 743 q 393 730 350 743 q 503 673 435 717 q 548 643 542 645 m 453 272 q 330 317 387 317 q 278 308 297 317 q 218 256 259 298 q 147 192 170 204 q 101 180 125 180 q 60 220 60 180 q 153 349 60 275 q 304 422 245 422 q 398 411 367 422 q 416 406 406 408 q 486 382 463 397 q 598 316 533 349 q 688 284 663 284 q 765 298 734 284 q 838 353 797 312 q 907 399 884 399 q 962 357 962 399 q 891 256 962 326 q 705 185 820 185 q 587 201 630 185 q 467 264 543 216 q 453 272 456 271 z "},"":{"ha":1270,"x_min":61,"x_max":1158,"o":"m 985 139 q 837 578 890 330 q 728 888 789 804 q 714 879 718 892 q 643 740 682 785 q 545 602 631 726 q 298 260 385 372 q 175 33 210 142 q 151 17 171 24 q 119 11 131 11 q 78 30 94 11 q 61 75 61 50 q 109 208 61 125 q 307 475 157 291 q 347 528 334 508 q 412 615 366 556 q 586 870 544 783 q 657 966 613 928 q 663 983 661 971 q 665 1003 663 994 q 696 1025 671 1015 q 733 1035 722 1035 q 800 995 765 1035 q 892 795 836 956 q 975 515 948 635 q 1092 205 1020 320 q 1158 61 1158 98 q 1100 7 1158 7 q 1076 9 1097 7 q 918 21 970 21 q 533 -14 801 21 q 278 -37 349 -37 q 234 -23 254 -37 q 215 11 215 -9 q 246 69 215 48 q 306 90 277 90 q 341 87 311 90 q 685 118 353 85 q 766 121 697 120 q 882 129 836 123 q 940 130 896 131 q 985 139 983 129 z "},"":{"ha":1015,"x_min":35,"x_max":989,"o":"m 200 472 q 195 460 197 465 q 382 326 277 410 q 488 214 488 241 q 476 186 488 200 q 451 172 465 172 q 433 176 442 172 q 260 302 416 192 q 216 335 233 321 q 103 404 175 367 q 60 427 65 421 q 39 469 45 437 q 85 524 35 513 q 277 616 170 541 q 465 744 452 740 q 494 725 481 744 q 507 687 507 706 q 437 612 507 653 q 379 576 399 591 l 317 529 q 290 510 302 519 q 274 503 285 507 q 200 472 208 481 m 987 685 q 976 655 989 671 q 960 628 972 639 q 924 614 947 623 q 880 596 901 606 q 843 572 876 591 l 730 510 q 625 450 631 455 q 621 437 618 445 q 640 426 622 436 q 763 341 675 404 q 871 257 850 277 q 909 213 909 230 q 899 180 913 194 q 870 166 885 166 q 815 198 853 166 q 550 376 760 239 q 492 414 508 400 q 475 448 475 428 q 484 470 475 465 q 811 649 541 528 q 833 664 819 652 q 907 720 890 709 q 939 730 924 730 q 968 716 953 730 q 987 685 983 703 z "},"":{"ha":1013,"x_min":102,"x_max":991,"o":"m 616 136 q 557 92 585 92 q 521 108 536 92 q 506 146 506 124 q 833 408 496 203 q 736 490 831 415 q 606 592 633 569 q 578 627 578 615 q 593 665 574 636 q 625 693 612 693 q 705 632 650 693 q 941 469 833 497 q 991 434 991 455 q 975 392 991 404 q 877 336 958 380 q 859 325 865 330 q 771 260 814 286 q 616 136 669 189 m 507 378 q 370 279 494 365 q 294 218 321 245 q 228 158 247 172 q 212 144 222 154 q 168 109 182 112 q 119 111 128 105 q 106 134 110 117 q 102 155 102 151 q 112 203 102 172 q 310 334 140 233 q 375 382 363 370 q 387 410 387 395 q 258 524 387 426 q 203 569 225 549 q 166 601 182 588 q 138 640 146 621 q 155 676 138 661 q 189 692 172 692 q 316 597 224 692 q 361 553 342 571 l 395 522 q 448 489 429 497 q 488 457 458 489 q 519 412 519 426 q 507 378 519 387 z "},"":{"ha":1128,"x_min":115,"x_max":977,"o":"m 170 11 q 126 32 137 11 q 115 93 115 54 q 160 140 115 130 q 232 151 205 151 q 264 135 264 151 q 235 54 264 97 q 170 11 205 11 m 539 -1 q 492 9 514 -1 q 471 40 471 20 q 498 125 471 100 q 554 150 525 150 q 582 133 569 150 q 595 102 595 117 q 582 32 595 66 q 539 -1 570 -1 m 899 5 q 848 28 871 5 q 825 78 825 50 q 853 125 825 102 q 903 149 880 149 q 951 129 926 149 q 977 77 977 110 q 953 26 977 47 q 899 5 929 5 z "},"":{"ha":543,"x_min":0,"x_max":0,"o":""},"":{"ha":1080,"x_min":-7,"x_max":1059,"o":"m 656 970 q 663 937 663 966 q 656 893 663 908 l 665 865 q 709 733 688 785 q 763 585 736 664 q 889 272 823 402 q 1008 90 954 142 q 1051 44 1042 56 q 1059 14 1059 31 q 1039 -36 1059 -16 q 991 -57 1019 -57 q 781 216 905 -57 q 722 324 732 324 q 582 304 689 324 q 385 258 474 285 q 321 243 334 243 q 286 260 304 243 q 277 262 282 262 q 213 174 262 262 q 110 0 132 28 q 63 -28 89 -28 q 19 -6 45 -28 q -7 37 -7 15 q 18 96 -7 59 q 117 245 42 133 q 344 618 252 444 q 529 945 490 895 q 589 995 568 995 q 656 970 634 995 m 698 431 q 628 630 674 486 q 564 817 578 784 q 449 594 527 739 l 326 361 q 401 379 340 372 q 483 391 448 384 q 698 431 668 429 m 513 1244 q 492 1259 507 1247 l 450 1290 q 339 1410 339 1372 q 362 1440 339 1423 q 399 1457 385 1457 q 439 1431 409 1457 q 512 1365 469 1405 q 629 1266 555 1324 q 715 1191 703 1208 q 727 1156 727 1173 q 710 1114 727 1133 q 671 1096 693 1096 q 638 1122 664 1096 l 513 1244 z "},"":{"ha":1080,"x_min":-7,"x_max":1059,"o":"m 656 970 q 663 937 663 966 q 656 893 663 908 l 665 865 q 709 733 688 785 q 763 585 736 664 q 889 272 823 402 q 1008 90 954 142 q 1051 44 1042 56 q 1059 14 1059 31 q 1039 -36 1059 -16 q 991 -57 1019 -57 q 781 216 905 -57 q 722 324 732 324 q 582 304 689 324 q 385 258 474 285 q 321 243 334 243 q 286 260 304 243 q 277 262 282 262 q 213 174 262 262 q 110 0 132 28 q 63 -28 89 -28 q 19 -6 45 -28 q -7 37 -7 15 q 18 96 -7 59 q 117 245 42 133 q 344 618 252 444 q 529 945 490 895 q 589 995 568 995 q 656 970 634 995 m 698 431 q 628 630 674 486 q 564 817 578 784 q 449 594 527 739 l 326 361 q 401 379 340 372 q 483 391 448 384 q 698 431 668 429 m 610 1211 q 589 1232 598 1221 q 526 1265 557 1265 q 484 1251 503 1265 q 428 1193 465 1236 q 377 1136 394 1149 q 340 1122 361 1122 q 307 1158 307 1122 q 382 1283 307 1206 q 507 1360 457 1360 q 576 1351 553 1360 q 629 1312 599 1342 q 677 1269 656 1284 q 699 1254 688 1262 q 759 1222 741 1222 q 793 1235 777 1222 q 844 1297 808 1249 q 887 1341 875 1341 q 924 1301 924 1341 q 872 1203 924 1274 q 770 1131 821 1131 q 682 1152 716 1131 q 618 1203 648 1173 q 610 1211 611 1210 z "},"":{"ha":1116,"x_min":76,"x_max":1073,"o":"m 353 -49 q 160 59 245 -49 q 76 283 76 167 q 159 595 76 420 q 377 882 243 771 q 656 993 511 993 q 842 965 768 993 q 975 886 916 938 q 1053 781 1034 835 q 1073 629 1073 726 q 1017 413 1073 536 q 844 172 962 290 q 621 3 726 55 q 353 -49 516 -49 m 200 289 q 260 130 200 195 q 398 66 319 66 q 774 254 603 66 q 946 654 946 443 q 915 782 946 735 q 813 861 883 828 q 656 894 743 894 q 352 688 505 894 q 200 289 200 481 m 709 1208 q 688 1230 697 1219 q 625 1263 656 1263 q 583 1249 602 1263 q 527 1191 564 1234 q 476 1134 493 1147 q 439 1120 460 1120 q 406 1156 406 1120 q 481 1281 406 1204 q 606 1358 556 1358 q 675 1349 652 1358 q 728 1310 698 1340 q 777 1267 755 1282 q 798 1252 787 1260 q 858 1220 840 1220 q 892 1233 876 1220 q 943 1295 907 1246 q 986 1339 974 1339 q 1023 1299 1023 1339 q 971 1201 1023 1272 q 869 1129 920 1129 q 781 1150 815 1129 q 717 1201 747 1171 q 709 1208 710 1208 z "},"":{"ha":1606,"x_min":76,"x_max":1578,"o":"m 1533 875 q 1496 876 1531 874 q 1424 869 1461 877 q 1359 858 1388 860 q 1316 852 1339 857 q 1201 846 1287 847 q 1038 829 1072 844 q 1000 764 1004 813 q 986 682 997 727 q 953 505 953 549 l 963 504 q 1092 513 995 502 q 1237 534 1189 524 q 1388 558 1336 558 q 1473 513 1473 558 q 1416 445 1473 457 q 1180 412 1360 432 q 946 369 960 388 q 915 244 931 349 q 899 110 899 139 l 899 102 q 942 64 902 68 l 954 63 q 1043 69 991 61 l 1173 88 q 1320 112 1246 98 q 1438 132 1413 132 q 1481 116 1457 132 q 1504 65 1504 100 q 1492 31 1504 40 q 1314 -3 1423 0 q 1019 -35 1219 -7 q 886 -50 918 -50 q 787 -38 807 -50 q 763 24 767 -25 l 760 47 l 760 50 q 765 71 760 56 l 777 111 q 591 -10 684 29 q 353 -49 497 -49 q 160 59 245 -49 q 76 283 76 167 q 159 595 76 420 q 377 882 243 771 q 656 993 511 993 q 906 937 801 993 l 971 933 l 974 933 q 1124 946 989 933 q 1447 991 1259 959 q 1470 994 1466 994 l 1480 995 q 1553 984 1533 998 q 1578 930 1573 970 q 1560 894 1578 911 q 1533 875 1543 876 m 816 303 q 842 490 837 435 q 852 556 845 517 q 882 812 882 718 q 880 819 882 813 q 656 894 791 894 q 352 688 505 894 q 200 289 200 481 q 260 130 200 195 q 398 66 319 66 q 816 303 627 66 z "},"":{"ha":1118,"x_min":207,"x_max":1065,"o":"m 1022 361 q 978 366 1005 361 q 936 371 947 371 q 786 351 896 371 q 656 345 732 345 l 396 342 q 336 351 372 342 q 297 361 300 361 q 267 357 280 361 q 229 364 251 353 q 207 396 207 374 q 217 418 207 402 q 239 437 228 433 q 307 442 250 441 l 543 456 q 625 448 568 456 q 703 441 677 441 q 819 456 739 441 q 939 471 898 471 q 1065 403 1065 471 q 1057 369 1065 378 q 1022 361 1048 361 z "},"":{"ha":1588,"x_min":218,"x_max":1480,"o":"m 746 354 q 468 344 596 354 l 420 341 q 261 334 296 334 q 245 338 257 334 q 225 343 233 343 q 218 368 218 352 q 240 420 218 405 q 359 436 262 436 q 406 440 383 436 q 425 444 418 443 q 657 458 532 458 l 1092 452 q 1303 463 1103 452 q 1392 465 1354 465 q 1450 457 1419 465 q 1480 429 1480 448 q 1465 384 1480 414 q 1436 354 1449 354 l 1197 354 q 1156 353 1185 354 l 1042 348 l 1034 347 l 1032 347 l 746 354 z "},"":{"ha":808,"x_min":60,"x_max":710,"o":"m 146 785 q 173 755 146 774 q 218 722 210 732 q 225 694 225 712 q 214 665 225 682 q 191 648 203 648 q 108 694 157 648 q 60 775 60 739 q 81 853 60 804 q 126 918 102 903 q 203 982 144 929 q 240 1010 229 1006 q 273 1015 251 1015 q 326 983 326 1015 q 320 945 326 956 q 278 923 314 935 q 181 857 216 903 q 146 785 146 812 m 667 917 l 655 908 q 579 852 607 869 q 551 814 562 842 q 541 761 541 785 q 559 711 541 741 q 582 663 582 678 q 569 631 582 650 q 545 611 556 611 q 474 667 507 611 q 441 753 441 722 q 501 890 441 810 q 607 987 560 970 q 630 999 614 989 q 661 1010 649 1010 q 690 987 669 1010 q 710 956 710 964 q 696 935 710 944 q 667 917 682 926 z "},"":{"ha":798,"x_min":74,"x_max":721,"o":"m 541 1023 q 568 1041 543 1030 q 607 1053 593 1053 q 651 1019 614 1053 q 704 957 688 985 q 721 886 721 929 q 678 707 721 817 q 583 597 635 597 q 549 609 564 597 q 534 640 534 621 q 559 699 534 677 q 627 847 627 758 q 568 928 627 873 q 543 956 543 952 l 541 1023 m 235 972 q 283 928 269 949 q 297 865 297 907 q 271 747 297 817 q 231 667 245 677 q 173 635 216 656 q 122 614 129 614 q 89 628 103 614 q 74 663 74 643 q 86 701 74 690 q 131 723 99 713 q 173 746 162 732 q 195 787 184 759 q 207 835 207 815 q 170 895 207 853 q 135 942 135 934 q 174 1019 135 1019 q 211 996 190 1019 l 235 972 z "},"":{"ha":432,"x_min":103,"x_max":374,"o":"m 330 892 q 302 869 316 882 q 262 838 285 850 q 230 817 237 825 q 213 785 222 809 q 204 736 204 762 q 224 684 204 718 q 244 636 244 651 q 232 605 244 623 q 208 586 220 586 q 137 641 172 586 q 103 728 103 696 q 162 865 103 785 q 272 962 220 945 l 282 968 q 292 973 287 970 q 325 985 314 985 q 353 961 333 985 q 374 930 374 937 q 360 910 374 919 q 330 892 346 901 z "},"":{"ha":329,"x_min":97,"x_max":283,"o":"m 106 1072 q 133 1090 108 1079 q 170 1101 159 1101 q 212 1069 180 1101 l 230 1050 q 277 980 260 1020 q 283 935 283 966 q 243 761 283 877 q 147 646 203 646 q 112 658 127 646 q 97 689 97 670 q 125 747 97 724 q 189 893 189 804 q 132 978 189 927 q 110 999 113 994 q 105 1036 106 1003 q 106 1072 104 1069 z "},"":{"ha":803,"x_min":92,"x_max":747,"o":"m 435 564 q 356 595 376 564 q 336 650 336 626 q 356 672 336 661 q 390 684 376 684 q 407 677 395 684 q 435 674 412 675 q 484 653 484 673 q 471 594 484 625 q 435 564 458 564 m 621 320 q 421 317 503 320 q 286 311 323 314 q 197 304 222 304 q 92 358 92 304 q 142 411 92 411 l 200 414 l 315 411 q 451 418 342 411 q 596 427 550 427 q 653 419 614 427 q 705 412 690 412 q 734 395 722 412 q 747 363 747 378 q 738 340 747 355 q 712 323 728 326 q 621 320 696 320 m 407 22 q 353 38 384 22 q 322 74 322 54 q 354 120 322 99 q 411 140 385 140 q 464 107 464 140 q 448 49 464 76 q 407 22 432 22 z "},"":{"ha":783,"x_min":37,"x_max":745,"o":"m 745 481 q 744 463 744 479 q 723 417 744 446 q 671 349 702 389 q 633 296 649 322 q 530 151 581 216 q 515 129 525 143 q 435 9 453 33 q 386 -14 417 -14 q 337 34 359 -14 q 243 169 310 87 q 219 198 232 181 q 169 259 193 231 q 83 369 130 302 q 37 471 37 435 l 37 476 q 39 482 37 479 l 38 488 q 52 526 38 505 q 112 604 66 547 q 149 656 133 630 q 252 802 201 736 q 267 824 257 809 q 347 943 329 920 q 396 966 365 966 q 445 918 423 966 q 540 784 472 865 l 563 754 q 613 693 589 722 q 699 584 652 650 q 745 481 745 517 m 637 489 q 541 626 627 507 q 393 817 454 745 l 384 816 q 303 721 371 811 q 214 592 235 631 q 142 469 155 487 l 145 463 q 260 302 160 436 q 389 135 359 168 l 398 136 q 479 231 411 141 q 568 360 547 321 q 635 476 630 471 q 637 489 640 481 z "},"":{"ha":821,"x_min":13,"x_max":736,"o":"m 591 239 q 372 82 467 131 q 227 33 277 33 q 124 89 160 33 q 89 219 89 144 q 131 477 89 323 q 194 660 174 631 q 260 688 215 688 q 292 666 279 688 q 304 615 304 644 q 288 571 304 598 q 250 500 252 507 q 224 419 248 494 q 199 278 199 344 q 211 206 199 255 q 257 157 222 157 q 349 180 294 157 q 472 254 404 203 q 564 338 541 306 q 598 410 588 370 q 612 587 608 451 q 677 722 616 722 q 725 703 714 722 q 736 629 736 684 q 730 517 736 585 q 720 397 722 433 q 672 22 711 210 q 558 -293 633 -166 q 353 -419 484 -419 q 116 -350 220 -419 q 13 -232 13 -280 q 23 -188 13 -210 q 50 -166 34 -166 q 68 -179 58 -166 q 347 -315 157 -315 q 512 -143 446 -315 q 586 181 579 30 q 591 239 587 210 m 612 842 q 568 860 586 842 q 550 903 550 878 q 563 941 550 929 q 629 966 575 954 l 639 969 q 672 960 658 975 q 686 917 686 945 q 612 842 686 842 m 357 823 q 312 833 342 823 q 283 859 283 844 q 330 944 283 944 q 399 920 373 944 q 425 854 425 897 q 357 823 425 823 z "},"":{"ha":932,"x_min":18,"x_max":1023,"o":"m 425 473 q 277 654 371 529 q 184 771 212 743 q 110 838 157 800 q 32 908 47 887 q 18 952 18 929 q 39 981 18 963 q 77 999 60 999 q 186 937 119 999 q 309 805 254 874 q 517 568 477 593 q 601 658 557 612 q 873 959 825 890 q 980 1034 927 1034 q 1012 1014 1000 1034 q 1023 975 1023 995 q 972 897 1023 957 q 701 608 921 836 q 577 466 595 498 q 542 281 559 434 q 518 41 525 127 q 507 -19 514 -12 q 479 -33 500 -26 q 444 -40 457 -40 q 393 45 393 -40 q 415 233 393 98 q 435 407 435 363 q 425 473 435 446 m 707 1110 q 664 1128 682 1110 q 646 1171 646 1146 q 658 1210 646 1198 q 724 1235 671 1222 l 734 1238 q 767 1228 753 1243 q 781 1185 781 1213 q 707 1110 781 1110 m 453 1092 q 408 1102 437 1092 q 378 1128 378 1112 q 425 1213 378 1213 q 495 1189 469 1213 q 521 1122 521 1165 q 453 1092 521 1092 z "},"":{"ha":1145,"x_min":55,"x_max":1041,"o":"m 271 275 q 255 294 258 294 q 180 290 239 294 q 104 287 119 287 q 74 301 94 287 q 55 326 55 316 q 68 372 55 348 q 100 397 81 397 q 249 405 227 397 q 279 453 271 414 q 309 549 288 496 q 248 553 300 553 l 159 553 q 112 564 122 553 q 102 597 102 576 q 171 659 102 659 l 351 655 q 565 916 444 842 q 784 989 686 989 q 964 945 888 989 q 1041 867 1041 901 q 1018 814 1041 841 q 969 788 994 788 q 958 797 967 788 q 859 865 894 851 q 758 880 823 880 q 626 835 692 880 q 527 736 560 790 q 493 669 493 683 q 534 660 493 660 l 684 663 q 745 667 690 663 q 806 671 800 671 q 851 625 851 671 q 776 562 851 562 l 503 562 q 444 551 460 562 q 412 496 427 541 q 397 429 397 452 q 412 412 397 412 q 564 424 450 412 q 730 435 681 435 q 789 389 789 435 q 764 348 789 364 q 715 328 739 331 q 585 321 690 326 q 459 317 480 317 q 393 302 401 317 q 470 151 401 213 q 625 90 538 90 q 904 165 794 90 q 1003 220 984 220 q 1027 207 1021 220 q 1034 156 1034 194 q 1008 101 1034 134 q 870 24 983 68 q 615 -20 758 -20 q 282 236 351 -20 q 271 275 275 260 z "},"":{"ha":549,"x_min":34,"x_max":535,"o":"m 526 662 q 439 562 535 630 q 205 422 343 494 q 191 411 191 414 q 291 340 243 372 q 368 284 338 307 q 397 264 380 274 q 430 238 419 249 q 463 186 463 215 q 452 150 468 172 q 428 130 446 130 q 389 150 420 130 q 356 175 374 162 q 319 204 337 187 q 262 249 276 235 q 81 353 155 337 q 34 401 34 363 q 71 460 34 445 q 101 474 82 465 q 287 571 132 482 q 333 596 310 584 q 370 622 343 606 q 391 637 380 628 l 443 679 q 467 698 455 688 q 492 707 481 707 q 516 693 506 707 q 526 662 526 680 z "},"":{"ha":551,"x_min":55,"x_max":529,"o":"m 456 354 q 429 339 440 345 q 413 330 418 334 q 320 269 384 310 l 271 237 q 237 214 251 222 q 105 106 135 106 q 70 122 85 106 q 55 162 55 138 q 375 408 55 224 q 271 490 378 413 q 125 593 155 570 q 96 629 96 616 q 113 669 94 642 q 144 695 133 695 q 219 640 169 695 q 467 472 304 558 q 488 462 469 469 q 529 425 529 441 q 456 354 529 385 z "},"":{"ha":879,"x_min":82,"x_max":911,"o":"m 225 -31 q 199 -60 220 -48 q 157 -71 178 -71 q 88 30 88 -71 q 120 302 88 78 q 140 511 140 440 q 111 543 140 524 q 82 581 82 562 q 126 644 82 610 q 168 703 160 670 q 186 793 176 735 q 294 1096 220 1003 q 481 1189 368 1189 q 584 1148 542 1189 q 626 1046 626 1107 q 603 933 626 996 q 549 871 579 871 q 527 893 527 871 l 532 959 q 458 1090 532 1090 q 327 934 379 1090 q 275 681 275 779 q 315 650 275 650 q 610 686 396 650 q 710 698 682 698 q 762 681 742 698 q 782 644 782 665 q 772 591 782 624 q 709 334 722 412 q 697 151 697 257 q 711 35 697 99 q 714 14 714 22 q 692 -17 714 2 q 644 -37 669 -37 q 578 84 578 -37 q 630 479 578 208 q 648 598 648 574 q 372 556 439 562 q 260 539 273 546 q 215 90 215 287 q 220 2 215 31 q 225 -31 225 -24 m 786 908 q 764 939 772 908 q 757 960 762 948 q 739 1036 739 1004 q 771 1092 739 1063 q 842 1120 803 1120 q 886 1104 862 1120 q 911 1075 911 1089 q 894 999 911 1053 q 841 927 878 945 q 786 908 805 908 z "},"":{"ha":920,"x_min":82,"x_max":899,"o":"m 225 -31 q 199 -60 220 -48 q 157 -71 178 -71 q 88 30 88 -71 q 120 302 88 78 q 140 511 140 440 q 111 543 140 524 q 82 581 82 562 q 126 644 82 610 q 168 703 160 670 q 186 793 176 735 q 294 1096 220 1003 q 481 1189 368 1189 q 584 1148 542 1189 q 626 1046 626 1107 q 603 933 626 996 q 549 871 579 871 q 527 893 527 871 l 532 959 q 458 1090 532 1090 q 327 934 379 1090 q 275 681 275 779 q 315 650 275 650 q 535 670 415 650 q 677 718 656 691 q 700 710 685 718 q 770 1051 740 954 q 850 1148 800 1148 q 899 1086 899 1148 q 840 821 899 1030 q 783 531 803 690 q 762 282 762 372 q 777 60 762 170 q 779 29 779 39 q 756 -29 779 -5 q 707 -54 733 -54 q 657 -9 671 -54 q 644 136 644 36 q 686 621 644 327 q 509 574 663 595 q 418 561 465 568 l 372 556 q 260 539 273 546 q 215 90 215 287 q 220 2 215 31 q 225 -31 225 -24 z "},"":{"ha":669,"x_min":9,"x_max":643,"o":"m 539 338 q 487 326 528 336 q 422 315 446 315 q 393 313 416 315 q 363 310 370 310 q 345 287 353 310 q 336 250 336 263 q 332 178 336 219 q 328 111 328 132 q 285 65 328 65 q 228 104 259 65 q 237 165 228 121 q 245 233 245 211 l 245 248 q 240 275 245 275 q 122 261 191 275 q 53 253 81 253 q 9 302 9 253 q 29 331 9 317 q 145 352 49 344 q 237 369 215 359 q 262 385 258 378 q 271 433 267 392 q 279 493 275 471 q 290 570 286 517 q 296 635 294 623 q 203 625 254 625 q 151 617 185 625 q 104 610 114 610 q 50 656 50 610 q 76 694 50 686 q 195 710 101 703 q 309 724 270 715 q 319 821 315 722 q 323 947 323 920 q 345 974 323 961 q 378 987 366 987 q 425 937 425 987 q 410 846 425 905 q 396 755 396 784 q 415 747 396 747 q 488 762 439 747 q 562 777 535 777 q 607 770 591 777 q 623 741 623 764 q 611 716 623 733 q 590 695 600 699 l 528 680 q 453 667 477 667 q 385 647 410 667 q 380 620 383 640 l 356 468 q 351 415 351 442 q 372 401 351 401 q 450 409 413 401 q 542 425 525 423 l 582 431 q 607 433 604 433 q 633 412 623 433 q 643 376 643 391 q 621 344 643 357 q 576 332 598 332 q 560 335 571 332 q 539 338 549 338 z "},"":{"ha":329,"x_min":68,"x_max":256,"o":"m 157 65 q 116 108 154 73 q 79 149 79 144 q 74 174 79 157 q 68 196 68 189 q 72 206 68 200 l 78 216 q 106 234 80 223 q 142 245 132 245 q 190 208 151 245 q 242 145 229 170 q 256 79 256 121 q 214 -99 256 12 q 119 -210 173 -210 q 84 -198 99 -210 q 69 -167 69 -186 q 97 -109 69 -133 q 161 37 161 -52 q 157 65 161 58 z "},"":{"ha":798,"x_min":56,"x_max":703,"o":"m 522 225 q 550 243 524 232 q 589 254 576 254 q 651 202 600 254 q 703 87 703 149 q 660 -92 703 18 q 566 -201 617 -201 q 531 -190 546 -201 q 517 -158 517 -178 q 542 -100 517 -122 q 608 49 608 -41 q 551 125 608 77 q 525 157 525 149 q 522 192 525 174 q 522 225 519 210 m 104 -184 q 70 -170 85 -184 q 56 -136 56 -155 q 65 -99 56 -110 q 113 -75 75 -88 q 155 -53 143 -66 q 178 -11 168 -39 q 189 36 189 17 q 153 94 189 52 q 117 143 117 136 q 155 221 117 221 q 200 202 159 221 q 260 136 241 184 q 279 58 279 87 q 254 -51 279 18 q 217 -127 228 -119 q 160 -160 206 -136 q 104 -184 114 -184 z "},"":{"ha":1425,"x_min":72,"x_max":1373,"o":"m 323 33 q 288 21 302 21 q 246 46 269 21 q 222 93 222 72 q 273 191 222 103 q 346 313 323 278 q 568 741 441 462 l 591 791 q 467 821 582 821 q 386 810 390 821 q 379 770 381 799 q 335 664 376 725 q 204 603 294 603 q 72 713 72 603 q 171 885 72 798 q 190 909 173 886 q 223 946 213 939 q 249 953 233 953 q 307 942 288 953 q 349 905 327 932 q 380 885 363 885 q 427 892 399 885 q 473 899 457 899 q 633 890 515 899 q 768 861 751 881 q 785 832 785 842 q 733 777 785 806 q 570 534 669 740 q 509 416 522 439 q 375 147 422 271 q 346 98 372 138 q 323 33 317 55 m 319 808 q 227 828 258 808 q 160 711 160 758 q 177 689 160 701 q 209 677 194 677 q 283 718 249 677 q 319 808 317 758 m 1169 122 q 1132 100 1164 121 q 1090 79 1099 79 l 1067 79 q 1036 85 1051 79 q 1006 96 1025 90 q 958 135 970 108 q 946 205 946 161 q 978 312 946 230 q 1027 401 1010 393 q 1075 437 1043 410 q 1157 465 1107 465 q 1278 458 1246 465 q 1341 412 1309 452 q 1373 335 1373 372 q 1317 206 1373 252 q 1169 122 1261 160 m 1208 390 q 1094 329 1152 390 q 1035 207 1035 268 q 1107 167 1035 167 q 1208 225 1133 167 q 1284 329 1284 284 q 1256 366 1284 341 q 1208 390 1228 390 m 892 344 q 811 180 892 252 q 629 109 731 109 q 557 143 598 109 q 517 210 517 178 q 595 357 517 264 q 722 449 674 449 q 840 414 788 449 q 892 347 892 379 l 892 344 m 758 367 q 671 318 724 367 q 619 232 619 269 q 630 207 619 217 q 654 196 640 196 q 731 214 670 196 q 750 218 742 218 q 789 263 774 223 q 804 330 804 303 q 787 354 804 340 q 758 367 770 367 z "},"":{"ha":1080,"x_min":-7,"x_max":1059,"o":"m 656 970 q 663 937 663 966 q 656 893 663 908 l 665 865 q 709 733 688 785 q 763 585 736 664 q 889 272 823 402 q 1008 90 954 142 q 1051 44 1042 56 q 1059 14 1059 31 q 1039 -36 1059 -16 q 991 -57 1019 -57 q 781 216 905 -57 q 722 324 732 324 q 582 304 689 324 q 385 258 474 285 q 321 243 334 243 q 286 260 304 243 q 277 262 282 262 q 213 174 262 262 q 110 0 132 28 q 63 -28 89 -28 q 19 -6 45 -28 q -7 37 -7 15 q 18 96 -7 59 q 117 245 42 133 q 344 618 252 444 q 529 945 490 895 q 589 995 568 995 q 656 970 634 995 m 698 431 q 628 630 674 486 q 564 817 578 784 q 449 594 527 739 l 326 361 q 401 379 340 372 q 483 391 448 384 q 698 431 668 429 m 771 1261 q 788 1242 775 1257 q 823 1204 801 1227 q 873 1140 867 1156 q 880 1113 880 1124 q 866 1080 880 1095 q 837 1066 852 1066 q 755 1143 808 1066 q 706 1208 739 1170 q 657 1279 675 1246 q 624 1326 637 1326 q 524 1229 608 1326 q 428 1125 461 1158 q 377 1093 395 1093 q 339 1157 339 1093 q 351 1195 339 1186 l 423 1263 q 480 1315 453 1292 q 568 1402 532 1359 q 641 1454 612 1454 q 670 1432 654 1454 q 732 1329 686 1410 q 771 1261 768 1261 z "},"":{"ha":950,"x_min":104,"x_max":922,"o":"m 877 875 q 840 876 875 874 q 768 869 805 877 q 703 858 732 860 q 661 852 684 857 q 545 846 631 847 q 382 829 416 844 q 345 764 349 813 q 330 682 341 727 q 297 505 297 549 l 307 504 q 436 513 339 502 q 581 534 533 524 q 732 558 680 558 q 817 513 817 558 q 761 445 817 457 q 524 412 704 432 q 290 369 304 388 q 259 244 275 349 q 243 110 243 139 l 243 102 q 286 64 246 68 l 298 63 q 387 69 336 61 l 517 88 q 665 112 590 98 q 783 132 758 132 q 825 116 802 132 q 848 65 848 100 q 836 31 848 40 q 658 -3 767 0 q 363 -35 564 -7 q 231 -50 262 -50 q 131 -38 151 -50 q 107 24 111 -25 l 104 47 l 104 50 q 117 94 104 60 q 156 277 134 142 q 186 490 179 412 q 197 556 189 517 q 227 812 227 718 q 213 838 227 817 q 208 844 210 842 q 199 870 203 860 q 195 892 195 880 l 195 899 q 213 926 195 914 q 248 937 231 937 l 250 937 q 315 933 279 937 l 318 933 q 469 946 334 933 q 791 991 604 959 q 814 994 810 994 l 825 995 q 898 984 878 998 q 922 930 918 970 q 905 894 922 911 q 877 875 887 876 m 777 1274 q 794 1255 781 1270 q 829 1217 807 1240 q 879 1153 873 1168 q 886 1126 886 1137 q 872 1093 886 1107 q 843 1079 858 1079 q 762 1156 814 1079 q 712 1221 745 1183 q 663 1292 681 1259 q 630 1339 644 1339 q 530 1242 614 1339 q 434 1138 467 1171 q 383 1105 401 1105 q 345 1170 345 1105 q 357 1208 345 1199 l 429 1276 q 486 1328 459 1305 q 574 1415 538 1372 q 647 1467 618 1467 q 676 1445 661 1467 q 738 1341 692 1423 q 777 1274 774 1274 z "},"":{"ha":1080,"x_min":-7,"x_max":1059,"o":"m 656 970 q 663 937 663 966 q 656 893 663 908 l 665 865 q 709 733 688 785 q 763 585 736 664 q 889 272 823 402 q 1008 90 954 142 q 1051 44 1042 56 q 1059 14 1059 31 q 1039 -36 1059 -16 q 991 -57 1019 -57 q 781 216 905 -57 q 722 324 732 324 q 582 304 689 324 q 385 258 474 285 q 321 243 334 243 q 286 260 304 243 q 277 262 282 262 q 213 174 262 262 q 110 0 132 28 q 63 -28 89 -28 q 19 -6 45 -28 q -7 37 -7 15 q 18 96 -7 59 q 117 245 42 133 q 344 618 252 444 q 529 945 490 895 q 589 995 568 995 q 656 970 634 995 m 698 431 q 628 630 674 486 q 564 817 578 784 q 449 594 527 739 l 326 361 q 401 379 340 372 q 483 391 448 384 q 698 431 668 429 m 895 1341 q 888 1337 892 1340 q 876 1331 883 1335 q 687 1201 830 1310 q 597 1136 628 1156 l 582 1126 q 551 1143 564 1126 q 537 1178 537 1160 q 641 1291 537 1213 q 828 1416 745 1370 q 875 1447 859 1434 q 887 1454 886 1456 q 914 1429 899 1454 q 929 1390 929 1404 q 916 1364 929 1382 q 895 1341 903 1347 z "},"":{"ha":950,"x_min":104,"x_max":922,"o":"m 877 875 q 840 876 875 874 q 768 869 805 877 q 703 858 732 860 q 661 852 684 857 q 545 846 631 847 q 382 829 416 844 q 345 764 349 813 q 330 682 341 727 q 297 505 297 549 l 307 504 q 436 513 339 502 q 581 534 533 524 q 732 558 680 558 q 817 513 817 558 q 761 445 817 457 q 524 412 704 432 q 290 369 304 388 q 259 244 275 349 q 243 110 243 139 l 243 102 q 286 64 246 68 l 298 63 q 387 69 336 61 l 517 88 q 665 112 590 98 q 783 132 758 132 q 825 116 802 132 q 848 65 848 100 q 836 31 848 40 q 658 -3 767 0 q 363 -35 564 -7 q 231 -50 262 -50 q 131 -38 151 -50 q 107 24 111 -25 l 104 47 l 104 50 q 117 94 104 60 q 156 277 134 142 q 186 490 179 412 q 197 556 189 517 q 227 812 227 718 q 213 838 227 817 q 208 844 210 842 q 199 870 203 860 q 195 892 195 880 l 195 899 q 213 926 195 914 q 248 937 231 937 l 250 937 q 315 933 279 937 l 318 933 q 469 946 334 933 q 791 991 604 959 q 814 994 810 994 l 825 995 q 898 984 878 998 q 922 930 918 970 q 905 894 922 911 q 877 875 887 876 m 752 1108 q 708 1126 726 1108 q 690 1169 690 1144 q 703 1208 690 1196 q 769 1233 715 1220 l 779 1236 q 812 1226 798 1241 q 826 1183 826 1211 q 752 1108 826 1108 m 498 1090 q 453 1100 482 1090 q 423 1126 423 1110 q 470 1211 423 1211 q 539 1187 513 1211 q 566 1120 566 1163 q 498 1090 566 1090 z "},"":{"ha":440,"x_min":132,"x_max":617,"o":"m 365 899 q 319 709 361 872 q 294 581 300 633 q 283 504 290 545 q 256 267 256 330 q 268 79 256 171 q 249 1 275 25 q 197 -22 223 -22 q 146 19 161 -22 q 132 151 132 60 q 159 416 132 247 q 170 492 169 479 q 176 540 172 515 q 181 587 179 564 q 205 752 185 650 q 227 887 220 829 q 238 942 232 928 q 270 973 244 956 q 308 990 295 990 q 351 963 336 990 q 365 899 365 935 m 583 1336 q 576 1332 580 1335 q 564 1326 571 1329 q 375 1196 518 1305 q 286 1131 316 1150 l 270 1121 q 239 1138 252 1121 q 225 1173 225 1155 q 329 1286 225 1207 q 516 1411 433 1364 q 563 1441 547 1428 q 575 1449 574 1451 q 602 1423 587 1449 q 617 1385 617 1398 q 604 1359 617 1377 q 583 1336 591 1341 z "},"":{"ha":440,"x_min":74,"x_max":614,"o":"m 365 899 q 319 709 361 872 q 294 581 300 633 q 283 504 290 545 q 256 267 256 330 q 268 79 256 171 q 249 1 275 25 q 197 -22 223 -22 q 146 19 161 -22 q 132 151 132 60 q 159 416 132 247 q 170 492 169 479 q 176 540 172 515 q 181 587 179 564 q 205 752 185 650 q 227 887 220 829 q 238 942 232 928 q 270 973 244 956 q 308 990 295 990 q 351 963 336 990 q 365 899 365 935 m 506 1247 q 523 1229 510 1244 q 557 1190 536 1214 q 608 1126 602 1142 q 614 1099 614 1111 q 601 1067 614 1081 q 572 1053 587 1053 q 490 1130 543 1053 q 441 1195 473 1156 q 392 1265 410 1233 q 359 1313 372 1313 q 258 1215 343 1313 q 163 1112 196 1144 q 112 1079 130 1079 q 74 1143 74 1079 q 85 1181 74 1173 l 158 1250 q 215 1301 188 1278 q 303 1389 267 1345 q 376 1440 347 1440 q 405 1418 389 1440 q 467 1315 421 1396 q 506 1247 503 1248 z "},"":{"ha":440,"x_min":132,"x_max":548,"o":"m 365 899 q 319 709 361 872 q 294 581 300 633 q 283 504 290 545 q 256 267 256 330 q 268 79 256 171 q 249 1 275 25 q 197 -22 223 -22 q 146 19 161 -22 q 132 151 132 60 q 159 416 132 247 q 170 492 169 479 q 176 540 172 515 q 181 587 179 564 q 205 752 185 650 q 227 887 220 829 q 238 942 232 928 q 270 973 244 956 q 308 990 295 990 q 351 963 336 990 q 365 899 365 935 m 474 1149 q 430 1167 448 1149 q 412 1211 412 1185 q 425 1249 412 1237 q 491 1274 437 1261 l 501 1277 q 534 1267 520 1282 q 548 1225 548 1253 q 474 1149 548 1149 m 220 1131 q 175 1141 204 1131 q 145 1167 145 1152 q 192 1252 145 1252 q 261 1228 235 1252 q 288 1162 288 1204 q 220 1131 288 1131 z "},"":{"ha":440,"x_min":109,"x_max":496,"o":"m 365 899 q 319 709 361 872 q 294 581 300 633 q 283 504 290 545 q 256 267 256 330 q 268 79 256 171 q 249 1 275 25 q 197 -22 223 -22 q 146 19 161 -22 q 132 151 132 60 q 159 416 132 247 q 170 492 169 479 q 176 540 172 515 q 181 587 179 564 q 205 752 185 650 q 227 887 220 829 q 238 942 232 928 q 270 973 244 956 q 308 990 295 990 q 351 963 336 990 q 365 899 365 935 m 282 1272 q 262 1286 277 1275 l 219 1318 q 109 1438 109 1400 q 131 1468 109 1451 q 169 1485 154 1485 q 209 1459 178 1485 q 281 1393 239 1433 q 398 1294 324 1352 q 485 1218 473 1236 q 496 1184 496 1201 q 479 1142 496 1160 q 441 1124 463 1124 q 408 1149 433 1124 l 282 1272 z "},"":{"ha":1116,"x_min":76,"x_max":1073,"o":"m 353 -49 q 160 59 245 -49 q 76 283 76 167 q 159 595 76 420 q 377 882 243 771 q 656 993 511 993 q 842 965 768 993 q 975 886 916 938 q 1053 781 1034 835 q 1073 629 1073 726 q 1017 413 1073 536 q 844 172 962 290 q 621 3 726 55 q 353 -49 516 -49 m 200 289 q 260 130 200 195 q 398 66 319 66 q 774 254 603 66 q 946 654 946 443 q 915 782 946 735 q 813 861 883 828 q 656 894 743 894 q 352 688 505 894 q 200 289 200 481 m 985 1308 q 978 1304 982 1307 q 966 1298 973 1301 q 777 1168 920 1277 q 688 1103 718 1122 l 672 1093 q 641 1110 654 1093 q 627 1145 627 1127 q 731 1258 627 1179 q 918 1383 836 1337 q 965 1413 949 1400 q 977 1421 977 1423 q 1004 1396 989 1421 q 1019 1357 1019 1371 q 1006 1331 1019 1349 q 985 1308 994 1314 z "},"":{"ha":1116,"x_min":76,"x_max":1073,"o":"m 353 -49 q 160 59 245 -49 q 76 283 76 167 q 159 595 76 420 q 377 882 243 771 q 656 993 511 993 q 842 965 768 993 q 975 886 916 938 q 1053 781 1034 835 q 1073 629 1073 726 q 1017 413 1073 536 q 844 172 962 290 q 621 3 726 55 q 353 -49 516 -49 m 200 289 q 260 130 200 195 q 398 66 319 66 q 774 254 603 66 q 946 654 946 443 q 915 782 946 735 q 813 861 883 828 q 656 894 743 894 q 352 688 505 894 q 200 289 200 481 m 897 1259 q 913 1241 901 1256 q 948 1202 926 1226 q 999 1139 992 1154 q 1005 1112 1005 1123 q 991 1079 1005 1093 q 962 1065 977 1065 q 881 1142 934 1065 q 831 1207 864 1168 q 783 1278 800 1245 q 749 1325 763 1325 q 649 1227 734 1325 q 553 1124 587 1156 q 503 1091 520 1091 q 465 1156 465 1091 q 476 1194 465 1185 l 549 1262 q 606 1314 578 1291 q 694 1401 657 1358 q 766 1453 737 1453 q 796 1431 780 1453 q 857 1327 812 1409 q 897 1259 894 1260 z "},"":{"ha":1116,"x_min":76,"x_max":1073,"o":"m 353 -49 q 160 59 245 -49 q 76 283 76 167 q 159 595 76 420 q 377 882 243 771 q 656 993 511 993 q 842 965 768 993 q 975 886 916 938 q 1053 781 1034 835 q 1073 629 1073 726 q 1017 413 1073 536 q 844 172 962 290 q 621 3 726 55 q 353 -49 516 -49 m 200 289 q 260 130 200 195 q 398 66 319 66 q 774 254 603 66 q 946 654 946 443 q 915 782 946 735 q 813 861 883 828 q 656 894 743 894 q 352 688 505 894 q 200 289 200 481 m 620 1259 q 600 1274 614 1262 l 557 1305 q 446 1425 446 1387 q 469 1455 446 1438 q 507 1472 492 1472 q 546 1446 516 1472 q 619 1380 576 1420 q 736 1281 662 1339 q 822 1205 810 1223 q 834 1171 834 1188 q 817 1129 834 1147 q 779 1111 800 1111 q 745 1137 771 1111 l 620 1259 z "},"":{"ha":1076,"x_min":121,"x_max":1022,"o":"m 483 -47 q 320 -3 416 -47 q 172 149 223 42 q 121 385 121 256 q 155 645 121 463 q 173 751 161 678 q 203 924 195 895 q 230 971 212 954 q 273 988 248 988 q 308 956 290 988 q 326 906 326 924 q 294 783 326 892 q 259 589 278 728 q 240 393 240 450 q 329 134 240 202 q 479 66 418 66 q 677 102 595 66 q 801 231 759 138 q 861 579 843 325 q 904 903 878 839 q 976 967 929 967 q 1022 892 1022 967 q 996 683 1022 828 q 970 473 979 593 q 951 306 963 378 q 911 186 939 234 q 841 96 883 138 q 752 22 798 54 q 625 -29 706 -10 q 483 -47 544 -47 m 926 1305 q 919 1301 923 1304 q 907 1295 914 1299 q 718 1165 861 1274 q 629 1100 659 1120 l 613 1090 q 582 1107 595 1090 q 568 1142 568 1124 q 672 1255 568 1177 q 859 1380 777 1334 q 906 1411 890 1398 q 918 1418 918 1420 q 945 1393 930 1418 q 960 1354 960 1368 q 947 1329 960 1346 q 926 1305 935 1311 z "},"":{"ha":1076,"x_min":121,"x_max":1022,"o":"m 483 -47 q 320 -3 416 -47 q 172 149 223 42 q 121 385 121 256 q 155 645 121 463 q 173 751 161 678 q 203 924 195 895 q 230 971 212 954 q 273 988 248 988 q 308 956 290 988 q 326 906 326 924 q 294 783 326 892 q 259 589 278 728 q 240 393 240 450 q 329 134 240 202 q 479 66 418 66 q 677 102 595 66 q 801 231 759 138 q 861 579 843 325 q 904 903 878 839 q 976 967 929 967 q 1022 892 1022 967 q 996 683 1022 828 q 970 473 979 593 q 951 306 963 378 q 911 186 939 234 q 841 96 883 138 q 752 22 798 54 q 625 -29 706 -10 q 483 -47 544 -47 m 829 1283 q 846 1265 833 1280 q 881 1226 859 1250 q 931 1162 925 1178 q 938 1135 938 1147 q 924 1103 938 1117 q 895 1088 910 1088 q 814 1166 867 1088 q 764 1231 797 1192 q 715 1301 733 1269 q 682 1349 696 1349 q 582 1251 667 1349 q 486 1147 519 1180 q 435 1115 453 1115 q 397 1179 397 1115 q 409 1217 397 1208 l 481 1286 q 538 1337 511 1314 q 627 1425 590 1381 q 699 1476 670 1476 q 729 1454 713 1476 q 790 1351 745 1432 q 829 1283 827 1284 z "},"":{"ha":1076,"x_min":121,"x_max":1022,"o":"m 483 -47 q 320 -3 416 -47 q 172 149 223 42 q 121 385 121 256 q 155 645 121 463 q 173 751 161 678 q 203 924 195 895 q 230 971 212 954 q 273 988 248 988 q 308 956 290 988 q 326 906 326 924 q 294 783 326 892 q 259 589 278 728 q 240 393 240 450 q 329 134 240 202 q 479 66 418 66 q 677 102 595 66 q 801 231 759 138 q 861 579 843 325 q 904 903 878 839 q 976 967 929 967 q 1022 892 1022 967 q 996 683 1022 828 q 970 473 979 593 q 951 306 963 378 q 911 186 939 234 q 841 96 883 138 q 752 22 798 54 q 625 -29 706 -10 q 483 -47 544 -47 m 517 1251 q 496 1265 511 1254 l 454 1297 q 343 1417 343 1379 q 366 1447 343 1430 q 404 1463 389 1463 q 443 1438 413 1463 q 516 1372 473 1412 q 633 1273 559 1331 q 719 1197 707 1215 q 731 1163 731 1180 q 714 1121 731 1139 q 675 1103 697 1103 q 642 1128 668 1103 l 517 1251 z "},"":{"ha":401,"x_min":101,"x_max":304,"o":"m 220 151 q 234 35 220 99 q 237 14 237 22 q 214 -17 237 2 q 167 -37 192 -37 q 101 84 101 -37 q 153 479 101 209 q 170 595 170 573 q 186 668 170 637 q 230 698 201 698 q 284 681 264 698 q 304 644 304 665 q 295 591 304 624 q 232 334 244 412 q 220 151 220 257 z "},"":{"ha":543,"x_min":12,"x_max":553,"o":"m 444 913 q 461 895 448 910 q 496 857 474 880 q 546 793 540 808 q 553 766 553 777 q 539 733 553 747 q 510 719 525 719 q 429 796 481 719 q 379 861 412 823 q 330 932 348 899 q 297 979 311 979 q 197 882 281 979 q 101 778 134 810 q 50 745 68 745 q 12 810 12 745 q 24 848 12 839 l 96 916 q 153 968 126 945 q 241 1055 205 1012 q 314 1107 285 1107 q 343 1085 328 1107 q 405 981 359 1063 q 444 913 441 914 z "},"":{"ha":637,"x_min":8,"x_max":625,"o":"m 311 825 q 291 846 300 836 q 228 879 259 879 q 186 865 205 879 q 130 807 167 850 q 79 750 96 764 q 41 736 62 736 q 8 772 8 736 q 83 898 8 821 q 208 975 159 975 q 277 965 254 975 q 331 926 300 956 q 379 883 357 898 q 400 868 389 876 q 460 836 443 836 q 494 849 479 836 q 545 911 510 863 q 589 955 576 955 q 625 915 625 955 q 574 817 625 888 q 471 745 522 745 q 384 766 418 745 q 319 817 349 787 q 311 825 313 824 z "},"":{"ha":538,"x_min":31,"x_max":535,"o":"m 435 819 q 358 778 415 800 q 256 755 300 755 q 154 799 221 755 q 58 900 86 843 q 31 967 31 956 q 46 1007 31 985 q 78 1029 62 1029 q 100 1007 90 1029 q 171 896 127 943 q 268 850 214 850 q 446 950 378 850 q 472 982 450 958 q 501 1006 494 1006 q 523 984 511 1006 q 535 950 535 962 q 502 885 535 929 q 435 819 468 842 z "},"":{"ha":315,"x_min":67,"x_max":234,"o":"m 151 796 q 98 807 128 796 q 67 844 67 819 q 94 914 67 872 q 142 956 120 956 q 209 935 184 956 q 234 875 234 913 q 208 820 234 844 q 151 796 182 796 z "},"":{"ha":510,"x_min":99,"x_max":438,"o":"m 438 888 q 379 774 438 828 q 254 721 319 721 q 143 763 186 721 q 99 873 99 806 q 154 983 99 930 q 304 1036 210 1036 q 363 1018 321 1036 q 421 955 404 1000 q 438 893 438 911 l 438 888 m 283 960 l 272 960 q 208 928 226 960 q 190 868 190 896 q 211 814 190 842 q 259 786 233 786 q 317 808 283 786 q 352 880 352 830 q 338 933 352 907 q 283 960 325 960 z "},"":{"ha":432,"x_min":33,"x_max":411,"o":"m 66 -359 q 33 -313 33 -342 q 48 -277 33 -296 q 78 -258 62 -258 q 113 -275 90 -258 q 180 -309 154 -309 q 277 -286 256 -309 q 298 -224 298 -262 q 281 -181 298 -199 q 238 -164 264 -164 q 206 -173 229 -164 q 173 -180 192 -180 q 135 -144 135 -180 l 203 33 q 250 54 209 54 q 270 39 261 54 q 278 7 278 24 q 273 -7 278 0 q 250 -83 256 -37 q 304 -100 266 -97 q 358 -111 334 -100 q 397 -153 382 -123 q 411 -248 411 -183 q 348 -338 411 -281 q 171 -394 284 -394 q 124 -384 155 -394 q 75 -364 96 -374 q 66 -359 65 -359 z "},"":{"ha":586,"x_min":52,"x_max":581,"o":"m 86 742 q 63 761 74 742 q 52 790 52 779 q 90 848 52 796 q 170 943 129 900 l 268 1047 q 330 1083 298 1083 q 360 1070 347 1083 q 374 1042 374 1058 q 344 1005 374 1032 q 216 876 248 918 q 86 742 125 742 m 311 724 q 279 760 279 724 q 294 806 279 783 q 362 891 309 829 l 400 936 l 450 987 q 485 1029 470 1008 q 511 1051 492 1040 q 539 1063 530 1063 q 581 1038 581 1063 q 559 1003 581 1024 q 523 953 552 996 q 473 896 496 915 q 358 778 383 834 q 311 724 334 724 z "},"":{"ha":392,"x_min":64,"x_max":372,"o":"m 180 -364 q 96 -329 127 -364 q 64 -236 64 -293 q 140 -59 64 -150 q 250 32 216 32 q 283 -9 283 32 q 258 -52 283 -30 q 157 -224 157 -138 q 170 -262 157 -246 q 207 -278 184 -278 q 311 -247 269 -278 q 357 -225 341 -225 q 372 -264 372 -225 q 180 -364 372 -364 z "},"":{"ha":534,"x_min":12,"x_max":520,"o":"m 404 876 q 294 743 328 794 q 253 729 283 729 q 187 791 224 729 q 25 1023 72 977 q 12 1053 12 1036 q 51 1095 12 1095 q 97 1085 88 1095 q 139 1031 105 1075 q 185 964 172 987 q 197 944 193 947 q 224 897 203 938 q 264 843 244 860 q 281 863 272 851 q 400 995 336 935 q 480 1055 463 1055 q 506 1039 492 1055 q 520 1010 520 1022 q 440 911 520 981 q 404 876 404 878 z "},"":{"ha":874,"x_min":22,"x_max":867,"o":"m 282 448 l 276 447 q 245 156 245 199 q 252 124 245 132 q 279 115 259 115 q 429 135 311 115 q 706 157 503 146 q 796 173 743 159 q 811 176 806 176 q 852 159 837 176 q 867 118 867 142 q 837 57 867 79 q 770 34 807 34 q 714 38 756 34 q 650 41 671 41 q 224 -28 429 41 q 161 -39 189 -39 q 114 -13 131 -39 q 98 39 98 14 q 111 104 98 54 q 128 191 125 163 q 138 277 128 206 q 154 404 138 280 q 75 373 92 373 q 37 389 53 373 q 22 418 22 406 q 27 445 22 428 q 38 467 33 462 q 72 483 43 472 q 137 512 98 493 q 168 526 154 520 l 208 924 q 284 990 215 990 q 324 971 307 990 q 342 930 342 952 q 330 835 342 901 q 292 571 313 747 q 479 647 391 605 q 669 704 616 704 q 730 677 715 704 q 745 632 745 650 q 661 585 745 601 q 491 527 613 576 q 370 481 433 503 l 334 467 q 282 448 313 458 z "},"":{"ha":538,"x_min":-7,"x_max":640,"o":"m 316 567 q 291 282 291 392 q 305 60 291 170 q 308 29 308 39 q 285 -29 308 -5 q 236 -54 262 -54 q 186 -9 200 -54 q 172 136 172 36 q 202 527 172 304 q 182 519 191 523 q 165 512 173 515 q 80 474 158 509 q 46 464 58 464 q 8 480 24 464 q -7 509 -7 496 q -2 536 -7 519 q 8 558 3 553 q 43 574 14 563 q 69 585 57 579 q 167 628 141 619 q 219 648 208 643 q 296 1042 261 936 q 379 1148 330 1148 q 428 1086 428 1148 q 369 821 428 1030 q 340 704 353 767 l 338 694 q 359 702 348 698 q 385 711 371 706 q 563 767 516 767 q 625 740 610 767 q 640 696 640 712 q 555 654 640 669 q 402 602 508 644 l 316 567 z "},"":{"ha":887,"x_min":61,"x_max":844,"o":"m 758 757 q 711 867 758 847 q 595 887 665 887 q 334 830 451 887 q 217 694 217 774 q 269 595 217 637 q 495 502 321 553 q 735 401 664 453 q 807 276 807 349 q 707 116 807 202 q 467 -14 608 31 q 228 -59 326 -59 q 103 -40 146 -59 q 61 9 61 -20 q 74 59 61 29 q 99 88 86 88 q 127 83 113 88 q 271 56 199 56 q 543 131 399 56 q 686 271 686 206 q 643 325 686 299 q 421 406 599 350 q 150 542 201 476 q 100 682 100 608 q 262 909 100 823 q 601 996 424 996 q 781 956 718 996 q 844 868 844 916 q 830 801 844 845 q 758 757 816 757 m 713 1234 q 602 1101 637 1152 q 562 1087 591 1087 q 496 1149 533 1087 q 334 1381 380 1335 q 321 1411 321 1394 q 359 1453 321 1453 q 405 1443 397 1453 q 447 1389 414 1433 q 494 1322 481 1345 q 505 1302 502 1305 q 532 1255 511 1296 q 573 1201 553 1218 q 590 1221 581 1209 q 708 1353 645 1293 q 789 1413 772 1413 q 814 1397 800 1413 q 829 1368 829 1380 q 749 1269 829 1339 q 713 1234 713 1236 z "},"":{"ha":589,"x_min":14,"x_max":678,"o":"m 431 155 q 323 256 431 199 q 137 369 185 326 q 88 463 88 411 q 223 687 88 598 q 444 776 359 776 q 524 757 499 776 q 549 691 549 738 q 531 655 549 670 q 503 640 513 640 q 473 650 495 640 q 445 660 452 660 q 307 610 411 660 q 203 498 203 561 q 240 430 203 460 q 372 354 277 399 q 494 276 448 317 q 540 178 540 234 q 397 15 540 74 q 123 -43 254 -43 q 14 31 14 -43 q 38 69 14 57 q 88 81 63 81 q 127 75 98 81 q 163 68 155 68 q 325 93 239 68 q 431 155 411 118 m 562 1002 q 452 868 486 920 q 411 854 441 854 q 345 916 382 854 q 183 1149 230 1102 q 170 1178 170 1161 q 209 1221 170 1221 q 255 1211 246 1221 q 297 1156 263 1200 q 343 1089 330 1112 q 355 1069 351 1073 q 382 1023 361 1063 q 422 968 402 985 q 439 989 430 977 q 558 1121 494 1061 q 638 1181 621 1181 q 664 1164 650 1181 q 678 1135 678 1147 q 598 1036 678 1106 q 562 1002 562 1004 z "},"":{"ha":1063,"x_min":26,"x_max":1023,"o":"m 1013 892 q 984 869 1011 886 q 932 819 963 857 q 878 757 908 789 l 795 663 q 559 409 648 494 q 498 347 531 381 l 295 141 q 312 128 294 128 q 584 149 372 128 q 653 153 625 153 q 737 156 704 153 q 795 159 770 159 q 972 79 972 159 q 923 14 972 14 q 883 18 899 14 q 703 39 796 39 q 417 24 655 39 l 374 22 q 136 -14 235 13 q 70 -29 79 -29 q 26 20 26 -29 q 54 89 26 68 q 458 456 193 191 q 811 843 722 721 l 795 844 q 574 830 738 846 q 501 824 539 827 q 439 819 465 821 q 297 809 352 809 q 183 832 217 809 q 150 884 150 855 q 169 925 150 902 q 199 948 188 948 q 229 941 208 948 q 268 932 252 932 q 382 930 330 932 q 519 935 433 928 q 682 945 603 942 q 903 968 789 947 q 991 979 961 979 q 1023 937 1023 979 q 1013 892 1023 906 m 754 1244 q 644 1110 678 1162 q 603 1097 633 1097 q 537 1158 574 1097 q 375 1391 422 1344 q 362 1420 362 1403 q 401 1463 362 1463 q 447 1453 438 1463 q 489 1398 455 1442 q 535 1331 522 1354 q 547 1312 543 1315 q 574 1265 553 1305 q 614 1211 594 1227 q 631 1231 622 1219 q 750 1363 686 1303 q 830 1423 813 1423 q 856 1406 842 1423 q 870 1377 870 1390 q 790 1278 870 1348 q 754 1244 754 1246 z "},"":{"ha":698,"x_min":-61,"x_max":692,"o":"m 666 7 q 632 24 648 15 q 471 54 572 54 q 274 31 412 54 q 86 -39 136 8 q 14 -69 52 -69 q -34 -57 -7 -69 q -61 -24 -60 -45 q 27 68 -29 12 q 492 584 333 379 q 471 590 490 590 q 317 573 435 590 q 208 565 264 565 q 68 638 68 565 q 130 694 68 694 q 143 690 134 694 q 261 670 192 670 q 468 685 353 670 q 495 689 479 687 q 530 694 510 690 q 592 701 569 701 q 639 689 615 701 q 660 650 663 677 l 659 647 q 300 221 644 588 q 212 116 218 132 q 225 109 214 109 q 320 127 235 109 q 563 162 480 162 q 692 83 692 162 q 666 7 692 34 m 554 930 q 444 796 478 848 q 403 783 433 783 q 337 844 374 783 q 175 1077 222 1030 q 162 1106 162 1089 q 201 1149 162 1149 q 247 1139 238 1149 q 289 1084 255 1128 q 335 1017 322 1040 q 347 998 343 1001 q 374 951 353 991 q 414 897 394 913 q 431 917 422 905 q 550 1049 486 989 q 630 1109 613 1109 q 656 1092 642 1109 q 670 1063 670 1076 q 590 964 670 1034 q 554 930 554 932 z "},"":{"ha":449,"x_min":161,"x_max":275,"o":"m 180 543 l 180 572 q 183 768 180 619 l 184 833 l 184 880 l 184 918 l 184 987 q 184 1020 184 1003 l 184 1063 q 181 1256 184 1133 l 180 1307 q 212 1382 180 1382 q 257 1361 238 1382 q 275 1320 275 1341 l 270 565 q 258 519 269 536 q 229 503 248 503 q 195 514 210 503 q 180 543 180 526 m 262 -369 l 262 -472 q 255 -657 262 -626 q 210 -688 248 -688 q 175 -672 189 -688 q 161 -648 161 -656 q 167 -396 161 -511 q 172 -143 172 -281 l 170 139 q 222 214 170 214 q 269 142 269 214 l 262 -369 z "},"":{"ha":1103,"x_min":39,"x_max":1053,"o":"m 171 425 q 114 408 127 410 q 61 422 83 408 q 39 465 39 437 q 54 499 39 478 q 81 526 68 520 q 122 539 94 531 q 186 555 150 548 q 212 729 205 693 q 224 819 224 794 q 193 853 224 845 q 138 900 138 867 q 160 949 138 925 q 207 973 182 973 l 302 970 q 477 979 368 970 q 638 988 585 988 q 939 883 825 988 q 1053 605 1053 777 q 890 260 1053 416 q 427 33 728 104 q 267 -25 309 4 q 174 -63 211 -63 q 129 -36 149 -63 q 109 8 109 -8 q 122 43 109 15 q 142 105 136 74 q 152 217 148 136 q 171 425 155 289 m 347 864 q 302 574 335 799 q 508 590 421 590 q 619 578 589 590 q 649 532 649 566 q 631 487 649 505 q 587 469 612 469 l 517 473 q 415 477 473 477 q 286 462 373 477 l 283 439 q 266 180 266 269 q 275 113 266 136 q 296 109 280 109 q 523 165 339 109 q 821 341 707 222 q 936 611 936 460 q 847 811 936 736 q 614 886 759 886 q 401 870 526 886 q 347 864 374 866 z "},"":{"ha":699,"x_min":47,"x_max":652,"o":"m 47 266 q 54 381 47 353 q 90 465 60 410 q 180 574 121 520 q 311 658 240 627 q 457 694 382 689 q 414 758 440 717 q 361 827 385 804 q 320 814 342 827 q 222 748 298 802 q 157 722 184 722 q 135 739 143 722 q 126 771 126 755 q 193 819 126 787 q 272 886 264 854 l 244 901 q 155 956 155 943 q 183 1003 155 977 q 236 1028 212 1028 q 353 962 271 1028 q 389 936 387 936 q 421 945 406 936 q 484 992 437 954 q 581 1048 549 1048 q 610 1004 610 1048 q 594 965 610 981 q 506 913 578 949 q 456 875 456 887 q 542 766 472 863 q 631 568 611 669 q 652 410 652 467 q 629 285 652 338 q 571 196 607 231 q 457 107 536 160 q 337 35 378 54 q 240 16 296 16 q 119 80 169 16 q 57 193 69 144 l 47 266 m 370 165 q 425 214 394 189 q 549 399 549 311 q 527 544 549 472 q 492 616 506 616 q 348 572 452 616 q 200 459 243 528 q 156 342 156 389 q 202 172 156 214 q 275 129 248 129 q 370 165 312 129 z "},"":{"ha":932,"x_min":18,"x_max":1023,"o":"m 425 473 q 277 654 371 529 q 184 771 212 743 q 110 838 157 800 q 32 908 47 887 q 18 952 18 929 q 39 981 18 963 q 77 999 60 999 q 186 937 119 999 q 309 805 254 874 q 517 568 477 593 q 601 658 557 612 q 873 959 825 890 q 980 1034 927 1034 q 1012 1014 1000 1034 q 1023 975 1023 995 q 972 897 1023 957 q 701 608 921 836 q 577 466 595 498 q 542 281 559 434 q 518 41 525 127 q 507 -19 514 -12 q 479 -33 500 -26 q 444 -40 457 -40 q 393 45 393 -40 q 415 233 393 98 q 435 407 435 363 q 425 473 435 446 m 821 1342 q 814 1338 819 1341 q 802 1332 810 1335 q 614 1202 757 1311 q 524 1137 555 1156 l 509 1127 q 477 1144 491 1127 q 464 1179 464 1161 q 568 1292 464 1213 q 755 1417 672 1371 q 802 1447 786 1434 q 814 1455 813 1457 q 841 1430 825 1455 q 856 1391 856 1404 q 843 1365 856 1383 q 821 1342 830 1348 z "},"":{"ha":821,"x_min":13,"x_max":789,"o":"m 591 239 q 372 82 467 131 q 227 33 277 33 q 124 89 160 33 q 89 219 89 144 q 131 477 89 323 q 194 660 174 631 q 260 688 215 688 q 292 666 279 688 q 304 615 304 644 q 288 571 304 598 q 250 500 252 507 q 224 419 248 494 q 199 278 199 344 q 211 206 199 255 q 257 157 222 157 q 349 180 294 157 q 472 254 404 203 q 564 338 541 306 q 598 410 588 370 q 612 587 608 451 q 677 722 616 722 q 725 703 714 722 q 736 629 736 684 q 730 517 736 585 q 720 397 722 433 q 672 22 711 210 q 558 -293 633 -166 q 353 -419 484 -419 q 116 -350 220 -419 q 13 -232 13 -280 q 23 -188 13 -210 q 50 -166 34 -166 q 68 -179 58 -166 q 347 -315 157 -315 q 512 -143 446 -315 q 586 181 579 30 q 591 239 587 210 m 754 981 q 747 977 751 979 q 735 970 743 974 q 547 840 690 949 q 457 775 488 795 l 441 766 q 410 783 424 766 q 397 817 397 800 q 501 930 397 852 q 688 1055 605 1009 q 734 1086 719 1073 q 747 1093 746 1095 q 773 1068 758 1093 q 789 1029 789 1043 q 776 1004 789 1021 q 754 981 763 986 z "},"":{"ha":1099,"x_min":124,"x_max":1102,"o":"m 263 1074 q 283 1098 273 1093 q 321 1103 294 1103 q 371 1091 353 1103 q 389 1063 389 1079 q 378 1001 389 1043 q 368 945 368 962 q 402 916 368 916 l 553 918 q 713 889 612 918 q 799 869 757 878 q 1018 785 934 846 q 1102 635 1102 724 q 912 412 1102 522 q 575 289 722 302 q 397 243 541 286 l 370 235 q 311 218 338 229 q 274 202 284 208 q 257 169 264 196 q 250 123 250 142 q 253 97 250 112 q 260 31 258 54 q 262 7 261 16 q 254 -44 264 -29 q 210 -60 243 -60 q 150 -24 176 -60 q 124 63 124 12 q 134 149 124 92 q 142 205 139 184 l 157 340 q 184 484 164 407 q 205 663 196 522 q 235 882 212 767 q 255 1014 251 964 q 263 1074 256 1051 m 956 576 q 989 624 989 610 q 781 762 989 709 q 404 815 573 815 q 338 774 348 815 q 328 721 328 734 q 297 519 328 651 q 268 376 268 412 q 277 341 268 351 q 317 332 286 332 l 342 332 q 470 357 391 332 q 574 387 541 380 q 668 405 656 401 q 745 434 681 409 q 847 480 808 458 q 907 519 886 501 q 956 576 928 538 z "},"":{"ha":898,"x_min":3,"x_max":833,"o":"m 213 79 q 157 -264 183 -28 q 138 -400 144 -376 q 113 -449 132 -425 q 77 -473 94 -473 q 30 -451 56 -473 q 3 -417 3 -430 q 20 -314 3 -380 q 156 590 128 123 q 173 792 159 644 l 189 972 q 218 1027 192 1004 q 275 1049 245 1049 q 310 1014 302 1049 q 318 917 318 979 q 292 665 318 852 q 231 299 266 478 q 670 745 421 745 q 786 693 739 745 q 833 566 833 642 q 663 165 833 345 q 333 -16 494 -16 q 213 79 256 -16 m 642 625 q 406 446 547 625 q 264 167 264 267 q 292 119 264 142 q 363 96 320 96 q 586 240 460 96 q 712 522 712 383 q 692 598 712 571 q 642 625 672 625 z "},"":{"ha":803,"x_min":64,"x_max":720,"o":"m 191 416 l 218 416 q 390 418 309 416 q 514 425 467 421 q 614 432 583 432 q 720 378 720 432 q 669 325 720 325 l 611 322 l 496 325 q 455 322 482 325 q 414 319 428 319 q 304 315 365 319 q 215 310 244 310 q 159 317 197 310 q 106 323 121 323 q 77 340 90 323 q 64 374 64 357 q 71 391 64 379 q 83 410 78 404 q 191 416 89 416 z "},"":{"ha":793,"x_min":121,"x_max":686,"o":"m 404 298 q 353 246 398 298 q 302 191 307 193 l 199 81 q 167 61 181 61 q 137 77 153 61 q 121 109 121 94 q 133 135 121 121 q 198 194 146 149 q 261 261 244 234 q 307 310 269 273 q 346 355 346 349 q 260 446 346 364 l 147 555 q 134 589 134 573 q 148 623 134 609 q 183 636 162 636 q 224 614 193 636 q 264 578 255 591 q 404 408 315 501 q 538 547 470 457 q 639 629 600 629 q 668 620 654 629 q 682 597 682 611 q 672 558 682 572 q 600 489 663 544 q 465 359 465 374 q 529 290 465 354 q 575 235 545 275 q 637 161 610 189 q 686 97 686 122 q 676 68 686 85 q 654 52 667 52 q 611 62 629 52 q 553 123 593 73 q 514 168 529 154 q 455 237 491 192 q 404 298 420 283 z "},"":{"ha":414,"x_min":136,"x_max":315,"o":"m 186 440 q 152 452 167 440 q 136 478 136 463 q 151 658 136 524 q 189 884 166 793 q 234 1008 211 975 q 288 1040 256 1040 q 308 1027 300 1040 q 315 1000 315 1013 q 302 965 315 994 q 286 885 296 954 l 262 736 q 248 587 250 656 q 233 472 246 505 q 186 440 220 440 z "},"":{"ha":611,"x_min":28,"x_max":607,"o":"m 368 888 q 353 899 368 899 q 216 857 300 899 q 197 848 203 850 q 182 835 191 846 q 157 814 165 814 q 119 876 119 814 q 165 929 119 917 q 268 966 178 932 q 370 991 336 991 q 428 968 401 991 q 454 911 454 944 q 443 856 454 895 q 421 807 431 817 q 179 514 323 696 l 180 511 q 189 507 182 507 q 235 519 197 507 q 420 555 277 533 q 492 567 473 562 q 553 578 532 578 q 591 559 576 578 q 607 513 607 541 q 589 478 607 494 q 550 463 572 463 q 523 468 543 463 q 494 473 502 473 q 192 410 391 473 q 87 385 115 385 q 46 397 64 385 q 28 435 28 410 q 290 764 28 494 q 344 833 317 793 q 368 888 370 873 z "},"":{"ha":539,"x_min":35,"x_max":526,"o":"m 382 904 q 347 907 374 907 q 239 869 304 907 l 187 842 q 146 832 170 832 q 119 850 132 832 q 106 884 106 867 q 130 919 106 905 q 236 951 155 932 q 260 958 250 954 q 399 991 343 991 q 486 918 486 991 q 424 807 486 864 q 364 753 364 762 q 370 750 364 750 q 397 761 378 750 q 425 772 416 772 q 492 745 458 772 q 526 684 526 717 q 460 559 526 636 q 269 435 395 481 q 72 389 143 389 q 46 404 58 389 q 35 435 35 419 q 54 494 35 481 q 117 507 74 507 q 129 505 121 507 q 139 503 136 503 q 214 516 166 503 l 243 524 q 362 581 289 533 q 435 664 435 629 q 389 688 435 688 q 313 679 374 688 q 236 664 252 670 q 207 657 220 657 q 158 704 158 657 q 175 739 158 718 q 207 760 192 760 l 233 755 q 325 807 256 755 q 395 893 395 858 q 382 904 395 902 z "},"":{"ha":1185,"x_min":90,"x_max":1161,"o":"m 204 503 q 167 493 199 493 q 117 561 117 493 q 127 595 115 566 q 149 701 134 612 q 164 775 157 755 q 189 878 176 808 q 262 1013 214 1013 q 288 998 278 1013 q 298 966 298 983 q 289 891 298 957 q 260 766 279 826 q 220 557 220 633 q 204 503 220 544 m 153 157 q 170 191 159 165 q 317 403 208 282 q 356 458 330 418 q 403 517 382 500 q 498 614 452 561 q 562 699 545 667 q 568 710 566 706 l 589 742 q 703 904 672 876 q 771 932 733 932 q 787 908 787 932 q 721 777 787 862 q 657 682 699 748 q 547 529 600 590 q 435 405 494 468 q 301 246 335 292 q 250 158 267 200 q 189 46 216 81 q 131 12 162 12 q 102 24 114 12 q 90 54 90 36 q 145 147 90 83 q 153 157 151 154 m 685 380 q 636 370 652 370 q 607 389 619 370 q 595 421 595 408 q 731 485 595 456 q 924 514 867 514 q 994 478 964 514 q 1025 427 1025 442 q 944 266 1025 353 q 760 145 863 179 q 682 98 681 119 q 766 106 716 98 q 1060 135 942 135 q 1098 132 1065 135 q 1126 124 1118 130 q 1147 98 1133 119 q 1161 57 1161 76 q 1114 22 1161 22 q 1045 31 1089 22 q 957 40 1000 40 q 791 25 902 40 q 636 11 686 11 q 583 3 618 11 q 532 -5 549 -5 q 489 12 509 -5 q 468 52 468 30 q 558 136 468 84 q 696 205 648 188 q 838 294 746 223 q 929 412 929 365 q 893 422 929 422 q 803 411 847 422 q 685 380 686 380 z "},"":{"ha":1153,"x_min":109,"x_max":1140,"o":"m 167 511 q 125 541 142 511 q 109 597 109 570 q 121 667 109 614 q 136 746 132 713 q 151 844 140 781 q 164 940 161 910 q 181 1014 165 967 q 220 1060 196 1060 q 258 1042 244 1060 q 272 999 272 1025 q 263 933 272 976 q 233 755 251 873 q 211 590 215 637 q 167 511 204 511 m 195 117 q 418 497 243 227 q 534 701 472 579 q 615 863 597 822 q 783 1060 707 1060 q 817 1047 802 1060 q 832 1015 832 1035 q 760 911 832 1002 q 674 790 691 827 q 621 672 657 754 q 534 510 578 572 q 382 273 440 374 q 270 41 324 171 q 178 -77 219 -77 q 145 -63 159 -77 q 131 -31 131 -49 q 174 75 131 -16 q 189 104 184 94 q 195 117 193 115 m 828 153 q 804 165 821 165 q 701 151 769 165 q 610 136 633 136 q 574 150 590 136 q 558 183 558 163 q 680 334 558 201 q 862 510 802 467 q 890 539 882 526 q 913 576 905 565 q 949 587 920 587 q 966 578 955 587 q 977 562 977 570 q 956 420 977 517 q 933 273 933 316 q 1002 257 941 257 q 1115 252 1090 257 q 1140 227 1140 248 q 1124 197 1140 213 q 1096 182 1109 182 l 1017 183 q 945 176 972 183 q 918 154 918 168 l 918 1 q 923 -20 918 -6 q 928 -47 928 -35 q 910 -78 928 -64 q 876 -92 893 -92 q 837 -60 846 -92 q 828 26 828 -28 l 828 153 m 864 396 l 857 400 q 704 237 743 300 l 708 228 q 842 245 823 236 q 856 328 850 270 q 864 396 862 387 z "},"":{"ha":1217,"x_min":55,"x_max":1158,"o":"m 270 -26 q 237 -9 251 -26 q 223 26 223 8 q 431 395 223 101 q 576 629 488 475 q 651 751 627 719 q 779 909 675 783 q 834 981 815 952 q 962 1112 925 1112 q 985 1074 985 1112 q 840 855 985 1038 q 697 668 740 730 q 562 453 654 605 q 492 346 524 391 q 385 180 411 227 q 335 66 359 134 q 270 -26 302 -26 m 414 755 q 385 764 406 764 q 319 760 363 764 q 254 755 276 755 q 184 804 184 755 q 291 881 184 826 q 409 951 386 928 q 387 968 403 968 q 146 923 260 968 q 91 909 107 909 q 66 924 78 909 q 55 955 55 938 q 145 1008 55 979 q 364 1038 236 1038 q 507 979 507 1038 q 456 900 507 940 q 372 846 406 859 q 347 833 347 838 q 378 825 347 825 q 455 815 417 823 q 494 770 494 806 q 452 685 494 728 q 287 581 410 642 q 274 572 283 579 q 194 530 216 530 q 160 547 176 530 q 145 582 145 564 q 269 657 145 606 q 414 755 392 715 m 1123 311 q 1097 307 1122 311 q 1066 300 1072 302 q 1001 123 1006 296 q 991 15 999 43 q 960 -14 983 -14 q 919 8 935 -14 q 903 57 903 29 q 936 229 903 74 q 939 254 939 247 q 922 278 939 278 q 845 268 893 278 q 787 252 796 258 q 761 230 777 245 q 723 211 742 211 q 688 227 702 211 q 674 264 674 242 q 801 448 674 290 q 956 607 928 607 q 995 643 983 607 q 1022 685 1008 674 q 1063 696 1036 696 q 1085 684 1073 696 q 1097 663 1097 672 q 1057 575 1097 636 q 1061 534 1061 562 q 1053 456 1061 510 q 1046 382 1046 408 q 1055 374 1046 374 q 1088 385 1063 376 q 1133 396 1114 396 q 1149 377 1141 396 q 1158 347 1158 358 q 1123 311 1158 323 m 980 521 q 834 340 864 412 q 860 346 852 344 l 882 351 q 926 362 894 353 q 962 380 958 372 q 970 408 965 388 q 976 443 976 427 q 980 521 976 500 z "},"":{"ha":1013,"x_min":46,"x_max":960,"o":"m 808 708 q 843 519 843 653 q 762 262 843 385 q 770 250 765 259 q 811 177 795 197 q 859 138 827 156 q 903 89 903 113 q 909 72 903 85 q 914 50 914 59 q 867 -11 914 31 q 789 39 840 -8 q 707 130 739 85 q 642 178 680 165 q 562 159 621 170 q 489 149 504 149 q 345 186 421 149 q 199 95 304 184 q 97 21 116 21 q 63 44 81 21 q 46 86 46 68 q 73 125 46 105 q 86 136 80 130 q 159 189 104 153 q 228 243 217 228 q 241 286 238 258 q 191 505 191 379 q 249 693 191 626 q 140 852 222 794 q 104 903 101 880 q 129 936 104 920 q 168 951 153 951 q 229 908 197 951 q 283 825 260 865 q 328 761 306 789 q 430 821 400 810 q 534 832 460 832 q 717 785 614 832 q 798 868 736 799 q 907 966 871 966 q 940 949 920 966 q 960 918 960 932 q 857 782 960 890 q 808 708 825 745 m 493 737 q 366 646 420 737 q 311 476 311 555 q 322 395 311 437 q 351 336 332 353 q 423 291 369 319 q 503 262 477 262 q 667 330 614 262 q 720 545 720 397 q 700 661 720 629 q 617 715 680 693 q 493 737 553 737 z "},"":{"ha":890,"x_min":239,"x_max":842,"o":"m 437 441 l 487 441 q 675 450 613 441 q 734 454 705 454 q 787 439 747 454 q 834 413 827 423 q 842 385 842 402 q 831 349 842 359 q 787 339 821 339 q 745 348 772 339 q 700 357 718 357 q 650 353 692 357 q 569 357 628 351 q 501 361 524 361 q 407 357 470 361 q 311 353 344 353 q 259 360 279 353 q 239 392 239 367 q 248 417 239 403 q 310 440 257 432 q 386 449 363 449 l 437 441 z "},"":{"ha":579,"x_min":-41,"x_max":621,"o":"m 579 1187 q 509 1193 563 1187 q 437 1198 454 1198 q 275 1190 399 1198 q 113 1181 151 1181 q 56 1184 101 1181 q 0 1187 12 1187 q -41 1232 -41 1187 q -30 1260 -41 1248 q 0 1272 -18 1272 l 104 1278 q 173 1276 130 1278 q 256 1273 216 1273 q 347 1279 287 1273 q 440 1284 408 1284 q 509 1278 451 1284 q 579 1272 567 1272 q 621 1221 621 1272 q 612 1194 621 1201 q 579 1187 604 1187 z "},"":{"ha":355,"x_min":96,"x_max":267,"o":"m 186 370 q 132 392 169 370 q 96 431 96 414 q 115 480 96 445 q 150 522 135 515 q 214 529 165 529 q 251 485 235 529 q 267 421 267 441 q 258 393 267 412 q 229 372 249 375 q 186 370 210 370 z "},"":{"ha":1096,"x_min":74,"x_max":1095,"o":"m 211 63 q 183 -167 183 -64 q 203 -298 183 -214 q 206 -330 206 -315 q 184 -359 206 -349 q 142 -370 161 -370 q 97 -324 120 -370 q 74 -203 74 -278 q 124 158 74 -76 l 193 479 q 202 568 199 513 q 264 631 206 631 q 321 568 321 631 q 291 423 321 541 q 256 207 256 288 q 278 142 256 169 q 332 115 300 115 q 420 133 375 115 q 514 185 466 150 q 602 256 563 220 q 664 329 642 292 q 690 388 686 366 q 694 490 694 410 q 700 578 694 561 q 721 609 705 595 q 753 623 736 623 q 825 514 825 623 q 798 394 825 490 q 785 317 785 347 q 815 188 785 237 q 900 140 846 140 q 1050 165 960 140 q 1071 170 1067 170 q 1087 162 1080 170 q 1095 146 1095 154 q 1009 74 1095 111 q 861 37 924 37 q 768 66 804 37 q 705 165 731 95 q 679 208 687 208 q 661 193 677 208 q 311 7 467 7 q 211 63 236 7 z "},"":{"ha":1075,"x_min":14,"x_max":1072,"o":"m 810 594 q 782 578 791 593 q 742 428 772 564 q 711 220 711 293 q 735 142 711 164 q 808 121 759 121 q 1025 190 899 121 q 1053 200 1044 200 q 1066 194 1059 200 q 1072 180 1072 188 q 975 85 1072 140 q 781 30 878 30 q 653 75 701 30 q 606 200 606 119 q 670 548 606 319 q 659 568 674 568 q 533 543 640 568 q 405 505 427 517 q 369 393 382 492 q 355 311 364 356 q 348 228 349 262 q 342 167 347 193 q 339 119 340 152 q 321 12 337 40 q 261 -17 305 -17 q 216 52 216 -17 q 241 249 216 118 q 251 307 247 281 q 258 342 253 321 q 277 468 277 437 q 264 481 277 481 q 180 475 241 481 q 87 468 119 468 q 14 526 14 468 q 30 563 14 548 q 62 578 46 578 q 496 626 315 586 q 918 704 856 704 q 992 658 992 704 q 975 615 992 633 q 945 597 957 597 l 923 597 q 810 594 823 597 z "},"":{"ha":1378,"x_min":29,"x_max":1382,"o":"m 391 115 q 282 278 315 205 q 250 466 250 352 q 303 685 250 566 q 460 891 357 803 q 645 1006 564 979 q 823 1034 725 1034 q 1113 925 996 1034 q 1230 648 1230 817 q 1050 228 1230 433 q 991 156 1005 176 q 1220 172 1050 156 q 1281 175 1253 175 q 1371 124 1368 175 q 1252 44 1382 44 l 1128 47 q 957 39 988 47 q 893 14 926 32 q 833 -9 854 -9 q 791 11 809 -9 q 774 52 774 30 q 809 118 774 90 q 1020 345 930 204 q 1109 656 1109 486 q 1019 863 1109 802 q 800 925 929 925 q 494 772 621 925 q 368 456 368 618 q 410 259 368 338 q 522 139 453 179 q 578 66 578 106 q 560 25 578 45 q 522 5 542 5 q 480 12 519 5 q 325 4 446 18 q 152 -24 205 -11 q 111 -31 123 -31 q 53 -14 77 -31 q 29 33 29 3 q 58 83 29 62 q 191 106 87 104 q 391 115 342 107 z "},"":{"ha":811,"x_min":1,"x_max":860,"o":"m 369 500 l 772 1089 q 786 1095 776 1095 q 833 1080 806 1095 q 860 1047 860 1065 q 858 1031 860 1041 q 821 973 856 1021 l 742 863 q 684 785 697 802 q 632 712 646 734 q 176 89 297 210 q 146 50 161 73 q 88 -31 102 -15 q 58 -47 73 -47 q 22 -31 43 -47 q 1 1 1 -14 q 169 239 1 48 q 369 500 275 366 z "},"":{"ha":823,"x_min":3,"x_max":877,"o":"m 257 209 q 250 93 250 136 l 253 9 q 203 -60 253 -60 q 145 -37 172 -60 q 119 27 119 -13 q 125 167 119 99 q 94 160 109 162 q 30 174 58 160 q 3 217 3 189 q 18 250 3 230 q 44 277 34 270 q 142 303 54 284 l 144 319 q 196 690 164 479 q 214 817 214 808 q 206 857 214 830 q 195 903 195 890 q 216 942 195 921 q 254 964 236 964 l 344 954 q 498 967 385 954 q 760 990 689 990 q 850 971 823 990 q 877 934 877 952 q 855 878 877 901 q 808 854 833 854 q 783 857 796 854 q 670 869 709 869 q 482 856 597 869 q 347 827 366 843 q 314 723 331 800 q 298 566 298 645 q 521 593 371 578 q 701 608 671 608 q 808 545 808 608 q 784 506 808 524 q 730 488 760 488 q 649 493 702 488 q 531 484 633 494 q 333 455 373 465 q 286 433 294 445 q 273 364 278 422 l 268 325 q 369 338 320 335 q 414 342 385 339 q 486 345 455 345 q 593 288 593 345 q 569 243 593 262 q 512 224 546 224 l 401 227 q 257 209 315 227 z "},"":{"ha":1078,"x_min":81,"x_max":1117,"o":"m 780 199 q 329 3 530 3 q 148 71 215 3 q 81 258 81 138 q 326 793 81 545 q 833 1042 570 1042 q 957 1014 910 1042 q 1003 943 1003 986 q 975 861 1003 906 q 920 816 947 816 q 891 844 903 816 q 850 905 872 888 q 781 922 827 922 q 516 809 663 922 q 284 551 369 696 q 199 269 199 406 q 345 111 199 111 q 499 144 412 111 q 687 246 587 178 q 809 366 787 314 q 842 506 830 417 q 913 554 849 554 q 981 512 981 554 q 961 444 981 493 q 911 301 928 366 q 882 152 895 237 q 869 31 869 67 q 881 -63 869 -1 q 883 -85 883 -76 q 865 -131 883 -109 q 821 -153 847 -153 q 763 -131 791 -153 q 735 -80 735 -108 q 766 115 735 -58 q 780 199 776 169 m 1017 1220 q 940 1179 997 1202 q 838 1157 882 1157 q 735 1201 803 1157 q 640 1301 668 1244 q 612 1369 612 1358 q 628 1409 612 1387 q 660 1430 644 1430 q 682 1409 672 1430 q 752 1298 709 1344 q 850 1251 796 1251 q 1027 1352 960 1251 q 1054 1383 1032 1360 q 1083 1407 1076 1407 q 1105 1385 1093 1407 q 1117 1352 1117 1364 q 1083 1287 1117 1331 q 1017 1220 1050 1243 z "},"":{"ha":798,"x_min":-75,"x_max":848,"o":"m 570 245 q 524 208 562 252 q 367 79 463 135 q 189 22 271 22 q 93 61 127 22 q 58 167 58 99 q 138 401 58 272 q 360 627 217 530 q 610 723 503 723 q 709 690 666 723 q 726 677 719 682 q 749 641 739 668 q 760 598 760 614 q 753 567 760 588 q 696 380 711 454 q 664 132 682 307 q 629 -111 648 -26 q 560 -275 610 -195 q 441 -394 511 -354 q 299 -433 372 -433 q 49 -346 172 -433 q -75 -205 -75 -258 q -50 -172 -75 -172 q 23 -212 -37 -172 q 310 -319 182 -319 q 479 -200 421 -319 q 558 155 537 -81 q 570 245 563 208 m 568 618 q 424 558 511 618 q 256 383 338 498 q 175 190 175 268 q 192 148 175 163 q 229 133 208 133 q 386 195 289 133 q 554 369 484 258 q 624 543 624 479 q 568 618 624 618 m 748 892 q 670 852 728 874 q 569 829 613 829 q 466 873 534 829 q 371 974 399 917 q 343 1041 343 1030 q 359 1081 343 1059 q 391 1103 375 1103 q 412 1081 403 1103 q 483 970 439 1017 q 581 924 527 924 q 758 1024 690 924 q 785 1056 763 1032 q 814 1080 807 1080 q 836 1058 824 1080 q 848 1024 848 1036 q 814 959 848 1003 q 748 892 781 916 z "},"":{"ha":887,"x_min":60,"x_max":805,"o":"m 336 -393 l 289 -379 q 222 -354 238 -364 q 207 -321 207 -345 q 219 -289 207 -304 q 244 -275 231 -275 q 277 -288 256 -275 q 344 -312 313 -312 q 420 -293 386 -312 q 454 -231 454 -274 q 439 -189 454 -207 q 399 -172 424 -172 q 369 -180 389 -172 q 337 -189 351 -189 q 301 -155 301 -189 l 343 -46 q 334 -48 338 -47 l 325 -51 q 161 -79 211 -79 q 91 -21 91 -79 q 112 33 91 14 q 478 114 307 33 q 650 268 650 195 q 598 326 650 297 q 466 374 547 354 q 168 499 275 422 q 60 707 60 576 q 221 900 60 812 q 552 989 382 989 q 738 951 670 989 q 805 861 805 913 q 791 794 805 839 q 719 750 778 750 q 709 821 719 790 q 654 866 699 851 q 574 880 609 880 l 572 880 q 291 820 407 880 q 174 698 174 760 q 221 609 174 660 q 332 539 269 558 q 347 534 333 538 l 387 520 q 466 494 441 500 q 693 401 619 455 q 768 269 768 347 q 688 126 768 204 q 436 -17 608 49 q 431 -28 435 -22 q 411 -97 417 -53 q 433 -106 419 -104 q 530 -153 509 -121 q 550 -269 550 -184 q 486 -355 550 -318 q 336 -393 422 -393 z "},"":{"ha":589,"x_min":14,"x_max":549,"o":"m 278 -22 l 278 -24 q 264 -83 269 -43 q 318 -100 279 -97 q 372 -111 347 -100 q 410 -153 396 -123 q 425 -248 425 -183 q 361 -338 425 -281 q 184 -394 298 -394 q 138 -384 168 -394 q 88 -364 109 -374 q 79 -359 79 -359 q 47 -313 47 -342 q 61 -277 47 -296 q 92 -258 76 -258 q 127 -275 103 -258 q 193 -309 168 -309 q 291 -286 269 -309 q 312 -224 312 -262 q 295 -181 312 -199 q 252 -164 277 -164 q 220 -173 243 -164 q 186 -180 205 -180 q 149 -144 149 -180 q 189 -38 178 -72 q 123 -43 155 -43 q 14 31 14 -43 q 38 69 14 57 q 88 81 63 81 q 127 75 98 81 q 163 68 155 68 q 325 93 239 68 q 431 155 411 118 q 323 256 431 199 q 137 369 185 326 q 88 463 88 411 q 223 687 88 598 q 444 776 359 776 q 524 757 499 776 q 549 691 549 738 q 531 655 549 670 q 503 640 513 640 q 473 650 495 640 q 445 660 452 660 q 307 610 411 660 q 203 498 203 561 q 240 430 203 460 q 372 354 277 399 q 494 276 448 317 q 540 178 540 234 q 278 -22 540 37 z "},"":{"ha":971,"x_min":78,"x_max":1095,"o":"m 799 205 q 825 172 825 205 q 750 75 825 138 q 576 -25 675 12 q 395 -62 477 -62 q 177 17 275 -62 q 78 247 78 96 q 314 782 78 522 q 770 1042 551 1042 q 901 991 852 1042 q 950 873 950 941 q 943 775 950 811 q 900 714 936 739 q 842 690 864 690 q 815 703 827 690 q 804 740 804 717 q 815 805 804 755 q 827 878 827 854 q 766 947 827 947 q 535 839 673 947 q 300 567 397 732 q 204 262 204 401 q 259 108 204 170 q 417 47 315 47 q 561 76 476 47 q 715 155 645 106 q 799 205 786 205 m 1060 1333 q 1053 1329 1057 1331 q 1041 1322 1048 1326 q 852 1192 996 1301 q 763 1127 793 1147 l 747 1118 q 716 1135 730 1118 q 703 1169 703 1152 q 807 1282 703 1204 q 994 1407 911 1361 q 1040 1438 1025 1425 q 1053 1445 1052 1447 q 1079 1420 1064 1445 q 1095 1381 1095 1395 q 1082 1356 1095 1373 q 1060 1333 1069 1338 z "},"":{"ha":704,"x_min":64,"x_max":753,"o":"m 275 -39 q 119 20 174 -39 q 64 183 64 78 q 205 556 64 360 q 466 753 345 753 q 561 693 521 753 q 600 568 600 634 q 583 499 600 528 q 548 470 566 470 q 492 549 509 470 q 439 635 474 635 q 273 467 369 635 q 176 184 176 300 q 307 69 176 69 q 542 163 407 69 q 612 196 589 196 q 635 170 635 196 q 513 40 635 118 q 275 -39 392 -39 m 719 1023 q 712 1019 716 1022 q 700 1013 707 1017 q 511 883 654 992 q 422 818 452 838 l 406 808 q 375 825 389 808 q 361 860 361 842 q 466 973 361 895 q 652 1098 570 1052 q 699 1128 684 1116 q 711 1136 711 1138 q 738 1111 723 1136 q 753 1072 753 1086 q 741 1046 753 1064 q 719 1023 728 1029 z "},"":{"ha":971,"x_min":78,"x_max":1041,"o":"m 799 205 q 825 172 825 205 q 750 75 825 138 q 576 -25 675 12 q 395 -62 477 -62 q 177 17 275 -62 q 78 247 78 96 q 314 782 78 522 q 770 1042 551 1042 q 901 991 852 1042 q 950 873 950 941 q 943 775 950 811 q 900 714 936 739 q 842 690 864 690 q 815 703 827 690 q 804 740 804 717 q 815 805 804 755 q 827 878 827 854 q 766 947 827 947 q 535 839 673 947 q 300 567 397 732 q 204 262 204 401 q 259 108 204 170 q 417 47 315 47 q 561 76 476 47 q 715 155 645 106 q 799 205 786 205 m 925 1276 q 814 1143 849 1194 q 774 1129 804 1129 q 708 1191 745 1129 q 546 1423 593 1377 q 533 1453 533 1436 q 572 1495 533 1495 q 617 1485 609 1495 q 660 1431 626 1475 q 706 1364 693 1387 q 718 1344 714 1348 q 745 1297 724 1338 q 785 1243 765 1260 q 802 1263 793 1251 q 921 1395 857 1335 q 1001 1455 984 1455 q 1027 1439 1013 1455 q 1041 1410 1041 1422 q 961 1311 1041 1381 q 925 1276 925 1278 z "},"":{"ha":704,"x_min":64,"x_max":718,"o":"m 275 -39 q 119 20 174 -39 q 64 183 64 78 q 205 556 64 360 q 466 753 345 753 q 561 693 521 753 q 600 568 600 634 q 583 499 600 528 q 548 470 566 470 q 492 549 509 470 q 439 635 474 635 q 273 467 369 635 q 176 184 176 300 q 307 69 176 69 q 542 163 407 69 q 612 196 589 196 q 635 170 635 196 q 513 40 635 118 q 275 -39 392 -39 m 602 962 q 491 828 526 880 q 450 814 480 814 q 385 876 422 814 q 222 1109 269 1062 q 210 1138 210 1121 q 248 1181 210 1181 q 294 1171 286 1181 q 336 1116 302 1160 q 382 1049 370 1072 q 394 1029 391 1033 q 421 983 400 1023 q 462 928 441 945 q 479 949 469 937 q 597 1081 534 1021 q 677 1141 661 1141 q 703 1124 689 1141 q 718 1095 718 1107 q 637 996 718 1066 q 602 962 602 964 z "},"":{"ha":1080,"x_min":-7,"x_max":1059,"o":"m 656 970 q 663 937 663 966 q 656 893 663 908 l 665 865 q 709 733 688 785 q 763 585 736 664 q 889 272 823 402 q 1008 90 954 142 q 1051 44 1042 56 q 1059 14 1059 31 q 1039 -36 1059 -16 q 991 -57 1019 -57 q 781 216 905 -57 q 722 324 732 324 q 582 304 689 324 q 385 258 474 285 q 321 243 334 243 q 286 260 304 243 q 277 262 282 262 q 213 174 262 262 q 110 0 132 28 q 63 -28 89 -28 q 19 -6 45 -28 q -7 37 -7 15 q 18 96 -7 59 q 117 245 42 133 q 344 618 252 444 q 529 945 490 895 q 589 995 568 995 q 656 970 634 995 m 698 431 q 628 630 674 486 q 564 817 578 784 q 449 594 527 739 l 326 361 q 401 379 340 372 q 483 391 448 384 q 698 431 668 429 m 814 1174 q 787 1133 814 1147 q 730 1122 760 1122 q 687 1122 707 1122 q 637 1122 667 1122 q 610 1122 621 1122 q 590 1122 599 1122 q 563 1118 578 1122 q 526 1108 547 1115 q 465 1096 483 1096 q 445 1100 454 1096 q 430 1112 436 1105 q 419 1129 423 1120 q 416 1149 416 1139 q 428 1178 416 1168 q 463 1193 441 1188 q 541 1207 500 1204 q 588 1212 562 1211 q 645 1214 613 1213 q 696 1215 677 1215 q 722 1217 715 1216 q 737 1219 731 1218 q 748 1220 743 1219 q 759 1220 753 1220 q 770 1221 764 1221 q 802 1207 791 1221 q 814 1174 814 1194 z "},"":{"ha":815,"x_min":61,"x_max":753,"o":"m 547 247 q 359 56 452 119 q 189 -8 267 -8 q 99 36 137 -8 q 61 149 61 80 q 220 533 61 328 q 537 739 380 739 q 622 674 594 739 q 650 652 631 652 q 704 610 704 652 q 697 553 704 589 q 661 271 661 353 q 723 74 661 106 q 753 34 753 58 q 724 -8 753 13 q 667 -30 694 -30 q 581 42 615 -30 q 547 247 547 114 m 506 629 q 298 461 416 629 q 179 182 179 293 q 231 104 179 104 q 437 255 305 104 q 570 532 570 406 q 506 629 570 629 m 738 905 q 711 864 738 878 q 654 852 684 852 q 611 853 631 852 q 561 853 591 853 q 534 853 545 853 q 514 852 523 853 q 487 849 503 852 q 450 839 471 846 q 389 827 407 827 q 369 831 378 827 q 354 843 360 836 q 343 860 347 850 q 340 880 340 869 q 352 909 340 899 q 387 924 365 919 q 465 938 424 935 q 512 943 486 941 q 569 945 537 944 q 620 946 601 945 q 646 947 639 947 q 661 949 655 949 q 672 950 667 950 q 683 951 677 951 q 694 951 688 951 q 726 938 715 951 q 738 905 738 925 z "},"":{"ha":1080,"x_min":-7,"x_max":1059,"o":"m 656 970 q 663 937 663 966 q 656 893 663 908 l 665 865 q 709 733 688 785 q 763 585 736 664 q 889 272 823 402 q 1008 90 954 142 q 1051 44 1042 56 q 1059 14 1059 31 q 1039 -36 1059 -16 q 991 -57 1019 -57 q 781 216 905 -57 q 722 324 732 324 q 582 304 689 324 q 385 258 474 285 q 321 243 334 243 q 286 260 304 243 q 277 262 282 262 q 213 174 262 262 q 110 0 132 28 q 63 -28 89 -28 q 19 -6 45 -28 q -7 37 -7 15 q 18 96 -7 59 q 117 245 42 133 q 344 618 252 444 q 529 945 490 895 q 589 995 568 995 q 656 970 634 995 m 698 431 q 628 630 674 486 q 564 817 578 784 q 449 594 527 739 l 326 361 q 401 379 340 372 q 483 391 448 384 q 698 431 668 429 m 777 1152 q 700 1112 757 1134 q 598 1089 642 1089 q 495 1133 563 1089 q 400 1233 428 1177 q 372 1301 372 1290 q 388 1341 372 1319 q 420 1362 404 1362 q 441 1341 432 1362 q 512 1230 469 1276 q 610 1183 556 1183 q 787 1284 720 1183 q 814 1316 792 1292 q 843 1339 836 1339 q 865 1318 853 1339 q 877 1284 877 1296 q 843 1219 877 1263 q 777 1152 810 1175 z "},"":{"ha":815,"x_min":61,"x_max":787,"o":"m 547 247 q 359 56 452 119 q 189 -8 267 -8 q 99 36 137 -8 q 61 149 61 80 q 220 533 61 328 q 537 739 380 739 q 622 674 594 739 q 650 652 631 652 q 704 610 704 652 q 697 553 704 589 q 661 271 661 353 q 723 74 661 106 q 753 34 753 58 q 724 -8 753 13 q 667 -30 694 -30 q 581 42 615 -30 q 547 247 547 114 m 506 629 q 298 461 416 629 q 179 182 179 293 q 231 104 179 104 q 437 255 305 104 q 570 532 570 406 q 506 629 570 629 m 687 880 q 609 839 667 861 q 508 817 552 817 q 405 860 473 817 q 310 961 338 904 q 282 1028 282 1017 q 298 1068 282 1046 q 330 1090 314 1090 q 351 1068 342 1090 q 422 957 378 1004 q 519 911 466 911 q 697 1011 629 911 q 724 1043 702 1019 q 753 1067 746 1067 q 775 1045 763 1067 q 787 1011 787 1023 q 753 946 787 990 q 687 880 720 903 z "},"":{"ha":1080,"x_min":-7,"x_max":1072,"o":"m 922 -20 q 781 216 860 42 q 722 324 732 324 q 582 304 689 324 q 385 258 474 285 q 321 243 334 243 q 286 260 304 243 q 277 262 282 262 q 213 174 262 262 q 110 0 132 28 q 63 -28 89 -28 q 19 -6 45 -28 q -7 37 -7 15 q 18 96 -7 59 q 117 245 42 133 q 344 618 252 444 q 529 945 490 895 q 589 995 568 995 q 656 970 634 995 q 663 937 663 966 q 656 893 663 908 l 665 865 q 709 733 688 785 q 763 585 736 664 q 889 272 823 402 q 1008 90 954 142 q 1051 44 1042 56 q 1059 14 1059 31 q 1048 -30 1059 -12 q 987 -73 1038 -48 q 868 -218 868 -143 q 948 -272 868 -275 q 1014 -262 973 -277 q 1054 -252 1044 -252 q 1072 -274 1072 -252 q 1050 -332 1072 -303 q 926 -361 1028 -361 q 808 -320 844 -361 q 772 -231 772 -279 q 922 -20 772 -115 m 698 431 q 628 630 674 486 q 564 817 578 784 q 449 594 527 739 l 326 361 q 401 379 340 372 q 483 391 448 384 q 698 431 668 429 z "},"":{"ha":815,"x_min":61,"x_max":755,"o":"m 609 -2 q 547 247 547 68 q 359 56 452 119 q 189 -8 267 -8 q 99 36 137 -8 q 61 149 61 80 q 220 533 61 328 q 537 739 380 739 q 622 674 594 739 q 650 652 631 652 q 704 610 704 652 q 697 553 704 589 q 661 271 661 353 q 723 74 661 106 q 751 48 747 62 q 755 27 755 41 q 730 -26 755 -13 q 715 -36 724 -30 q 690 -50 705 -43 q 590 -126 629 -81 q 552 -207 552 -172 q 632 -261 552 -264 q 698 -252 657 -266 q 738 -241 728 -241 q 755 -263 755 -241 q 733 -322 755 -293 q 621 -351 711 -351 q 492 -308 528 -351 q 456 -221 456 -264 q 609 -2 456 -108 m 506 629 q 298 461 416 629 q 179 182 179 293 q 231 104 179 104 q 437 255 305 104 q 570 532 570 406 q 506 629 570 629 z "},"":{"ha":1103,"x_min":109,"x_max":1053,"o":"m 224 819 q 193 853 224 845 q 138 900 138 867 q 160 949 138 925 q 207 973 182 973 l 302 970 q 477 979 368 970 q 638 988 585 988 q 939 883 825 988 q 1053 605 1053 777 q 890 260 1053 416 q 427 33 728 104 q 267 -25 309 4 q 174 -63 211 -63 q 129 -36 149 -63 q 109 8 109 -8 q 122 43 109 15 q 142 105 136 74 q 152 217 148 136 q 177 476 155 297 q 212 729 198 654 q 224 819 224 794 m 347 864 q 266 180 266 379 q 275 113 266 136 q 296 109 280 109 q 523 165 339 109 q 821 341 707 222 q 936 611 936 460 q 847 811 936 736 q 614 886 759 886 q 401 870 526 886 q 347 864 374 866 m 819 1217 q 709 1084 743 1135 q 668 1070 698 1070 q 602 1132 640 1070 q 440 1364 487 1318 q 427 1394 427 1377 q 466 1436 427 1436 q 512 1426 503 1436 q 554 1372 520 1416 q 600 1305 587 1328 q 612 1285 608 1289 q 639 1238 618 1279 q 680 1184 659 1201 q 696 1204 687 1192 q 815 1336 751 1276 q 895 1396 878 1396 q 921 1380 907 1396 q 935 1351 935 1363 q 855 1252 935 1322 q 819 1217 819 1219 z "},"":{"ha":1132,"x_min":54,"x_max":1211,"o":"m 576 281 q 384 56 486 135 q 197 -23 282 -23 q 93 27 131 -23 q 54 162 54 78 q 194 514 54 334 q 494 694 333 694 q 625 634 565 694 l 720 1078 q 758 1139 730 1123 q 801 1154 785 1154 q 848 1070 848 1154 q 817 959 848 1055 q 723 592 768 810 q 679 243 679 375 q 738 108 679 108 q 817 133 776 108 q 848 145 833 145 q 870 117 870 145 q 809 37 870 82 q 685 -9 749 -9 q 573 207 573 -9 q 576 281 573 243 m 488 598 q 270 449 378 598 q 162 174 162 300 q 218 90 162 90 q 347 145 271 90 q 503 322 422 201 q 583 505 583 444 q 555 567 583 535 q 488 598 528 598 m 902 787 q 1064 875 1028 818 q 1100 957 1100 932 q 1081 1055 1100 1026 q 1072 1080 1072 1067 q 1081 1109 1072 1090 q 1100 1128 1090 1128 q 1145 1117 1114 1128 q 1181 1099 1175 1107 q 1199 1048 1186 1091 q 1211 975 1211 1006 q 1186 904 1211 964 q 1116 810 1160 844 q 1034 769 1072 777 q 1004 762 1018 766 q 917 738 951 738 q 897 770 897 738 q 902 787 897 782 z "},"":{"ha":1103,"x_min":39,"x_max":1053,"o":"m 171 425 q 114 408 127 410 q 61 422 83 408 q 39 465 39 437 q 54 499 39 478 q 81 526 68 520 q 122 539 94 531 q 186 555 150 548 q 212 729 205 693 q 224 819 224 794 q 193 853 224 845 q 138 900 138 867 q 160 949 138 925 q 207 973 182 973 l 302 970 q 477 979 368 970 q 638 988 585 988 q 939 883 825 988 q 1053 605 1053 777 q 890 260 1053 416 q 427 33 728 104 q 267 -25 309 4 q 174 -63 211 -63 q 129 -36 149 -63 q 109 8 109 -8 q 122 43 109 15 q 142 105 136 74 q 152 217 148 136 q 171 425 155 289 m 347 864 q 302 574 335 799 q 508 590 421 590 q 619 578 589 590 q 649 532 649 566 q 631 487 649 505 q 587 469 612 469 l 517 473 q 415 477 473 477 q 286 462 373 477 l 283 439 q 266 180 266 269 q 275 113 266 136 q 296 109 280 109 q 523 165 339 109 q 821 341 707 222 q 936 611 936 460 q 847 811 936 736 q 614 886 759 886 q 401 870 526 886 q 347 864 374 866 z "},"":{"ha":950,"x_min":104,"x_max":922,"o":"m 877 875 q 840 876 875 874 q 768 869 805 877 q 703 858 732 860 q 661 852 684 857 q 545 846 631 847 q 382 829 416 844 q 345 764 349 813 q 330 682 341 727 q 297 505 297 549 l 307 504 q 436 513 339 502 q 581 534 533 524 q 732 558 680 558 q 817 513 817 558 q 761 445 817 457 q 524 412 704 432 q 290 369 304 388 q 259 244 275 349 q 243 110 243 139 l 243 102 q 286 64 246 68 l 298 63 q 387 69 336 61 l 517 88 q 665 112 590 98 q 783 132 758 132 q 825 116 802 132 q 848 65 848 100 q 836 31 848 40 q 658 -3 767 0 q 363 -35 564 -7 q 231 -50 262 -50 q 131 -38 151 -50 q 107 24 111 -25 l 104 47 l 104 50 q 117 94 104 60 q 156 277 134 142 q 186 490 179 412 q 197 556 189 517 q 227 812 227 718 q 213 838 227 817 q 208 844 210 842 q 199 870 203 860 q 195 892 195 880 l 195 899 q 213 926 195 914 q 248 937 231 937 l 250 937 q 315 933 279 937 l 318 933 q 469 946 334 933 q 791 991 604 959 q 814 994 810 994 l 825 995 q 898 984 878 998 q 922 930 918 970 q 905 894 922 911 q 877 875 887 876 m 808 1176 q 781 1135 808 1149 q 724 1124 754 1124 q 681 1124 701 1124 q 631 1124 661 1124 q 604 1124 615 1124 q 584 1124 593 1124 q 557 1120 572 1124 q 519 1110 541 1117 q 458 1098 477 1098 q 439 1102 448 1098 q 424 1114 430 1107 q 413 1131 417 1122 q 410 1151 410 1141 q 422 1180 410 1171 q 457 1195 435 1190 q 535 1209 494 1206 q 582 1214 556 1213 q 639 1216 607 1215 q 690 1217 671 1217 q 716 1219 709 1218 q 731 1221 725 1220 q 742 1222 737 1221 q 752 1222 747 1222 q 764 1223 758 1223 q 796 1210 785 1223 q 808 1176 808 1196 z "},"":{"ha":722,"x_min":68,"x_max":671,"o":"m 671 230 q 548 63 671 161 q 296 -35 426 -35 q 127 30 186 -35 q 68 210 68 94 q 199 578 68 404 q 485 753 330 753 q 568 720 536 753 q 600 640 600 687 q 498 440 600 536 q 224 252 395 345 q 189 205 189 234 q 221 115 189 149 q 317 81 254 81 q 615 242 463 81 q 649 264 637 264 q 671 230 671 264 m 199 336 q 487 610 487 507 q 450 651 487 651 q 310 559 388 651 q 199 336 231 468 m 621 920 q 594 880 621 893 q 536 868 567 868 q 494 868 514 868 q 444 869 474 869 q 417 869 428 869 q 397 868 406 869 q 370 865 385 868 q 332 854 354 861 q 271 842 290 842 q 252 847 261 842 q 236 859 243 851 q 226 876 230 866 q 222 895 222 885 q 235 925 222 915 q 270 939 248 935 q 348 954 307 951 q 394 958 369 957 q 452 960 420 960 q 503 962 484 961 q 529 963 522 962 q 544 965 538 964 q 555 966 550 966 q 565 967 560 966 q 577 967 570 967 q 609 954 597 967 q 621 920 621 941 z "},"":{"ha":950,"x_min":104,"x_max":922,"o":"m 877 875 q 840 876 875 874 q 768 869 805 877 q 703 858 732 860 q 661 852 684 857 q 545 846 631 847 q 382 829 416 844 q 345 764 349 813 q 330 682 341 727 q 297 505 297 549 l 307 504 q 436 513 339 502 q 581 534 533 524 q 732 558 680 558 q 817 513 817 558 q 761 445 817 457 q 524 412 704 432 q 290 369 304 388 q 259 244 275 349 q 243 110 243 139 l 243 102 q 286 64 246 68 l 298 63 q 387 69 336 61 l 517 88 q 665 112 590 98 q 783 132 758 132 q 825 116 802 132 q 848 65 848 100 q 836 31 848 40 q 658 -3 767 0 q 363 -35 564 -7 q 231 -50 262 -50 q 131 -38 151 -50 q 107 24 111 -25 l 104 47 l 104 50 q 117 94 104 60 q 156 277 134 142 q 186 490 179 412 q 197 556 189 517 q 227 812 227 718 q 213 838 227 817 q 208 844 210 842 q 199 870 203 860 q 195 892 195 880 l 195 899 q 213 926 195 914 q 248 937 231 937 l 250 937 q 315 933 279 937 l 318 933 q 469 946 334 933 q 791 991 604 959 q 814 994 810 994 l 825 995 q 898 984 878 998 q 922 930 918 970 q 905 894 922 911 q 877 875 887 876 m 605 1092 q 552 1103 583 1092 q 522 1139 522 1114 q 548 1210 522 1168 q 597 1251 574 1251 q 663 1230 638 1251 q 688 1171 688 1209 q 663 1116 688 1139 q 605 1092 637 1092 z "},"":{"ha":722,"x_min":68,"x_max":671,"o":"m 671 230 q 548 63 671 161 q 296 -35 426 -35 q 127 30 186 -35 q 68 210 68 94 q 199 578 68 404 q 485 753 330 753 q 568 720 536 753 q 600 640 600 687 q 498 440 600 536 q 224 252 395 345 q 189 205 189 234 q 221 115 189 149 q 317 81 254 81 q 615 242 463 81 q 649 264 637 264 q 671 230 671 264 m 199 336 q 487 610 487 507 q 450 651 487 651 q 310 559 388 651 q 199 336 231 468 m 419 843 q 366 854 397 843 q 336 890 336 865 q 362 961 336 919 q 411 1002 389 1002 q 477 981 452 1002 q 503 922 503 960 q 477 867 503 890 q 419 843 451 843 z "},"":{"ha":950,"x_min":104,"x_max":936,"o":"m 877 875 q 840 876 875 874 q 768 869 805 877 q 703 858 732 860 q 661 852 684 857 q 545 846 631 847 q 382 829 416 844 q 345 764 349 813 q 330 682 341 727 q 297 505 297 549 l 307 504 q 436 513 339 502 q 581 534 533 524 q 732 558 680 558 q 817 513 817 558 q 761 445 817 457 q 524 412 704 432 q 290 369 304 388 q 259 244 275 349 q 243 110 243 139 l 243 102 q 286 64 246 68 l 298 63 q 387 69 336 61 l 517 88 q 665 112 590 98 q 783 132 758 132 q 825 116 802 132 q 848 65 848 100 q 840 34 848 45 q 821 16 833 27 q 720 -156 720 -70 q 734 -194 720 -178 q 770 -210 747 -210 q 875 -179 832 -210 q 920 -157 905 -157 q 936 -196 936 -157 q 744 -296 936 -296 q 659 -261 691 -296 q 627 -168 627 -225 q 695 -1 627 -85 q 363 -35 564 -7 q 231 -50 262 -50 q 131 -38 151 -50 q 107 24 111 -25 l 104 47 l 104 50 q 117 94 104 60 q 156 277 134 142 q 186 490 179 412 q 197 556 189 517 q 227 812 227 718 q 213 838 227 817 q 208 844 210 842 q 199 870 203 860 q 195 892 195 880 l 195 899 q 213 926 195 914 q 248 937 231 937 l 250 937 q 315 933 279 937 l 318 933 q 469 946 334 933 q 791 991 604 959 q 814 994 810 994 l 825 995 q 898 984 878 998 q 922 930 918 970 q 905 894 922 911 q 877 875 887 876 z "},"":{"ha":722,"x_min":68,"x_max":671,"o":"m 511 35 q 497 23 505 30 q 399 -146 399 -58 q 413 -184 399 -168 q 450 -200 427 -200 q 554 -169 511 -200 q 600 -147 584 -147 q 615 -186 615 -147 q 423 -286 615 -286 q 338 -251 370 -286 q 307 -158 307 -215 q 346 -31 307 -92 q 296 -35 321 -35 q 127 30 186 -35 q 68 210 68 94 q 199 578 68 404 q 485 753 330 753 q 568 720 536 753 q 600 640 600 687 q 498 440 600 536 q 224 252 395 345 q 189 205 189 234 q 221 115 189 149 q 317 81 254 81 q 615 242 463 81 q 649 264 637 264 q 671 230 671 264 q 511 35 671 148 m 199 336 q 487 610 487 507 q 450 651 487 651 q 310 559 388 651 q 199 336 231 468 z "},"":{"ha":950,"x_min":104,"x_max":922,"o":"m 877 875 q 840 876 875 874 q 768 869 805 877 q 703 858 732 860 q 661 852 684 857 q 545 846 631 847 q 382 829 416 844 q 345 764 349 813 q 330 682 341 727 q 297 505 297 549 l 307 504 q 436 513 339 502 q 581 534 533 524 q 732 558 680 558 q 817 513 817 558 q 761 445 817 457 q 524 412 704 432 q 290 369 304 388 q 259 244 275 349 q 243 110 243 139 l 243 102 q 286 64 246 68 l 298 63 q 387 69 336 61 l 517 88 q 665 112 590 98 q 783 132 758 132 q 825 116 802 132 q 848 65 848 100 q 836 31 848 40 q 658 -3 767 0 q 363 -35 564 -7 q 231 -50 262 -50 q 131 -38 151 -50 q 107 24 111 -25 l 104 47 l 104 50 q 117 94 104 60 q 156 277 134 142 q 186 490 179 412 q 197 556 189 517 q 227 812 227 718 q 213 838 227 817 q 208 844 210 842 q 199 870 203 860 q 195 892 195 880 l 195 899 q 213 926 195 914 q 248 937 231 937 l 250 937 q 315 933 279 937 l 318 933 q 469 946 334 933 q 791 991 604 959 q 814 994 810 994 l 825 995 q 898 984 878 998 q 922 930 918 970 q 905 894 922 911 q 877 875 887 876 m 776 1219 q 665 1086 700 1137 q 625 1072 654 1072 q 559 1134 596 1072 q 397 1367 444 1320 q 384 1396 384 1379 q 422 1438 384 1438 q 468 1428 460 1438 q 510 1374 477 1418 q 557 1307 544 1330 q 568 1287 565 1291 q 595 1240 574 1281 q 636 1186 616 1203 q 653 1206 644 1194 q 771 1338 708 1278 q 852 1398 835 1398 q 878 1382 863 1398 q 892 1353 892 1365 q 812 1254 892 1324 q 776 1219 776 1221 z "}}}
